<mxfile host="Electron" agent="Mozilla/5.0 (Windows NT 10.0; Win64; x64) AppleWebKit/537.36 (KHTML, like Gecko) draw.io/26.2.2 Chrome/134.0.6998.178 Electron/35.1.2 Safari/537.36" version="26.2.2" pages="2">
  <diagram name="Kafka" id="PRxahnZpKVBk4v1Q9VDV">
    <mxGraphModel dx="1160" dy="696" grid="1" gridSize="10" guides="1" tooltips="1" connect="1" arrows="1" fold="1" page="1" pageScale="1" pageWidth="827" pageHeight="1169" math="0" shadow="0" adaptiveColors="none">
      <root>
        <mxCell id="0" />
        <mxCell id="1" parent="0" />
        <mxCell id="Yv_7eWdQ3MUncGAaWXMb-1" value="" style="rounded=1;whiteSpace=wrap;html=1;arcSize=1;" vertex="1" parent="1">
          <mxGeometry x="179" y="55" width="470" height="355" as="geometry" />
        </mxCell>
        <mxCell id="J7venS5TL9Rjq6fZa3AA-3" value="" style="rounded=1;whiteSpace=wrap;html=1;fillColor=#CCE5FF;arcSize=1;" vertex="1" parent="1">
          <mxGeometry x="200" y="80" width="200" height="230" as="geometry" />
        </mxCell>
        <mxCell id="J7venS5TL9Rjq6fZa3AA-4" value="" style="rounded=1;whiteSpace=wrap;html=1;fillColor=#99CCFF;align=left;arcSize=4;" vertex="1" parent="1">
          <mxGeometry x="220" y="100" width="160" height="30" as="geometry" />
        </mxCell>
        <mxCell id="J7venS5TL9Rjq6fZa3AA-6" value="&lt;font style=&quot;font-size: 10px;&quot;&gt;Topic: NOMBRE TOPICO&lt;/font&gt;" style="text;html=1;align=center;verticalAlign=middle;whiteSpace=wrap;rounded=0;" vertex="1" parent="1">
          <mxGeometry x="200" y="280" width="200" height="20" as="geometry" />
        </mxCell>
        <mxCell id="J7venS5TL9Rjq6fZa3AA-14" value="&lt;font style=&quot;font-size: 8px;&quot;&gt;Partition: NOMBRE PARTICIÓN&lt;/font&gt;" style="text;html=1;align=center;verticalAlign=middle;whiteSpace=wrap;rounded=0;" vertex="1" parent="1">
          <mxGeometry x="220" y="130" width="160" height="20" as="geometry" />
        </mxCell>
        <mxCell id="J7venS5TL9Rjq6fZa3AA-26" value="&lt;font style=&quot;font-size: 8px;&quot;&gt;Partition: NOMBRE PARTICIÓN&lt;/font&gt;" style="text;html=1;align=center;verticalAlign=middle;whiteSpace=wrap;rounded=0;" vertex="1" parent="1">
          <mxGeometry x="220" y="190" width="160" height="20" as="geometry" />
        </mxCell>
        <mxCell id="J7venS5TL9Rjq6fZa3AA-27" value="" style="rounded=1;whiteSpace=wrap;html=1;fillColor=#99CCFF;align=left;arcSize=4;" vertex="1" parent="1">
          <mxGeometry x="220" y="160" width="160" height="30" as="geometry" />
        </mxCell>
        <mxCell id="J7venS5TL9Rjq6fZa3AA-28" value="&lt;font style=&quot;font-size: 8px;&quot;&gt;Partition: NOMBRE PARTICIÓN&lt;/font&gt;" style="text;html=1;align=center;verticalAlign=middle;whiteSpace=wrap;rounded=0;" vertex="1" parent="1">
          <mxGeometry x="220" y="250" width="160" height="20" as="geometry" />
        </mxCell>
        <mxCell id="J7venS5TL9Rjq6fZa3AA-29" value="" style="rounded=1;whiteSpace=wrap;html=1;fillColor=#99CCFF;align=left;arcSize=4;" vertex="1" parent="1">
          <mxGeometry x="220" y="220" width="160" height="30" as="geometry" />
        </mxCell>
        <mxCell id="J7venS5TL9Rjq6fZa3AA-31" value="" style="shape=note;whiteSpace=wrap;html=1;backgroundOutline=1;darkOpacity=0.05;size=7;fillColor=#FFC4B0;" vertex="1" parent="1">
          <mxGeometry x="350" y="162.5" width="20" height="25" as="geometry" />
        </mxCell>
        <mxCell id="J7venS5TL9Rjq6fZa3AA-32" value="" style="shape=note;whiteSpace=wrap;html=1;backgroundOutline=1;darkOpacity=0.05;size=7;fillColor=#FFC4B0;" vertex="1" parent="1">
          <mxGeometry x="320" y="162.5" width="20" height="25" as="geometry" />
        </mxCell>
        <mxCell id="J7venS5TL9Rjq6fZa3AA-33" value="" style="shape=note;whiteSpace=wrap;html=1;backgroundOutline=1;darkOpacity=0.05;size=7;fillColor=#FFC4B0;" vertex="1" parent="1">
          <mxGeometry x="290" y="162.5" width="20" height="25" as="geometry" />
        </mxCell>
        <mxCell id="J7venS5TL9Rjq6fZa3AA-34" value="" style="shape=note;whiteSpace=wrap;html=1;backgroundOutline=1;darkOpacity=0.05;size=7;fillColor=#FFC4B0;" vertex="1" parent="1">
          <mxGeometry x="260" y="162.5" width="20" height="25" as="geometry" />
        </mxCell>
        <mxCell id="J7venS5TL9Rjq6fZa3AA-35" value="" style="shape=note;whiteSpace=wrap;html=1;backgroundOutline=1;darkOpacity=0.05;size=7;fillColor=#FFC4B0;" vertex="1" parent="1">
          <mxGeometry x="230" y="162.5" width="20" height="25" as="geometry" />
        </mxCell>
        <mxCell id="J7venS5TL9Rjq6fZa3AA-36" value="" style="shape=note;whiteSpace=wrap;html=1;backgroundOutline=1;darkOpacity=0.05;size=7;fillColor=#FFFFCC;" vertex="1" parent="1">
          <mxGeometry x="290" y="222.5" width="20" height="25" as="geometry" />
        </mxCell>
        <mxCell id="J7venS5TL9Rjq6fZa3AA-37" value="" style="shape=note;whiteSpace=wrap;html=1;backgroundOutline=1;darkOpacity=0.05;size=7;fillColor=#FFFFCC;" vertex="1" parent="1">
          <mxGeometry x="350" y="222.5" width="20" height="25" as="geometry" />
        </mxCell>
        <mxCell id="J7venS5TL9Rjq6fZa3AA-38" value="" style="shape=note;whiteSpace=wrap;html=1;backgroundOutline=1;darkOpacity=0.05;size=7;fillColor=#FFFFCC;" vertex="1" parent="1">
          <mxGeometry x="320" y="222.5" width="20" height="25" as="geometry" />
        </mxCell>
        <mxCell id="J7venS5TL9Rjq6fZa3AA-39" value="" style="shape=note;whiteSpace=wrap;html=1;backgroundOutline=1;darkOpacity=0.05;size=7;fillColor=#FFFFCC;" vertex="1" parent="1">
          <mxGeometry x="260" y="222.5" width="20" height="25" as="geometry" />
        </mxCell>
        <mxCell id="J7venS5TL9Rjq6fZa3AA-40" value="" style="shape=note;whiteSpace=wrap;html=1;backgroundOutline=1;darkOpacity=0.05;size=7;fillColor=#E5CCFF;" vertex="1" parent="1">
          <mxGeometry x="350" y="102.5" width="20" height="25" as="geometry" />
        </mxCell>
        <mxCell id="J7venS5TL9Rjq6fZa3AA-41" value="" style="shape=note;whiteSpace=wrap;html=1;backgroundOutline=1;darkOpacity=0.05;size=7;fillColor=#E5CCFF;" vertex="1" parent="1">
          <mxGeometry x="320" y="102.5" width="20" height="25" as="geometry" />
        </mxCell>
        <mxCell id="J7venS5TL9Rjq6fZa3AA-43" value="" style="rounded=1;whiteSpace=wrap;html=1;strokeColor=none;fillColor=#CCFFCC;arcSize=2;" vertex="1" parent="1">
          <mxGeometry x="470" y="74" width="160" height="270" as="geometry" />
        </mxCell>
        <mxCell id="J7venS5TL9Rjq6fZa3AA-44" value="Consumer 1" style="rounded=1;whiteSpace=wrap;html=1;strokeColor=none;fillColor=#CCCCFF;arcSize=2;" vertex="1" parent="1">
          <mxGeometry x="490" y="94" width="120" height="40" as="geometry" />
        </mxCell>
        <mxCell id="J7venS5TL9Rjq6fZa3AA-45" value="&lt;font style=&quot;font-size: 8px;&quot;&gt;NOMBRE CONSUMIDOR&lt;/font&gt;" style="text;html=1;align=center;verticalAlign=middle;whiteSpace=wrap;rounded=0;" vertex="1" parent="1">
          <mxGeometry x="490" y="134" width="120" height="20" as="geometry" />
        </mxCell>
        <mxCell id="J7venS5TL9Rjq6fZa3AA-46" value="&lt;font style=&quot;font-size: 10px;&quot;&gt;Consumer Group: NOMBRE DEL GRUPO CONSUMIDOR&lt;/font&gt;" style="text;html=1;align=center;verticalAlign=middle;whiteSpace=wrap;rounded=0;" vertex="1" parent="1">
          <mxGeometry x="470" y="300" width="160" height="30" as="geometry" />
        </mxCell>
        <mxCell id="J7venS5TL9Rjq6fZa3AA-47" value="Consumer 2&amp;nbsp;&lt;div&gt;Replica&lt;/div&gt;" style="rounded=1;whiteSpace=wrap;html=1;strokeColor=none;fillColor=#CCCCFF;arcSize=2;" vertex="1" parent="1">
          <mxGeometry x="490" y="155" width="120" height="40" as="geometry" />
        </mxCell>
        <mxCell id="J7venS5TL9Rjq6fZa3AA-48" value="&lt;font style=&quot;font-size: 8px;&quot;&gt;NOMBRE CONSUMIDOR&lt;/font&gt;" style="text;html=1;align=center;verticalAlign=middle;whiteSpace=wrap;rounded=0;" vertex="1" parent="1">
          <mxGeometry x="490" y="195" width="120" height="20" as="geometry" />
        </mxCell>
        <mxCell id="J7venS5TL9Rjq6fZa3AA-49" value="Consumer 2&amp;nbsp;&lt;div&gt;Replica&lt;/div&gt;" style="rounded=1;whiteSpace=wrap;html=1;strokeColor=none;fillColor=#CCCCFF;arcSize=2;" vertex="1" parent="1">
          <mxGeometry x="490" y="215" width="120" height="40" as="geometry" />
        </mxCell>
        <mxCell id="J7venS5TL9Rjq6fZa3AA-50" value="&lt;font style=&quot;font-size: 8px;&quot;&gt;NOMBRE CONSUMIDOR&lt;/font&gt;" style="text;html=1;align=center;verticalAlign=middle;whiteSpace=wrap;rounded=0;" vertex="1" parent="1">
          <mxGeometry x="490" y="255" width="120" height="20" as="geometry" />
        </mxCell>
        <mxCell id="J7venS5TL9Rjq6fZa3AA-51" value="" style="endArrow=classic;html=1;rounded=0;" edge="1" parent="1" source="J7venS5TL9Rjq6fZa3AA-4" target="J7venS5TL9Rjq6fZa3AA-44">
          <mxGeometry width="50" height="50" relative="1" as="geometry">
            <mxPoint x="380" y="220" as="sourcePoint" />
            <mxPoint x="430" y="170" as="targetPoint" />
          </mxGeometry>
        </mxCell>
        <mxCell id="J7venS5TL9Rjq6fZa3AA-52" value="" style="endArrow=classic;html=1;rounded=0;" edge="1" parent="1" source="J7venS5TL9Rjq6fZa3AA-27" target="J7venS5TL9Rjq6fZa3AA-47">
          <mxGeometry width="50" height="50" relative="1" as="geometry">
            <mxPoint x="390" y="123" as="sourcePoint" />
            <mxPoint x="500" y="121" as="targetPoint" />
          </mxGeometry>
        </mxCell>
        <mxCell id="J7venS5TL9Rjq6fZa3AA-53" value="" style="endArrow=classic;html=1;rounded=0;" edge="1" parent="1" source="J7venS5TL9Rjq6fZa3AA-29" target="J7venS5TL9Rjq6fZa3AA-49">
          <mxGeometry width="50" height="50" relative="1" as="geometry">
            <mxPoint x="390" y="187" as="sourcePoint" />
            <mxPoint x="500" y="189" as="targetPoint" />
          </mxGeometry>
        </mxCell>
        <mxCell id="Yv_7eWdQ3MUncGAaWXMb-5" value="" style="shape=image;verticalLabelPosition=bottom;labelBackgroundColor=default;verticalAlign=top;aspect=fixed;imageAspect=0;image=data:image/png,iVBORw0KGgoAAAANSUhEUgAABLAAAAedCAYAAABh+7+6AAAABGdBTUEAALGPC/xhBQAAACBjSFJNAAB6JgAAgIQAAPoAAACA6AAAdTAAAOpgAAA6mAAAF3CculE8AAAABmJLR0QA/wD/AP+gvaeTAAAAB3RJTUUH6QMaCykyBV8MSwAAgABJREFUeNrs3XeAXXWZ//HPc+6dSSczCQFNJreTIEN1bBQxCohIsWJFfvayu/bdVXd1i+66q65tbWvDLmAvCIqgWCiWoKAjJNyeIQghmZkE0ube8/z+SAIhpEyfe859v/5RIGXmPeee8z3PPedcEwBE3MqVKxfs3LlzqTVtSeC+yE1dLu+WtFCmrkDqctN8k7rclZTsMMlnS5ojab6kjj1/lkudJs3bz18z+NB/9Psl2ylpWKaG3Icl2ynT/bt/7ZBJQ6E0JGnI3Ic8TNwbhMFdmqMNxWJxBz85AAAAABgdIwGAVtXb29vZuO++ZTvDoCdhSivw5aFbj8yXm2uJpKWSjpA0O4Lf3pBJf3XTBoVaL7MBuddlvs7DxLowEQ5Uq9W/shUAAAAAAAMsADPs+COPnLdl7tyChWFBbgUzL0iWl6sgU0+b76d2SCq7qShXMZAXFQRFNRql4rp1VUlNtiAAAAAA7YABFoBp0bukd/622dseZYmwV+7HSNbr0qNMyrAvGpcdLt1m0m0m/3Mo3a5E4s+pcrl8ndQgDwAAAIA44aQRwKTL5XIL1dBxUthn5n2S9Uk6WlJAnSk3IukOyVe722opWL29sf3m9evXbyUNAAAAgKhigAVgQpYuXTp3VmJWXxDo8SY9wd0fJ9NyyrQSb5is302/cemmIAx/U6zXb5cU0gYAAABAFDDAAjAmhWWFnjA58qRAdqpLT5D8OMmSlImcYTP91t1vCj341YIdW2+49e677ycLAAAAgFbEAAvAQa1cvnxp05KneuBnynWapGOoEktNyf4o8+sttF9vD0euHRgY2EQWAAAAAK2AARaAh+hd0jt/x5ytT/bAz3PXWSZlqdKWmpL90cyvCcPgmjkL5vyyv79/J1kAAAAAzAQGWAASuVTuZDN/mrmf5aY+SQmyYB9bZPq5uV+dkK5cU6tVSAIAAABgujDAAtrQ8UceOW/rrLlP8cDPk+sCSY+gCsaoLNMVHgY/7F7S/YvVq1ePkAQAAADAVGGABbSJwrJCjyeaz5LpGZKfLqmDKpgcfq+kqyR9d0ez+eOBgYFtNAEAAAAwmRhgATGWzWbT1vRnmtmFkp/Cax7TYJvJr3UPvmmdie8Vi8XNJAEAAAAwUZzMAjGTy+VSaoQvNNPzJZ1EEcyg7TJdLenSbTt3/mD9+vVbSQIAAABgPBhgATGQSqW6O5Q4Xxa+RLIzeG2jBW2T6QoL7SsLlyz6Mc/MAgAAADAWnOQCEdXb29u5Y8vWC8LALzbX2ZI6qYKIuEfyy036YrFWu5kcAAAAAA6FARYQMYVU6hgFwcXuepmkIyiCiPuLu75sHYkvlEqle8gBAAAAYH8YYAERkMlkuhKhvUTmLxPPtUI87TTZD13h50u12k8khSQBAAAAsAcDLKCFFdLpR7vZa9z1YpPmUQRt4k4zfc4TiU9yVRYAAAAAiQEW0HIKhcIs7Wxe4Ba+WrIzKYI2tlOm73sYfKZcL18ryUkCAAAAtCcGWECLKBQKS8KdjZeb6Y2SHkkR4EEu/dHcPrUjHPnKwMDANooAAAAA7YUBFjDDCsuX5z2ReINcr5Q0lyLAQd1jpi8EjcbH1g4M3EkOAAAAoD0wwAJmyFHZ7Omh+1vlOk9SQBFgTHaY9HV5+D/Fev0v5AAAAADijQEWML2CQip7rpu/Q9LJ5AAmzE3+I5f+q1Sr3UAOAAAAIJ4YYAHToHdJ7/ztc7a+SOZvlbSCIsCUHNKuN9f7ivXKFeKB7wAAAEC8VvskAKZOLpdbaE1/g8nf5NIiigBTz6U/mvzdpVrte2KQBQAAAMQCAyxgCqxcuXLByLYdf2Omt0nqpggwE/zP8uADpXrla5Ka9AAAAACiiwEWMIkymUxXUnqTu94oqYsiQEsc6f5kob27WK98W1yRBQAAAER0WQ9gwnp7ezu3b9n6Upm/R9IRFAFakf/ZPHh3sV75Ji0AAACAaGGABUxAX19fx9CGTS+T+b9KWkoRIBJuCAJ7xx2Vyi9JAQAAAEQDAyxgnK+dfCbzPLn/h2QFcgCRPAL+wMLwHcV6/S/EAAAAAFp9+Q5gTLLZ7OOCMPygZKdRA4g6b8jsEksm31ksFjfQAwAAAGhNDLCAUcrlcilrNv9Dsot47QCxM+iu981ZMO/D/f39O8kBAAAAtBZOwoFDyGQyXYHbu0z+d5I6KQLEWn/o9uZKvfJTUgAAAACtgwEWcJDXRz6VfYnM3y/pSHIA7cSvMfc38nwsAAAAoEVO0EkAPFwhnX60yz4m6RRqAG1rRKZPeRD8S7lcHiYHAAAAMHMYYAF7WbF0xeHNjh3vlewVkgKKAJB0j8n+uVirXCIpJAcAAAAw/RhgAbsVUtkL3fwTkpZQA8B+3GAevorbCgEAAIDpxwALbW/l8uVLG0HiE5KeSQ0AhzBipg8pmfzXYrG4gxwAAADA9GCAhbbe/vOp7Ktk/j+SFpADwOj5n83sVcVq9SZaAAAAANNwAk8CtKNcT+4oS4SfkbSKGgDGKZTpc8lZs/5+zZo1W8gBAAAATJ0ECdBO+vr6OuZ0zPoHC/wbkgoUATABJqkvbDQvXtzdVdo0NLSGJAAAAMDULb6BtlBIp0922Wcl9VIDwBQcUb9pyeTfFovFDcQAAAAAJnu5DcRcJpOZnZD+W67XSwooAmAKbXD568q12rdJAQAAAEweBliItUIqdYws+LpLJ1ADwPTxr8zeOv9v+jf030cLAAAAYOIYYCG22/buTxj8sKS55AAwA6ry8KJSvX49KQAAAICJ4SHuiJ18Pn/EosO6Lpf5WyR1UATADOmS6eLF3d2JTUNDv5LkJAEAAADGhyuwECuFTOZsd31R0iOoAaCF3GRh86LiunUlUgAAAABjxwALsdDT0zNnVjK550HtbNcAWtFmc/vbYr3yVVIAAAAAY8OJPiIvvzx/rBLNr8t1HDUARODI+82RMHxNvV4fJAYAAAAwOgEJEOXTwEI6/RYFzdUMrwBEhuvCpAWrc8tzjyUGAAAAMMoBAAkQRb1Leudvn3f/5+V6HjUARNQOub2hVK98hhQAAADAwTHAQuTkenJHWaL5HcmOpQaA6POv7Gg2XzMwMLCNFgAAAMD+McBCpORSufPMwq9I6qIGgBi5uWl6TrVarZICAAAAeDiegYWosFwq8zaz8PtieAUgfh6dcP0+m8qeRQoAAADg4RIkQKvr6elZtKRr0XfN9Fpx1SCA+Jprphct7u4KNg0N/YIcAAAAwIMYBqClHZXJnBi6vi0pRw0AbXR0/oEHwcXlcnmYGAAAAAC3EKKF5dLpF4eu68XwCkC7cV1gzfC3hVSqlxgAAAAAAyy0JitkMv9msq9KmksOAG1qhVtwYz6dPocUAAAAaHc8AwstpVAozOpecNiXJf0dNQBAsyQ9v7u7e8Pg0NDvyQEAAIB2xQALLePoZcsWN81+JOlcagDAHhaYdN6i7q5Fg0NDV0tymgAAAKDtVsUkQCsoLF+e9yBxpaQV1ACAAx61v9mULq5Wq9uJAQAAgPZaCgMzrJBOn+yy70taQg0AOKQbEiOdz1i7fu29pAAAAEC74CHumFGFVPa5LrtWDK8AYLROaXbsuDGXy3HFKgAAANoGAyzMmFwq80Y3v1zSHGoAwFhYwZrhDblU7jRaAAAAoB3wEHdMu1VSMpHKfMJM7xS3sQLAeM018xcv6u4qDg4N/ZkcAAAAiDMGWJhWvb29nZvmzrtcppdQAwAmLCnpOYu6ujcODg/9lhwAAACIKwZYmDZLly6dq0b4fTOdRw0AmDQm6ZzFXQu3bBoevpEcAAAAiCMGWJgWvUt659vs8IdmOpMaADDpTLKzF3d3zdk0NHQNOQAAABA3DLAw5VKpVHfY2bjaJB42DABT67RF3V1zBxliAQAAIGYYYGFKZbPZI5Oya03qowYATItTFy3sesTg8NBVkpwcAAAAiAMGWJgy+Xx+uTXDn0s6hhoAMI1Mj1nc1V04fnjoB1UpJAgAAACiv8QFpkAmk8kkXNdIylMDAGbsKP+NrsWLL1q9evUIMQAAABDtpS0wyTKZzNG7h1fLqAEAM36o/9GO5siFAwMD22gBAACAyK5qSYDJlF+eP1ZB82eSllADAFqDu64OAz2jWq1upwYAAACiKCABJku+J19Q0LxaDK8AoKWY6amJUN8rFAqzqAEAAIAoYoCFSZHP55cr0fyppEdSAwBakOlsH2l8fZWUJAYAAACihk8hxIRls9kjrRn+TFKBGgDQ0h61eWFXenB46AeSnBwAAACICgZYmJAVS1ccrqD5c0mPogYARIDpxO6u7sMHh4euJAYAAACiggEWxi2Xyy10a/5U0gnUAIDoMOlxixd2dW0aHvoJNQAAABAFDLAwLkuXLp3bEQRXSnoCNQAggkxPWNTV3RwcHvolMQAAANDqGGBhzHp6eubMTnb8SNKTqAEAkfaURV3dWweHh24gBQAAAFoZAyyMSV9fX0dz+/ZvSXY2NQAgFs5c1N3118GhodWkAAAAQKtigIWxsLkds74ms2eTAgDis2+X9PTuroX9g8PDt5EDAAAArSggAUarkMq8V6bnUwIA4rceMNlX8+n0KaQAAABAKzISYDQK6fQrXPY5SgBAnPm93kycUh4o30ELAAAAtBIGWDikQiZztrtfIVmSGgAQeyXrSJ5cLBY3kAIAAACtggEWDqqQSvW6BddLWkgNAGib1cGvLJk8q1gs7iAGAAAAWgHPwMIBrVy+fKkruEoMrwCgvbie6I3Gl8UbXQAAAGgRfAoh9mvlypULRprhNWZaSQ0AaEu9i7oWJgaHh39OCgAAAMw0BljY73bRtWDB5SY9iRQA0M7s9O7urrsHh4Z+TwsAAADMJAZYeJhcOvsxk15CCQCASWcvXtT9m01DQyVqAAAAYAbXpcCDCun0W1z2QUoAAPYyHMhPvqNWu40UAAAAmAkMsPCAfDr9ZElXS5akBgBgH2s9ETyuXC4PkwIAAADTjU8hhCQpn88vl+xyhlcAgANYYWHIJxMCAABgRvAMLKhQKMyykeZVMq2gBgDgIFZ2d3dtHxwa+jUpAAAAMJ24AgvykZGPu+lxlAAAHIq5/jOfyTyNEgAAAJjWdSgJ2lshlX2Jm3+ZEgCAMSweNiXkj1lTq1WoAQAAgGlag6JdFdLpk1x2vaQ51AAAjIVLf9zZbJwyMDCwjRoAAACYatxC2KZ6enoWhbJvi+EVAGAcTDpxViLxaUoAAABgOvAQ9zb9uS/pWvQdMz2GFACA8bMTFnV3/XVwaGg1LQAAADCVuAKrDeXT6f+S6WxKAAAmzPWxfCp1KiEAAAAwlXgGVpspZDJnu+sqfvYAgMnjAyPux9fr9UFaAAAAYCpwBVYbKRQKS9z1RTG8AgBMKutJmn2GDgAAAJgqDLDa6OwibDQ+L+kRpAAATPpBRvbcQip7ESUAAAAwNetNtIV8Ovt3kn+MEgCAqeP3eTPx6PJA+Q5aAAAAYDJxBVYbKKRSx0j+fkoAAKaWzbdk+LW+vr4OWgAAAGAyJUgQb4VCYVYY+lUmLacGAGAaLNt2/7bm4PDQL0gBAACAycIVWDEXjjTfa9KJlAAATBczf2c+nT6FEgAAAJi0NSYJ4iuXyp1pFv5EDCoBANPMpUrQkTyxWCxupgYAAAAmisFGTKVSqW5TeAk/YwDATDAp640GHx4CAACAScFwI6Y6LPi8jOdeAQBmkOvifCbzAkIAAABgoriFMIYKqexFbv4VSgAAWmChsakZ2DGVSuVuagAAAGC8uAIrZo5etmyxm3+QEgCAVuDSoqDpH6UEAAAAJoIBVsw0kp0flXQEJQAALcP0/EIm8wxCAAAAYPxLSsRGPpN5mlxXUQIA0ILWN0291Wp1iBQAAAAYqwQJ4uH4I4+cN5LsuEJSNzUAAC1ogckOGxweupIUAAAAGCtuIYyJ++fMea+kHCUAAK3K5K/NpXKnUQIAAABjX0si8o7KZB4fuq4XV9QBAFrfmqbpxGq1up0UAAAAGC0GHhHX29vbObJz5EpJR1IDABABhydM4aahoetIAQAAgNHiFsKI27bl/ndI6qUEACAq3P2fjspkTqQEAAAARosBVoRls9mVZno7JQAA0WJJD/VpcSU4AAAARomFY4RX/4sXLvyuZDy4HQAQwaOYli3uWnj3puHh3xEDAAAAh14+IpIKqexL3PzLlAAARNhgR2PkqNvvvHMjKQAAAHAwXIEVQStXrlwQNhvfk7SAGgCACJsTJhKzB4eGfkwKAAAAHAzPwIqgxvbt/yJpKSUAAJHn/jf55fljCQEAAICDYYAVMUel04+S7I2UAADEgyUVhB+hAwAAAA6GAVbENN0+IqmDEgCA+PAzcun0uXQAAADAgfAQ9wjJpdPnmuwKSgAA4seL1tFxbLFY3EELAAAA7IsrsKIjYbL3kQEAEE9W0MjI39IBAAAA+10tkiAacpnMa831KUoAk8kbkm2UdL+k7ZJt2/3vt+z6bw/sKudKNmvX/w8XShZIWiSpi4bApBqyjuSKYrG4gRQAAADYGwOsCCgUCof5SGOtpCOpAYxKKPl6SVVJFTOrhFJV7vcEZhu9kbjXO31DuVwenshfskpK1rLZxYlmc3HTE4uDhC9WaMvdlDF5RlJWUkZSNz8SYJRcny7Vq68lBAAAAPbGACsC8unsf0r+T5QA9nOqK1Uk3Sr5n8yDW5sJ/Wnu3LmV/v7+na3yReZyuYUa0Yog8BPc/Di5jjfpeN91FReAh2qGgfVVKpVbSAEAAIA9GGC1uJXLly9tBIk7JM2lBqANMt0ot1+7240dczpuWbNmzZaofjOFZYUeBc1HexCeJgWnSP4YSbP4MQP6calWPYcMAAAA2IMBVovLpzKfkolbKdCu7pLrJx7ol252Q6VSWRPnb7ZQKMzynTsfIwWnyvRkSU+SNIfNAG25QDGtKlarv6AEAAAAJAZYLS3XkzvKEmG/pA5qoE00JfujmV/hYfjDUr1+s3bdJtiWenp65nQGnacGQXimu86XdAybCNpmgeL6bbFefUI77wMAAACw1/qQBK0rn858XdILKYGY2y7pKpm+0ZR+XK1Wh0iyf7me3FEWhM+S2fMk76MIYr9IcbugWK/8kBIAAABggNWistns8UHof5AUUAMx1JT85/LgK9aZ+F6xWNxMkjHvI9LW9Gea2YWSn0oRxJP/uVSrnSAppAUAAEB7Y4DVogrp9A9ddh4lEDM3u+mzoXQZV1pNnqPS6UeF0ssl+3+SllAEceLyF5drta9TAgAAoL0xwGpBhXT60S77PT8fxMQWmS71MPhKuV7+NTmmTm9vb+eOLVufIQsvdtk5khJUQeS57ijVq4+S1CQGAABA+2JA0oJymcwPbNcDm4Eo+4vcPjJ729xL+zf030eO6bUilco1zV4r2aslLaQIosxNLypXq5dSAgAAoH0xwGoxhXT6JJet5meDCO9WrjfX+4r1yhXi08NmXO+S3vnb5tz/CjO9WVKaIoio20q16rHiWVgAAADte6ZJgtaSz2S+L9cFlEC0eMNk35D8g8Va7WZ6tJ5VUrKeTj/PZH8v6SSKIIIrlheWqtXLCAEAANCuy0G0DK6+QgSFJrs0bNq/lwfKd5AjGvv9QiZzgbveLel4ciBC/lKqVY8TV2EBAAC054kMCVpHPpW5TKbnUwIR4Cb/kZm9645q9Y/kiOb+v5DKnifz97h0AjkQiY3W9Mxitfp9SgAAALThWpAErSGTyWQS7ndIlqQGWtxVgemfGFzFRqKQyr7Izd8jnpGFlue/LtVqT6QDAABA+wlI0CJnkNKbGF6hxa11D84v1apPZ3gVK81ivfKV2fPnrXDXmyRtIQlal51WyGSeQAcAAID2kyDBzMtkMl2B+1ck66QGWtCQu/5tzoJ5F68trr2NHPG0YcOG5uDw0G+OOGzBl8IgWKBdD3rnKl20HtPCwaGhbxICAACg3ZaBmHG5VOZtZvpvSqDFuEyfTezs/Oe169feS472UshknuCuT0h6NDXQYpoJD1esrdfLpAAAAGgfXIE1w/r6+jp2bNv6NckOowZaSEnyC0u12sc2btm4lRztZ9PQ0MAJw0OXDC/s2mTmp3GFKFpI4KZgcHj4KlIAAAC0D67AmmH5TOalcn2BEmgN3pDZJ7ft3PmO9evXM7iCJGlFKpVrmn1asjOpgRaxNTHSmebqUAAAgPbBFVgzyxYt7PqSpCNJgRbYHFeHgZ1Xrla/uGXLlhF6YI+Nw8ODg8PDX+3uWlg32ZMkzaYKZliHJxqbB4eHf0UKAACA9sCnEM6gQibzVEnHUwIzzGX639nz555SqVRuIQcOtJ2Ua7VLPBGcIOkX5MDMszdkMhmGqQAAAG2CK7Bm0KKurk9JylMCM8a1zgI9o1St/t+GDRuaBMGhDA4ODg8OD32pe2HXoJmewnEEM2heQlbbNDx0MykAAADijyuwZkiuJ3ecu3ieDGaMy7+1I2ycWKxWuZoGY958yvXqRz0MTpW0lhyYwf3Y37OWAQAAaA8s+mZKwt8oHqKPmbHd5K8s12oXDgwMbCIHxqu8rvz72Vvn9cl1OTUwQ1YWMpmzyAAAABB/3PoxAzKZTFcgfUFSBzUwvXwgMHt6sVb7IS0wGTZs3bBzcHjoW4sWdt8l09M4rmAGzBscHmKICgAAEHNcgTUz0V8qaS4lMM1+EQbBY+6oVn9DCky2Ur3ymTC0MyT9lRqYXn5+YVmhhw4AAADxxgBr+lngeg0ZMJ1nd2Z6X6lWPaNSqdxNDkyVyrrKr6yRfKykm6iBaTysJtXReCUdAAAA4o0B1jTLpVJPceloSmCa7JTbS4vV6tsl8SmDmHLFO4sD1pFcZdLXqYHp4q5X9/X1cVs+AABAjPGskmm2qLv7fZJ6KYFpMCT5BaV69XukwHTatGlTc9Pw0HcXdXfNkXQqRTANFmzbuvWPg8PDt5ECAAAgnrgCaxodvWzZYrkuoASmwZ1hYKtKtdrPSIEZ4qVq9W0uf4WkEXJgqpnsFVQAAACILwZY02hnouMiSbMogSk+jVvdND2mUqncQgvMtHKtdonkz5D8Pmpgip29cvnypWQAAACIJwZY0xnb9DIqYGr5r60j8ZRqtconwaFllGq1qzxMPMWkTdTAFEqMJBIXkwEAACCeGGBNk3wq1efSCZTAFLpu9tb55xSLxc2kQKspryv/TvIzJW2gBqaKuV4mySgBAAAQPwywpolbgquvMJWnbT9qms7p39DPbVpoWcVa7Q9N0+mS7qQGpsiKfCp1ChkAAADihwHWNCgUCrMC+QspgSlh+kbX4YueVa1WtxMDra5ard6uZmKVpDo1MBV4wwgAACCeGGBNx2K60TjHpUWUwBT43vJq9cWrV6/mU94QGaWBUtHC5lMkracGJpvJL8xkMrMpAQAAEC8MsKbHi0iAST9JM/3UOpIvuE5qUANRU1y3rhQG9hRJd1MDk+ywhPs5ZAAAAIgXBlhTrFAoHCbXeZTA5LLr527b9qxisbiDFoiqSqWyJgzsbEmD1MBkct44AgAAiB0GWFO9iG40ni1pDiUwiSdmv0nO7jzn1rvvvp8aiLpKpXKLmZ4uOR9AgEljsvNyudxCSgAAAMQHA6wp5qF4eDsm8aRMt+9sNp6+Zs2aLdRAXBSr1ZtkdqHk3A6LyTLbwvBZZAAAAIgPBlhTKJvNHmmmMyiBSXJP4OG5AwMDm0iBuClVqz+WB39LCUwW3kACAACIFwZYU8jcnyUpQQlMgm0mf+baer1MCsRVqV75jJneRwlMyjHY/Ckrlq44nBIAAADxwABrKhfP7s+hAiZB6PKLirXajaRA3BWr1XeY7GuUwCQchZONzp3n0wEAACAeGGBNkZ6enkWSPYkSmISTsLeXa7Xv0AFtwhvmr5TEwBYT33u68UYSAABATDDAmiKdyeQzJHVQAhP03VKt8j9kQDupVqvbm6ZnS1pPDUyMPzWVSnXTAQAAIPoYYE0R3vXFhLch6XbrSL5UklMD7aZarf5V8gsl7aQGJqCjU4lzyQAAABB9DLCmQO+S3vmSn0kJTMBwmAieUSwWN5MC7apUq93gprdRAhPh5s+iAgAAQPQxwJoC2+bed7akWZTAeM+3XP7ycrm8lhRod+Vq9SMyfZkSmMAu9amZTGY2HQAAAKKNAdaURDVuV8BETrb+h4e2Aw+at23b30haQwmMj81Pmp1OBwAAgGhjgDUFTV16OhkwTn+YPX/+O8kAPOjWu+++3+QvEs/Dwjh5GJ5HBQAAgGhjgDXJCpnM4yQdSQmMw3aFiYv7+/s5SQf2UazVbnbTv1IC42MX0AAAACDaGGBNMnc7nwoY17ZjenNpXenPlAD2r1ytvl/SzyiBcUgXUqleMgAAAEQXA6xJ5+fQAGPeakw/LFern6YEcFChNZL/T9IgKTDm/awCnk8JAAAQYQywJlE+nz9C0omUwBgNdzSbr5XkpAAOrnhncUBub6IExsz8LCIAAABEFwOsSeSNxlmSjBIY20mV3rRm3br1hABGp1SvfFmun1ACY9zZnrZ06dK5dAAAAIgmBliTuTR2491djNXPS9Xql8gAjE2YsNdIfh8lMAaz586adRoZAAAAookB1mQyP4MIGIOtFjZfJW4dBMasUqnUTHwqIcbGw5A3mgAAACKKAdYk2fXpRtZDCYzhVOpfiuvWlegAjE+xVvuIpBspgdGzp9IAAAAgmhhgTRJXwNVXGMsW8+fltdpH6QBMSCgPXy8pJAVG6bhsNnskGQAAAKKHAdZkMa0iAka9uQTBW6+TGpQAJqZUr682iefIYdS730RTTyQDAABA9DDAmqQFsaRTyYBR+l6xUrmaDMDkaAb2DknDlMBouIWnUwEAACB6GGBNgkIqdYykIyiBUdjpzeAfyQBMnkqlcre7/osSGB17Eg0AAACihwHWpKyFWQxjtNuKPlIeKN9BCGByzVkw78Ny8drCaBx39LJli8kAAAAQLQywJoHLeJ4GDsmkTR4E76UEMPn6+/t3KtC7KIHR7I4bHR2nkQEAACBaGGBNDp6ngVGcMul/yuUyz+kBpkipWv2mpFspgUNx540nAACAqGGANUHZbDYtaSklcIjTpXsTs2Z9nA7AlAol/zcyYBT75JNpAAAAEC0MsCYa0P0JVMChmPRfa9as2UIJYGqVarXvmuu3lMAh9BUKhVlkAAAAiA4GWBPkrsdTAYdw19aRkf8jAzA9QvN/pwIOYVaz2TyBDAAAANHBAGuCTPY4KuCgXP+9fv36rYQApke5VrvSpd9QAgddADW5ghoAACBS6zcSjF9fX1+H5I+mBA7EpE2zt827hBLAdPMP0AAH3T8bV1ADAABECQOsCRi8Z/AESXMogQOeQsv+r39D/32UAKZXuVb7nqQSJXDg/bO4AgsAACBCGGBNgCXCPirgIHY0FPLJg8DMaJr8w2TAQWR7enoWkQEAACAaGGBNRKiTiIADcdlXa7XaXZQAZsbWkZEvSH4vJXAANiuR4EHuAAAAEcEAayIrXzHAwgF54E2u/gBm0O4PT/gUJcBxHAAAIPoYYI3TKinppuMogQO4rliv95MBmFmJZvPTkpqUwP6EDLAAAAAigwHWONV7co8SD3DHAbjps1QAZt7agYE7TX4VJbA/JmOABQAAEBEMsMYbLvATqYAD2BhK3yUD0CI8+AwRcICNY2VPTw9vRgEAAEQAA6zxLnktPJ4K2O+2IX25Wq1upwTQGnrqlask3UkJPJwlZycSR9MBAACg9THAGv+i9xgaYL8vKg8/TwWgdVwnNST/AiWwXx70EgEAACAC59okGDcGWNifG3l4O9B6ktIlkpwSeDhngAUAABABDLDGoXdJ73xJaUrg4edBdikRgNazplarSPoNJfCw3XbAG1IAAABRwABrHLbN3vYoSUYJ7CNMeuPbZABak5m+QQU8jDsDLAAAgAhggDWek6BEyGIX+/PLNevWrScD0JoSzeblkkJKYJ+jeo5PIgQAAGh9DLDGs9QNxScW4eHbhfybVABa164Bs99ACey7Furo6FhBBgAAgBZftJFg7ELzAhWwj2YzCLh9EGj9w97lNMC+LAw5rgMAALT6Sp4E41joyvJUwN7cdX2lUrmbEkBrSzRHvis+jRAP24kbAywAAIAWxwBrfFjoYl9XkgBofWsHBu6U9CdKYG9mzhtTAAAALY4B1hhls9kjJS2gBPbmCfsxFYCIMPF6xb4bBQMsAACAFscAa6zBmk2uvsK+7qpUKreSAYgGk66iAvbBsR0AAKDFMcAa84lPIkcF7OdkmGfqABGxcPHi6yVtpgT20lMoFGaRAQAAoHUxwBojN6WpgH02Cq7mACJk9erVI5J+RgnsvR7y7b6cDAAAAC28YCPBGBkLXDyEB42O68gARG5nfi0N8BCJBsd3AACAFsYAa6xcLHCxt9vXrl97LxmAaDGF11MBD90oLEUEAACA1sUAa+xY4GIvzkkwEEHFWu1WScOUwIO7c+MNKgAAgBbGAGvsWODiQWYMsIBoaprpt2TAg/tzHhEAAADQyhhgjUGhUDhM0mGUwB6h2Y1UACL6+g3FABoPcq6wBgAAaGUMsMag2Ww+kgrY62zn3kqlspYOQFSFv6YB9jCJYzwAAEALY4A1BknpSCpgr9Od30lyOgDRFAbBal7D2MM5xgMAALQ0BlhjWdw2WdziQWa6lQpAdFWr1SFJ6yiB3ZawLgIAAGhdLNTGwI0BFh4Uuv+JCkC0mZxBNPZIrFi6YhEZAAAAWhMDrDEJGWDhQc0EJ75AxLkCXsd48Cif3M5xHgAAoEUxwBobFrbYY+echXPWkAGIOONKSjzIzTjOAwAAtCgGWGM701lMA+x2e39//04yABHfq4chAyzstUHYEiIAAAC0JgZYY9NNAuw6ydHtRACib+GSJWslNSkBSXKO8wAAAC2LARYLW4xPlQRA9K1evXpErvWUwG5dJAAAAGhNDLDGwFjYYjeXKlQAYnMkrBIBkhSEWkgFAACAVl22Yyy6SABJMq7AAuKEgTQkcaU1AABAK2OANbZWh5EBkhSaccILxIQxwMKDukgAAADQmhhgjVIul1tAL+zmIyMjdTIAMXlBM8DCg7pIAAAA0JoYyIxSx8jIPCpg9+nuxoGBgW10AGLyig7DASpAkmTOsR4AAKBFMcAapYZ3zqUCdp/hbKABEB+JINhIBexeFs2hAQAAQIuu1EgwOmFHyAALuzknu0CcXtEjyXupgN1bA8d6AACAFsUAa5SS7rwri92Mk10gRhodDV7T2IMBFgAAQItigDVKofOuLHZxGVdgATFSrVa3S9pKCUjizSoAAIAWxQBrlJx3ZbHnRWPO1RpA/PC6hriFEAAAoIXPxUkwarNIAEkKpSEqAPFi0iAVIGk2CQAAAFoTA6zRhvIgQQXstp0EQMy4dhABknGsBwAAaFEMsEYpDDxJBUhS4L6TCkC8eMAAC5IkY20EAADQoufiJBhlqJB3ZfHA1sAAC4gbdwZYkCT19vbyhhUAAEArnomTYJTnNoEzwMLujYErNYD4MQbTkCQNDw9zvAcAAGhBDLBGyZ0BFnZvCwG3EAIxxGAakqR58+ZxBRYAAEALYoA1SsZD3LGbu49QAYgdBliQJG3bto0BFgAAQAtigDVKbmGTCpCkwANeN0Dc9vHigzqwy5w5cxpUAAAAaMFzcRKMMpQHXHUDSVJo4SwqADFjxusakqRms8lt4gAAAC2IAdYo8dwj7HWi20kEIGYv61C8riFJKhaLvGEFAADQghhgjZYzwMLuE11xogvE8IXNFViQ5A1JIR0AAABaDwOs0S5pPcE7stgl5EQXiCFe15BkvFkFAADQohhgjTZUgiuwsOf8hlsIgRi+sHldQ5J4swoAAKBFMcAaLW4hxJ7TXPP5VABit5PndQ1J4lgPAADQohhgjfbUJgx5VxaSpNDtcCoA8WLSEipADLAAAABaFgOsUQoTPAMLe050fTEVgFhJuNRFBohbCAEAAFoWA6xRSnILIR7gXIEFxMiKpSu6OR5iN471AAAALYoF+yh5GLKoxW7GFVhAjIzMGuE1jQc2BxIAAAC0JgZYo9RMJO6nAiRJLq7AAuJ0IAxDBliQJJmLYz0AAECrrttJMDqJRGKQCth1hqMlkowQQGwcSQJIUigNUQEAAKA1McAapWKxuEXyBiUgaXY6nX4EGYB4MClLBUiSmTZRAQAAoDUxwBo9l2yYDJCkDilDBSA2O3dez5AkmcTV1gAAAC2KAdbYTnNY2EKSFHLFBhAbXIGFB47yMo7zAAAALYoB1pjOcljY4oEXToYKQDy4jAEW9uA4DwAA0Lrn4Rj1SU7IwhZ7TngZYAExekWnaYBd+/aQZ2ABAAC0KAZYY8CzMbDX1pCnARB92Wz2SMnmUwK78axLAACAFsUAa2yGSIBd/HgaADHQFK9lPLgoMttIBQAAgBZdq5Fg9LgCC3ttDYen0+lH0gGItoSFx1EBezR51iUAAEDLYoA1Bs4AC3vpMOPKDSDq+3U3Blh4gDHAAgAAaFkMsMZW6x4igBNfIEaM1zEeNGfLHB7iDgAA0KIYYI1BGNqdVMBeWwRXYAHRlpD8GDJgt6H+Df33kQEAAKA1McAag6SFA1TAg+wEGgDRVUilVkqaQwns4hzjAQAAWhgDrLHEmj2bxS32dmwul1tIBiCaXIlTqYAH2ToaAAAAtC4GWGOwZs2aLZKGKYE9r5/A/fFkAKLKGWDhQSYGWAAAAK18Ak6CMeMqLOx1/ssJMBBZxusXe+/PjeM7AABAC2OANeYFLgMs7LU5uHECDERQNps9UrICJfDA/tx4BhYAAEArY4A15gUu79Bir+1B/oRVUpISQLRYGDJ8xkOFAbcQAgAAtDAGWGMNxju02PskWJpXX547iRJAxPblbk+kAvaWsOadVAAAAGjhNTwJxsZDY4GLh7DAz6YCELUXrp5GBOytc+t8rsACAABoYQywxnzSE3IFFvbh59AAiI58Pr/cpaMpgb0M9m/ov48MAAAArYsB1hiFQVCmAvbx+J6enkVkAKLBm81zqYB9cPUVAABAi2OANUaLFi0qSxqhBPaSmJVMnkUGIBpM4qpJ7LtRrCECAABAa2OANUarV68ekcRVWHiokOfpAFHQ29vbKdeTKYGHcL+dCAAAAK2NAda4FrpioYuHMj1dUoIQQGvbsXXrKkkLKIGHHta5AgsAAKDVMcAaXzUWutjXEblUahUZgBYX+vOJgH0ZV2ABAAC0PAZY4+DuDLDw8BOgIHgeFYDW1dfX1yHpmZTAvof12dsWcFwHAABocQywxsEYYGG/p0D+7N0nyABa0OC99z7VJT4xFPvsuzXQv6H/PkIAAAC0NgZY47AjDG+jAh7ODh/euPEpdABa9BVqxlWS2M+GwZtSAAAAUcAAaxwGBgY2SdpICTyMixNkoAUVCoVZcj2DEtgPnn8FAAAQAQywxs1Y8OJhXHrO8UceOY8SQIvZ2XyGpIWEwH6WQlyBBQAAEIVVGwnGx3nHFvu38L45c7gKC2i5o52/kgjY7/HceUMKAAAgEkt6EoyPud9KBex/29CrqAC0jhWpVM5dZ1AC+5MMd/JcSwAAgAhggDVu4Woa4ABOzmazJ5ABaA1NS7yC4x0O4O61AwN3kgEAAKD1saAfp22Nxh8kNSmB/b6w3F9GBWDmrZKSkr+UEtgfk/+OCgAAABE5zybB+Kxfv36rJB78iv2fFLlesnTp0rmUAGbWukzmPElLKYH976yNq6kBAAAiggHWhDgLX+x/y5AWze7s/H+UAGbcW0iAAwnD4PdUAAAAiAYGWBPgZjdTAQdirr+XlKAEMDNyy3OPleuJlMCBNK3JG1EAAAARwQBrArzJrQc4+PlzPp2+gAzATB3hmv9IBBzEnbVa7S4yAAAARGR5T4Lxm7t97h8khZTAQV5ib6UBMP1WptNZkz2LEjggE29CAQAAROnsmgTj17+h/z6T1lICB+anFtLpk+kATK+RXcNjbuHFgffOIQMsAACAKGGANWHcRohD+icSANMnk8k8wuQvowQOfvh2HuAOAAAQIQywJihkAYxDcNl5hUzmCZQApkfC/Z8kzaUEDn785oNYAAAAooQB1gRZGP6KChiFd5MAmHr5fH65ZK+mBA6hVq1W/0oGAACA6GCANUGlev2PkoYpgYNx11mFTGYVJYAp1my+U9IsQuCgTL8gAgAAQLQwwJqE0yVJN5ABh+Ju/0EFYOpks9m0XC+lBA69P3YGWAAAABHDAGsyFsKmX1IBo9hSTs2n0+fQAZiiA1oYvkdSJyUwim2FARYAAEDU1nAkmDhzZ4CF0W0rsg/19fV1UAKYXPlUqk+yF1MCh+YDxXXrSnQAAACIFgZYk6Dr8MN/59L9lMAhT5uko4c2bHwdJYBJZbLERzmmYZT74euoAAAAED0s9ifB6tWrR0x2EyUwylPtf1uxdMXhhAAmRyGVvUjyUymB0S18Am4fBAAAiOQ6DpPCuY0Qo9fd6Bj5dzIAE7d06dK5bs4HJGDUwqYxwAIAAIggBliTFTLgQe4YPVP46mw2ezwlgImZ0zHrnyWlKIFRuqs8UL6DDAAAANHDAGuSNKSbJG2nBEbHkoH75yQlaAGMT64nd5zkf08JjMF1JAAAAIgmBliTpFqtbpfsekpg1FyPLaTTbyQEMC4JJcLPSuokBUa92zWulgYAAIgqBliTKryKBhjTyZTsPYXly/OUAMYml8m83qTHUwJjWvQ0mz+lAgAAQETXciSY1JhXUgFjNNeDxGckGSmA0cnlcilzfw8lMEZ/Ka5bVyIDAABANDHAmkR31Gq3SSpTAmP0lFwm81IyAKNi1gg/I9l8UmBs/Ec0AAAAiC4GWJO/QOYqLIz9jNz9f3O53ApKAAeXS2XeINPZlMCYFzxBcAUVAAAAIryeI8HkconnYGEcbL41m1/r6+vroAWwf4VUqtdM/0UJjMPwYYsW3UgGAACA6GKANcl2Nps/l7SVEhg7e8zwxo3vpAPwcIVCYZZb8HVJc6iBcbhq9erVI2QAAACILgZYk2xgYGCbpOsogfFw1zsLmcyTKAHs89oYGfmApOMpgfEwN55/BQAAEHEMsKZiocyDYjGB16S7vnT0smWLSQHsUlievUCyv6MExqmpzsRPyAAAABDxk2USTL4Ez8HCxKRHkp2X79qUgPaW68kd5YF/SZJRA+P022KxuIEMAAAA0cYAawqsqdUqkv+ZEhg/PyOfzr6bDmhnxx955DxLNL8jqYsaGD/j04EBAABigAHW1KX9Bg0wMf6OQibzDDqgXd0/e87nJDuWEpiIMNAPqAAAABB9DLCmSNP8m1TABJm7vpTL5VaQAu0ml8m8SdILKIEJ7USl2yuVyq2UAAAAiD4GWFOkWq3ebtItlMAELbRmeGWhUFhCCrSLfCbzNHP/ACUwUaHrMioAAADEAwOsKeTiKixMzvm8j4x8J5PJzCYFYr+xL88fK9dlkiWpgYkvckKOwwAAALFZ22HKWBjyzi8ma2s6LSHxSWyItZXLly+VNa+UtJAamPBeU7qlWK//hRIAAADxwABrChXXrStJupkSmBSu5+XT2fcQAnG0cuXKBc0gcaVMy6mBSWG6nAgAAADxwQBrirmLTyPEZG5R/5zPZF5DB8RJoVCY1dyx49sunUANTJpmk+MvAABAjDDAmmId5t+Q5JTApHF9qpBOv4IQiImENxpfcddZpMCkMf1u91XQAAAAiAkGWFNsTa1Wken3lMBknpq57NOFVPZ5pEDUj0GFdPZLcl1ICkwqd24fBAAAiNvJAwlYSCOSEm7+lXw6fQ4pEFGWz2Q+5fIXkwKTftRNJPj0QQAAgJhhgDUNwiD4qqQRSmCSdUr27Xw6/WRSIGpy6cwH5Xo1JTD57IZyuVynAwAAQLwwwJoGlUrlbrmupASmwBzJripkMs8gBSLC8pnMR0x6MykwJRuYwi9QAQAAIH4YYE3XgtrtEipgisxy1zcKqexzSYEWlyikM5+T642kwNTw+xKzZ/PpgwAAADHEAGua9KyrXClpPSUwRTrd/LJ8JvNSUqAV9fb2duYzmUtdejk1MIUuXbNmzRYyAAAAxA8DrGlyndQw01cogSmUkOvz+UzmNaRAK+np6Zmz/b6t3+HTBjHlixqzz1MBAAAgpms9EkyfMAgukeSUwJS+pl3/l89kPsrrG63g6GXLFs9KJK6W/FxqYEqZ/nRHtfobQgAAAMT1ZBfTplwur5X8ekpgyrnekEunL+/p6ZlDDMyUfE++MJLouFGy06iBKRfqc0QAAACILwZY08yNh7ljepjsubMSyWsLhcISamC65dPpU5Ro3CjTUdTANNiRaHR+nQwAAADxxQBrms25f943JfGAWUyXk32k8atcT44hAqZNIZV9iWQ/k+xwamCafGft+rX3kgEAACC+GGBNs/4N/ffJdCklMI1WWiL8XSGVPZ8UmEp9fX0d+Uzmo27+ZUmzKILp49w+CAAAEHMMsGZCM/Ex8TB3TK+Fbv79fDr9bl73mArpdPqRQ/fe+zO53kANTC8vlmq1n9MBAAAg3jiRnQGldaU/77q9BphWJtm78unMNfl8/ghyYLLkU6lTk7LVPKwdM8KNN4UAAADaAAOsGWKuj1IBM+TJ3mjeVEinTyYFJnoMyaez/yALfi7pkeTADNhsnckvkgEAACD+jAQz1z6fztwmaSUpMDO8YWYfXLh48btWr149Qg+MRTabPTII/YuSnkYNzNheTPahcq3yVkoAAADEHwOsGZRPZd4g40oszLgbkvKL1tRqFVJgNHLp9LNN9hlJi6mBGdRMyo9i3wUAra1QKBzWbDYfGYThYpe6JHUFu//XpS6ZLZTrMJcnTepyt04zmyf5XD30Q2HmSerczwmtuzT04L/xUAqGJd8p+f0y2ypph7ttNvP7TBoKQw1aoCFJwyYNeTNxb5gMN1QqlQ2SQn5qQGtigDXDO3MfaayTdBg1MMM2y+31pXrly6TAgaxcuXJBY/v2D0r2KmqgBXynVKs+hwwAMDN6enrmdHZ2Lrdms0dmyz1U2sx73OwRch1hux4vcISk2RH6tpqSNsi0wUPdJfN75LYuMB8IPVH3hNdHRkYGBgYGNrEFANOPAdYMy2cyH5HrjZRAi7gqDOx1lUqlRgrsLZdOn2uyT0pKUQOtwD14Yrle/jUlAGDqrFi64vCwc2dBoRUUeEFuhVBeMCknaUnbHoOk+81UlqskeVFmRQ+DUhiExWq1uk67BmEAJhkDrBm2Mp3ONmR3SEpQAy1iq7veXa5X/4eDL3p6ehbNSib/S65XUwMttHxZXapVHkMHAJgcqVSqO6lkr8mPUeC9cj9GsmMlPYI6YzYi6Q6Z+k36i0Lrl5p/Kdbrt7O2Bia4AiTBzMtnMt+X6wJKoMXcpDDxqtK60p9J0Z7Hh3wmc7FcHxTPukKLcflF5Vrta5QAgDELcrlcwcLwJJNOkvRodz9JssNJM+W2y/QnhbpZgf4Qmv1hZGTkTwMDA9tIA4zyBIUEM++obPb0MPRfUAItaESmT46E4b/X6/VBcrSHfCrVJ7OPSHYaNdCC7uw6fHGWT08FgEMrLCv0hMmRx5v0BJk9Xq4TJS2gTKvwhsxuM9fv3O0mD+2m8kD5L+JKLWC/GGC1iFwq8wsznU4JtKiNbnpXqlr97HVSgxzxlMlkHpF0/adLL5UUUAQtudQ3vaNcrf43JQDgoVZJyTszmb7Q/TTJTpH0eEnLKBM5WyT9XrIbXeENQUfHr4rF4mayAAywWkYhm32qh/4TSqDF9xh/8jB8c7lev5YYMdr/FAqzfGfjjTK9U7wri9ZetGxSRzLLQh4Adh2/w53hY82aT3K30838FMnmUyZ2mpJuMdcvPdAvOkZGfnX7nXduJAvadC2IljkIpTK/cdPjKIHW59eY9C/FWu1GWkRXX19fx9DGjS9XqH+WaTlFEIFly7+UapX30AFAu+4Es9ns8UGos9z9LDM9UdIcsrTfQtylW0z+U/fE1WEQ/rparW4nC9piJ0iC1lFIZc938x9QAhFypTz8l1K9vpoU0bFKSq7LZC5y17+YlKUIImKoacpWq9UhUgBoF/l8/giNhE8z01NdfqakI6mCfWxz16/M7KfmzauK9Xo/SRBXDLBa7OeRS2duNulEUiBCXNL35eF/MMhqbX19fR3DGza9wM3fKWkFRRCpA6Tp3cVq9V8pASDustns8YkwPM9l50t6nHguJca2MK+Y/AoLgiuUSPyiWCzuoApisx4kQWsppLIXuvk3KIGI+rnLP1iu1a7cdfxES+xXCoXDfGTkVXJ7I7cKIqI272g2sgMDA5tIASBuVknJeir1JFniWSY/T1KaKpgkW0x2tVzfbwT+Q65iRtQxwGo9QT6dvkWyY0mB6PKiu318Z9j4zMDAwDZ6zIxMJvOIpPRad71BUjdFEOHlyn+WapV30gFAjCRyqdzJFoQXyvV8cWsgpl5Tspvc/ZthoMur1epfSYLIrQhJ0HoKqexFbv4VSiAG7pHpi94IPlceKN9BjmkRFDKZs+T2KpdfIKmDJIg2vy8xMiu7dv3ae2kBIMr6+vo6Bu+99yxJL7RdtwcupApmSFPSL2T6xo5G45tc4YyoYIDVglZJyXXp9G2SFaiBuJyBSvqFyz8bmn2HT0qZfIVlhR5PNl8m+SvErQeI10rl/aVq9W2EABDVvVg+lTrFLfEiU/g8yQ4nCVrMTjf9xKSvb9u58wfr16/fShK07rIQLSmXybzQXF+nBGK409kk6XKZLi9Wq7+SFFJlnPuJXG6hNfwZMn++pLMlJaiCOHHpfksmcqVS6R5qAIjUMbond5Ql/P9J/mJJGYogIrZI/j13/1K5Xv8563S04LkkWvVnk09nfi/p0aRAjN0l0zcVht8o1es3iAe/H1Lvkt752+bdf76Fer5MZ0uaTRXE9kBoel+xWn07JQBE6Bh9obm/XLJTOddCxNXM9MWE+5fW1GoVcqAl1oYkaF3ZVPaswPxqSqAtuNZJ+pEF+vGs++dd27+h/z6i7N4XZLNpcz/HQj1NpqdKmkMVtIGNTVOBT0wC0OpyqdxppvAVMn+uZPMpgpgJJV1nbl9oBP4tHgWCmcQAq8Xl0+mfSnYmJdBmdkr2K0k/Vhj8uLSu1K82ujqrp6dnTkfQcZqZnmbycyQ9ik0CbbdAMb2lWK1+mBIAWtHKlSsXjOzYcZFJr5PrOIqgPfi9kr6oZvLTpYFSkR6Y9vUhCVpbNps9IQj9ZkkBNdDGtkj+GzO7PgyDX+8Md14/MDCwLS7fXD6fP8JGwscr8D53P1Wy08StgWhvVetIHl0sFneQAkAryWQyRyell7rr1ZK6KYI25ZJfax58pqde+e51UoMkmA4MsKJwcpvOXCrpBZQAHrBD0s1y3eKBbrEw/JMnk38ul8vDrf6F53K5lJrN42R2nLlO0K7n3K3gRwrsvSr2F5drNT7IBEDLnDPlUrlzzcK3SlpFDuAh6pJ9fMSbn6vX64PkwJTujEnQ+grLl+c9SNwmqYMawEFVTf5nNyt5qErgVmkmVe3s7KysWbNmy3R9Eel0+pEdUiaUsoGUcSnrbivMdLykLn5MwEGXJqtLtcpjxYc6AJjpNXihMEsjzZe4/C3idn7goFy6X7IveaD/rVQqayiCKVklkiAacunsx03+t5QAxm2jpLtl2ijXRsnvdbcNZr5RHmwxC5vyYLMkhRZulSceuHXJrLnAPEh64AmFdpgHHpj7YpctNtNiuS2WfLHkh0vWI27/A8a/APbwzHK9fi0lAMyUo5ctWzyS7Hyd5H8n6UiKAGMSSvqx5P9TqtV+Tg5MJgZYEVEoFJb4SKMo6TBqAABi6spSrXouGQDMhBWpVK4ZBG901ytMmkcRYML+ILePlOqVr0lqkgMTxQArQgrp9D+57D8pAQCIoTAw9d1Rrf6RFACmUz6V6pPZGyW9ULIkRYBJV3LXx8JAn65Wq9vJgfFigBUhhUJhlu9s/Emmo6gBAIjZguQLxVr15ZQAMF1yqdyZFoT/ItcTqQFMBx+QB+9vBv5ZBlkY53oRUVLIZp/qof+EEgCAGNnckB9dq9XuIgWAqZZL5U4zC98t6cnUAGbEPe760M6w8b8DAwPbyIHRYoAVxYNuJvMDc51PCQBATJYjry/VKh+nA4CpVMhkznbXv0o6mRpAS7jLTe/f2Wh8mkEWRrViJEH0rEilck0L+sUnnQEAor8S+dPyavXR10kNYgCYCoVM5gnueq+44gpoVXfK7d3L65VLWA/gYBIkiJ6Nw8ODi7oWzpLsSdQAAESYm/xZNw8P10kBYLIVUqljuru7PyHXByVlKQK0rMNkOn9zV9fFixZ2bxscHvqDJCcL9sUVWBG1dOnSuXM6Ov8iKU0NAEBEFyGXFGvVV1ACwGRamU5nR6R3m+xFkgKKAJFzswX2jmKlcjUpsM/aEVGVS6efY7JvUQIAEEGD1pFcWSwWN5ACwGToXdI7f8e8+//eXW8Tj9oAYsCvMfc3Fev1flpA4hbCaK/8h4dvW9TV9QRJBWoAACK1JDW9pVQu/5ISACaqr6+vY27H7Fc2Ond+T9K5kpJUAeLAcjJ71aLurp4lc4+4aeOWjVtp0uZbBAmiLZfLrbBm+EdJc6gBAIgG/32pVnu8pJAWACaisDx7gQf+AUkrqAHE2gaZ3lWqVj8nqUmO9sQVWBE3ODi4cdHCrhGZzqIGACACwjAInj00NDRACgDjlc1mVy4+rOtrCvROSYspAsTePEnnLe7qekZ318I1g8PDVZK0H67AiodEPpO5Ua7HkgIA0Mpc9qFyrfJWSgAYj6VLl86d29n5j+56u6RZFAHak8mvUBi+qbhuXYka7fRzRyxks9njg9B/L6mDGgCAluS6Y1tj54nr16/nGRYAxiyXybzQXB+QtIwaACRtN9dHZm2b95/9G/rvI0f8cQthTAwNDd29qGthh2RPogYAoAWFQcKeU1u3rkgKAGORyWQyiw/rusykt0k6jCIAdkvKdFqjY+Sli7q7yoNDQ7eTJN4CEsTH7Pnz/0MSHzEKAGg9po/fUanwqYMAxnSukk9lX51w3SrT2eQAcABL5fpuPpP5RqFQWEKOOC8nEStHZTKPD13Xi6vrAACtozp767zjuLwfwGjll+eP9aD5OZMeTw0AYzAot7eX6pXPkCJ+GHLEzKahoTu7u7q6TDqZGgCAFuCh2/PX3rWWy/oBHFJfX1/HnI5Z/2CBX2pSmiIAxmiOTOcv6up6Qtei7l8PDQ0NkyQ+uAIrho4/8sh598+ec6ukHDUAADPK9X+levV1hABwKLlU7rTAws+6dDQ1AEzCIuQ+d3tnuV79mKSQHtHHACum8qnUqbLgF+IqOwDAzKklZ886bs2aNVtIAeBAjj/yyHlb58x5l7v+QTyjF8Dk+4PJX1ms1W4mRbQx3IipweHhdYu6Fib5VEIAwAzx0O15xXLxNlIAOJBCJnP2zmTyasmeLt5cBzA1HinZy7oXdiVOGB66vsrVWJHFQSLGVknJdenML8XzsAAA08xlHyrXKm+lBID9yWQys5PSv3HVFYDpZK7feph4cWmgVKRG9HCwiLHrpEbCw4skbaYGAGAa3Rx0JP6JDAD2p5BKHRO4bnTX2zgfATCd3PQ4JZo351PZV1MjeriFMOY2Dg8Pdnd33W3SM6gBAJjyhaF0f2h6WrlcvpsaAPZh+VT21TL7tknLyQFghsyS6fzFXd3HzV0w/5rNmzdvI0lEDiIkaA/5dOZSSS+gBABgKrn8FeVa7RJKAHjIWjSfP8Iajc+77DxqAGihhcs6C3RxsVq9jhitjwFWm8hkMl0J1x8lpakBAJiaNaB/q1yrXUgJAHsrZDJnu+sLkh5JDQAtuYQxfWz2vHn/0N/fv5McrYsBVhvJLs8+MQj85+LWUQDA5C/91u0IGycODAxsIgYAadeD2hPS++R6PecdACKwmPm9JxIvLpfLa2nRmhhktJGhzUP1RV3dsyQ9kRoAgElc8DUkP7+2bh0LPgCSpFxP7rjA/BpJ54nhFYBIsKXm4csWdXevHxwauoUerYcBVpsZHB66rnth18lmylMDADA5gn8r1WtfpQMAScpnMi+Q+Q9MWkoNANFinZKeuahrYX7eggU/3rx5c4MmLbTiJEHbCa0j8RLJB0gBAJiEhd61pVrlvXQAsEpKFlKZD8t1qUnzKAIgwuubl8xKJH9WWFbooUUL/VRI0J6OymQeH7p+KamTGgCAcXGts85kX7FY3EAMoL0VCoUlPtK8VPIzqAEgRoude90TLyzXy9fQYuZxC2Gb2jQ0dOeihd3DMp1DDQDAOOxwD55WqpbuIAXQ3nLLc4+RN6+VdBI1AMSLzTXzF3cv7NoxODx0Az1mFgOsNjY4PPTbRd1dOUknUAMAMKblnOx1pXrlCkoA7S2fyr7aAv+WpEXUABBTgZnOXLSw68TuxYuuGhwc3EGSmVp/oq0df+SR8+6fPec3knqpAQAY5erhM6Vq9TWEANpXJpOZHbh93OSvoAaANrLGPHx2sV7/CymmHw9xb3O33n33/d4MniVpmBoAgEMx128tmXwDJYD2lc/nlyekXzK8AtCGVroFN+XS6eeQYvpxCyE0uHlwU3fXwjtMdqG4Kg8AcGAb1JE4s1QqbSIF0J7y6fQpCsPrJDuKGgDa1CyTXbi4u2vnpqGhX5Nj+jDAgiRpcHj4tu6FXTLTKmoAAPajaYE9p1Qu/4EUQHvKpdPPMdn3JFtIDQBtziSdsbirK50t5K+86667QpJMPQZYeMDg8NAvF3V1rZB0HDUAAA/l/1iqVr9KB6A95VOZfzSzz0jqoAYAPOCkbfdve/ziJYf/YNOmTTzcfYrxDCw85OykaXq5pBtJAQB44OAg+3ypVvsgJYC2lMils5+Q6X3iURMA8DBmeqqPjFyfy+VS1Jji1iTAvlYsXXF4s2PnTZLy1ACAtnfd7Pnzzu7v799JCqC99C7pnb997tbLJD+XGgBwSHfJw/NL9fpqUkwNBljYr0IqdYxbcIMknnEAAO3rL03TqdVqdYgUQHtZuXz50kaQ+KGkR1MDAEbHpfsDtxcW65UfUmPy8Qws7Nem4eENi7q7/ijpheJWUwBoR38NA3tytVq9mxRAe8n15I7zhP1M0tHUAIDRM6lTpuct7lq4cdPw8O8oMrkYYOGABoeGiou7u7ZIOpsaANBWtpnp6eVqtZ8UQHvJprJnBYFfJelIagDAuASSPX1Rd9eiwaGhqyU5SSYHAywc1KahoZsWLex6hEyPoQYAtIVQ8heUarVrSAG0l1w6/aLA/FuSzaUGAEzY47u7FuZPGB7+YVUKyTFxPAMLo5HIpdOXmey5pACAuC8M/K3FWu1DlADaSyGVfYmbf0G8wQ0Ak8pNPwyl51Wr1e3UmBiebYTRaIZmL5F0HSkAIMYLLNknGV4B7SefyrzBzb8khlcAMOnMdX7C9d2enp451JhgSxJgtAqFwmE+0vi5+DQaAIij75Rq1edJapICaB+5VOZtZvpvSgDAFDP9ypLJ84rF4mZijA9XYGHUisXiZutIPk3SGmoAQIzWU6afWkfyRWJ4BbSVQibzbwyvAGCauJ7oIyPXHr1s2WJijHPNSgKM1cp0OtuQXS/pkdQAgMi7cd72bWfdevfd95MCaJ9zgFw680GT3kwKAJh2f2nIz6zVaneRYowHLxJgPPLL88cqaP5SUjc1ACCybh3xcFW9Xh8kBdA2gnw6/WnJXkkKAJgxa6yRPLN4Z3GAFGM4gJEA41FaV/qzmZ7uEu/YA0AkebFpOpvhFdBWEvlU5hKGVwAw41Z6svHrwvLleVKMHldgYUJyqdx5ZuG3JXVSAwAiwrUuTNgTK5VKjRhAe+jr6+sYunfj5ZKeRQ0AaJlF2YCaySeXBkpFWhwaV2BhQsr18hUuf5akHdQAgEgslO4NzM9meAW015p/+N6NXxTDKwBoMdajoPmzTCaTocUoDmYkwESVa7UrJX+hpBFqAEBLGzTp7DtqtdtIAbTP2VEhnfmsSy8iBQC04l5ayxOhrs5kMo8gxsExwMKkKNVq33X5C8QQCwBa1aCHwdnFWu1mUgDtI5/OfsCll1MCAFqY6aiE+0+PXrZsMTEOlgmYRLl0+tkmu0xSBzUAoGUMehg8tbyu/HtSAG20Lktl3mumd1ACAKLBpT82PHwKH7Kzf1yBhUlVrtW+49xOCACtZEMY2CqGV0B7yaez72R4BQDRYtKJHRb8qHdJ73xq7LcPMPkKqexz3cJLJUtSAwBmzD3eDM4sD5T/RAqgfeRT2dfL/H8pAQBRZdc2zc+rVqvbafEgrsDClCjWK9+S2UWSN6gBADPir4F8FcMroL3kU9lXyfyjlACAKPMzEtLlfX19PJpnLwywMGVK1erl5sGzJW2jBgBMq7vNwzP5tEGgvRRS2efK/FPiLgsAiD7XBUP3brxslcRdTbslSICptGl4aO2iroU3SPZsSbMoAgBTvtoZ8ETiyaVq9XZaAO0jl06fK/Nv8fgGAIiVR23u7nrE4NDQFaRggIVpMDg8XF208LCrZfYsSfMoAgBTpmRheGapViuSAmgfhXT6JEk/kmw2NQAgdvq6F3ZtHxweur7dQ3B5MaZNJpM5OhHqapmWUwMAJpv/3jo6nl4sFjfQAmgfK3p6ljUTiZsk66EGAMR3oefyl5Rrta+1cwSegYVpU61Wb/dkcJqkNdQAgEn1M+voOIPhFdBeVq5cuSBMJH/E8AoAYs9M9rl8KnVqO0dggIVpVS6X6zuajVNc+g01AGASVjPS12fPn3dOsVjcTA2gffT19XWMbNvxLZdOoAYAtIXZsuD7uVxuRRuve4Hp17ukd/72ufd9V7IzqQEA4+UfK9Vqb5IU0gJoL/lU5lMyvZYSANB2ykomTi6VSve02zfOFViYEf0b+u+zjo7zXP5VagDAmLmZ/r1Uq71BDK+AtpNPp/+Z4RUAtK2cjTR/uHTp0rnt9o3zKYSYMZs2bWoODg9/b3F3lyQ9SVwRCACj0ZTba0u16odIAbSfQir7PJk+yboJANqYaVlHMrFicGjo25K8Xb5tBliYcZuGhq5b1N11u6TzJCUpAgAHtMU9uLBcr1xGCqD9ZJdnn2iBf5f1EgBAUu/ihV2zNg0PXdsu3zADLLSEwaGh/sMXdf/KXRdImksRANiXFwPpjFK9egMtgPaT78kXgkR4raQF1AAASJJMpy3uWjiwaXj4D+3x7QItpLB8eV5B4gqXjqYGAOzhv7aOjmcXi8UNtADaT09Pz5xZieT1kk6iBgBgHyPy8Mmlev36uH+jPMQdLaW4bl1pp4enSPo5NQBAkvxzs+fPP4PhFdC+ZiWT/yeGVwCA/euQgkvz+fwRcf9GGWCh5dTr9cHZ8+c9Ta4vUQNAG2u6602lWu1V/f39O8kBtKdcJvMmuS6mBADggEzL1Wheuirmz0jkGVhoSRs2bGgODg99b9HC7rtkOpttFUCb2WJuzyvVq18mBdC+8un0KSb7KusgAMAoZDd3LZwzODz807h+gzwDCy0vl8qdZhZ+Q9IjqQEg/rwYSBfcUavdRgugfa3o6VnWTCR/L+kR1AAAjHYhaW7PL9Yr34zjN8cthGh55Xr519aRPEHSz6gBIM5MfsWI++MYXgHtra+vr6OZSFwmhlcAgDEuJ93CSwqpVG8cvzkuR0YkbNq0aesJw0Nf39LdNUvSaRQBEDNNM72nWKu9bnh4eBs5gPY2r3PWxyV7DiUAAGNnnTI7s3vxoq8MDg7uiNV3xg8XUZPLZF4o12dNmkcNADGwwT14UblevoYUAAqp7EVu/hVKAAAmxPSDUrX6TEkel2+JK7AQOYNDQ39e2N31nUA6Q9ISigCIKnf9sml+ZrVevZUaALLZ7Akm/56kDmoAACZo5eLurh2bhoZ+HZdviCuwEFmZTKYr6fY5l3OJPYCocTO9v6dafed1UoMcAFauXLmgsX3HHyTlqQEAmCTNMLQnV9ZVfhWHb4YBFiIvn8peLAs/Idl8agCIgM0uf3m5Vvs2KQA8uJ7JfEGml1ICADC5fGBHs3nCwMDApqh/J3wKISKvVK98uWn2WJf+SA0ALe7GpPxEhlcA9lZIZS9keAUAmBrWMyuR/EQcvhOegYVYGBoaujdXyF+yY9u2UNLp4upCAC3FG2b2ga7DF1/8p9tu20gPAHus6OlZ5kHwI0lzqAEAmCLHLl7YXd40PBTp565yko/YyaVyZ5qFX5K0lBoAZppLFfPwJaV6/XpqANhHkE9nfirpKaQAAEzxqvQ+byYeXR4o3xHZgyY/RMRNuV6+xjqSJ5r8CmoAmOGFwlfmbJ13PMMrAPuTy2T+UQyvAADTwuZbMvxaX19fZD/pllsIEUubNm3auml4+LJFC7s2yfQk8XHUAKbXPeb2wlK9+r4NWzfsJAeAfeVTqT6TfZX1OABgGi3bsW1buGlo6LoofvHcQojYW5lOZxuyz4l3OAFMA3dd3eHNl61Zt249NQDsz9KlS+fO7ehc7dLR1AAATPNqtSHpSaVa7YaofeUMsNAurJBO/41L/y3ZfHIAmAKbZfrHUrX6GUlODgAHks9kPi3XqykBAJgJLlWCjuSJxWJxc5S+bp6BhbZ5jRZrtU80zY6T/BpyAJhkV3oiOK5UrX5aDK8AHEQhk3kGwysAwEwyKesjIx+P4NcNtN/rNZ/KvkTmH5HUTQ4AE3C33P6xVK98mRQADqWnp2fRrETyL5KOpAYAYOb5s0u12nej8tVyBRba8lVaqle+3JD3yvQDcgAYF9M3EyOdxzK8AjBas5LJD4vhFQCgdRa0n8hkMl3RWX4DbS6fyl4s8/ezoAQwSmX34DXlepnbkQGMWiGbfaqH/hNKAABaiuvTpXr1tVH4UvnYXrS9weGhW7oXL/qsyedK3icZVyYC2J9Qps/O3jrvWWvvWns7OQCM1tKlS+cmg8QVkhZRAwDQUkx9i7oW/mpweLjS+l8qgAcclcmcGLo+IekUagDYyw0mf32xVruZFADGKpfOfMikN1MCANCi1jRNJ1ar1e2t/EVyBRawl01DQ38dHB76wqKF3WWZTpE0nypAW1svt78r1atv2jQ8fBc5AIxVbnnusWb+WfHsWQBA6zo8kNng8NDPWvmLZIAF7Mfg8NAtC7u7PheY5kp6DItOoO2MyPQJ60g+p1Qp/5YcAMZjlZTc3L3wB5KWUgMA0Nr8lMVdXVdsGh7+a6t+hdxCCBxCIZ1+tCv4X8lPpQbQDsdufd+8+dbiunUlYgCYiHw6+07J30MJAEAkmH5XqlZPltRszS8PwKjkUrkzzZofluxYagCxtNblby7XaleSAsCE1w253AprhrdImk0NAEBUmOktxWr1w634tXFbFDBK5Xr5mq7DD3+0yf9W0j0UAWJjo5ve3HX44mMZXgGYrDW2NZufF8MrAEDEhK73rEyns634tXEFFjAOK1euXNDYvv0fXPYWk+ZRBIgiv0/SRzyR+J9yuTxMDwCTJZ/Kvlrmn6YEACCirirVqk9vtS+KARYwASuWrji82bnzXXL/G8mSFAEiYUSmLzSlf61Wq38lB4DJlEqlujvM1kp2ODUAAFHl8nNb7e4EBljAJCikUsd4EPyXXOfzugJaVlOurzYD/Vu1Wq2SA8CUrAnSmU+69DpKAAAibk3X4YuPW7169UirfEGcaAOTKJvNHh+4v1Ou5/L6AlqJXxMGwd9XKpVbaAFgqhTS6ZNc9jtJCWoAAKKu1R7ozgk2MAWOymRODF3vkvQsXmfAzHHX1YlA/3JHtfobagCY6nV1Pp39leSnkgIAEBND1pFcUSwWN7TEgZafBzB1cj254ywZvkuu54hP/QSmSyjpex4G/1VeV/49OQBMh0Iqe5Gbf4USAIBYcf1fqV5tiVvjGWAB07KoTR3jZm+X7EXitgJgqoxIfpm5/3exXv8LOQBMl56enjmzEsnbJaWoAQCImWYYWF8rPIqDK0KAaVCs1/9SqtUubpqONekLknZQBZg021z2iTCwo0q12sUMrwBMt1mJxFvE8AoAEE+JIPSWeA4WV2ABMyCbzR6ZcP8bd71W0hEUAcZls7k+2UzYRyqVyt3kADBTx/Qg9DskLaAGMKmakjZL2qoH3/wdkswf+st8gaSkS2ZSl6TZkuaQD5hcLn9OuVb7zkx+DQywgBmUyWRmJ90ucvmbJPVSBBiVsuSfbJp9vlqtDpEDwEzKZzKfluvVlABGbafkdUlVSVWTKm52p4fBxiAI7w0bwcZG0Li3Xq8PjvcvWLp06dw5c+YstkbjcAXBktB9sUIdYYGykrJyZSRlJB3GjwMY/RrcOpLHFIvFGbubiAEW0BqskM2e5U1/i0xP5bUJPIy766eB7OPFeuVH2vWgdgCYUfnl+WMVNP8onm8J7M92yfrl/icLdGsYBn+yDltTKpXubJXj+NHLli3eGczKBUHzeDc7Tq7jJJ0gaTE/PmA/C3LTO8rV6n/P2EkzPwKgtex+4PubXPYik+ZRBG1ui+Rfapp9olqt3k4OAK0kl8n8wFznUwJQKFO/Ql1vsuvNwtXLarU7rpMaUfxmVi5fvnQkCE406WTJTpP0OElz+TED2tzRGMndfuedG2fiL2eABbSoQqFwmDcaL5T7KyV7DEXQZtbI7RPWmfhSsVjcTA4ArSafSp0qC35NCbSppmQ3SeHPJN3oicQN5XJ5OK7fbF9fX8emTZtOMvdTzHW6pDPE7YdoW/4/pVrtH2bib2aABURAIZ0+KVTwSpO/WNJCiiCmdsj0AzP7XLFS+akkJwmAVpVLZX5hptMpgTbyV7l+bLKrdqr504k8oyrq+vr6OoY3bjxV0tPcdY6k49k80Ea2WSO5onhncWC6/2IGWECELF26dO6c5KznysJX7b6cGYg+0+/M/Uvbm81LBwYGNhEEQKvLpdNPN9mPKIE2sFbyb5j03WKt9gfx5tJ+rejpWdZIJs831/MknS6ei4fY88+WarVp/wATBlhARB2VTj8qVPAKyV8oaSlFEDF3Sf5Vc/9SsV7vJweACAly6cxqk04kBWKqbK5vWKDL76hW/0iOsclkMo9IuD1X5s+T61RJAVUQP97wRKK3XC6vnc6/lQEWEIOFdCGTOd1DvUCm54pPTUHr2iHTD9z9i+Va7SeSmiQBEDX5TOb5cl1GCcTMFrm+Hibskkql8ltyTI7CskKPOhovcdcrJOUpgpi5rFSrvnA6/0IGWECM9PX1dQzde++ZMnuBXM8UD5fEzNsp6VqTf3un+3fa+XkZAGIhyKczt0rqJQXiwFy/ldlnZ22de1n/hv77KDJ1qXOp3Bmm8JUyPUtSJ0kQA2EgP/aOWu22aXsh0RyIp0wmMztwf7rtGmadJ2kOVTBNtst0tUL7djPwH1Sr1SGSAIiDQir7PDe/nBKIuG0yfSU0+2SlUrmFHNO8HykUlvhI86Vyf71MyymCiLu0VKu+aLr+MgZYQBvoXdI7f9vc+842t/NkerqkI6iCSbbVZFe5+beSs2b9aM2aNVtIAiBmgnw6fYtkx5ICEbXBTJ9UMvmJYrG4gRwzq6+vr2Pw3nufZ7K3SjqJIoioZiA/brquwmKABbThAryQyTzO3c43+bkunUASjNM9Lr868OD7Wxs7rly/fv1WkgCIq0Iqe6Gbf4MSiKC1Mn1oR6Px5YGBgW3kaD25VOoMs+Ctkp7GOTqixqSvF2vVF0/T3wWgrQ+YuVxKYXiuuc6X9GRJs6mC/fOGzG409x+7+09K9fofJIV0AdAO6/N8JnOLXMeRAhE6bhfNg38v1iuXig9Oica6fHnuMRaE/y7p6dRAhDSbpmOr1ertU34wpjWAPZYuXTp3dkfHKpNWSXqyZCdJSlCmrdVk+om7/0SJxLXlcnmYJADa7qQylTvPLPwhJRCVY7fJ39NTq33pOqlBjujJp9OnSMG7JT+DGogCky4p1qqvmIa/BwAOsGDP5RaqoSfK/MkmXyXpREkBZWLtHkk3uOu6MNBPpuOdFABo/ZPJzM+1680doJXdbfJ3z5o//3P9/f07yRF9hUxmlbv+S9ITqIEWt6Mhz9Zqtbum8i9hgAVg1FKpVHdnEJzu0pPlfq5kBapE3lqTrg9Nv3KzGyqVyhqSAMCDdt/S8ztKoJVPHGX6qCWT/1ksFjeTI3Ysl06/yKT/lqyHHGjhTfW9pVrln6f0byAygHEt6DOZ15rrU5SIEm9ItlamXyu069UR/LxUKq2jCwAcWD6VuUym51MCLXpsvyaQ3jBdnwCGmbN06dK5s5Odrzfzd0o2nyJoQYOzt85L9W/ov2+q/oIkjQGgPZjZB4vV6tspAQCjk81m0wrD5/CeL1rQbe7h68v1+rWkaA+7P+35fblc7lI1mx802XOpghbTvX3O1pdJ+thU/QU8ywYAAADYj0TT3yQZb/iihXjDTO+zjuRJDK/aU7lcrpdrtQtdfp5cXEmP1mL+llVTeKEUAywAAABgH4VC4TA3vZwSaCF/MOnxxWr17cVicQc52lu5VvuRdSaPlel/JYUUQYvIDKSyz56qP5wBFgAAALAP39l4raTDKIEWsNVNby7Vqo8t1mo3kwN7FIvFzaVq9Y1haKsk8UE8aJUj6Fun6k9mgAUAAADspa+vr0Pmr6cEZp6tDgN7dLla/YikJj2wP5V1lV81TSfuvhrLKYKZ5KbHHZXNnj4VfzYDLAAAAGAvQxs3voiPq8dMnwPK9L+z5889pVKpcGUNDqlarW4vVatvNNM5kv5KEcyk0KfmKiwGWAAAAMBe3PUmKmDmNkCtM9NTStXqG/v7+3cSBGNRrFZ/omTiBMl+RA3M4H7s/KPS6UdN9h/LAAsAAADYLZ9OP8WkEymBmWDyK0YUnlCsVq+jBsarVCrdU6pVzpfrbZI3KIKZ2J01FfzdZP+hDLAAAACA3Vx6HRUwE5uemd5XrNWeUa/XB8mBydimSvXq+4MgOEPcUogZYPKXrFy5csFk/pkMsAAAAABJ6XT6kSZ7BiUwzTbL9Oxitfp2SSE5MJnuqFR+mWg2HiPpJmpgmi1obNv5wsn8AxlgAQAAAJKSCl4pqYMSmC4m3WJh89GlavV71MBUWTswcKd1JFdJ/llqYDq5+aRe1cwACwAAAJASkr+CDJi2EzvX1epInl5ct65EDUy1YrG4o1SrvXr3h1RwpR+mhUknFjKZJ0zWn8cACwAAAG0vn8mcLylNCUwHl32yXK8+vVgsbqYGplO5Xv2o5M+VtJUamJb9XajXTtafxQALAAAAcHslETAtW5rp38u1yt9KapIDM6FUq33Xw2CVpLupgSlnel4mk+majD+KARYAAADaWjqdfqQUnk0JTLHtLr+wWK3+Gykw08rryr9Lyk826XZqYIrNSYT2vMn4gxhgAQAAoK0l3C6WLEkJTBWX7g/dLijXat+mBlrFmlqtsr3ZOFWm31EDU8r8ZZPxxzDAAgAAQHuvq03/jwqYQsMmf2qlXvkpKdBqBgYGNjWlp0q6kRqYQk8opFLHTPQPYYAFAACAtlVIp0+W9ChKYIoMBqazS7XaDaRAq6pWq0Pztm87S/JrqIGp4mYvneifwQALAAAALKiByfdXhYnT76hWf0MKtLpb7777/h3N5gWSfkwNTA17ySppQrfrM8ACAABAW+rt7e0013Mpgcnn95qHZ5bWlf5MC0TFwMDAttnz5z1D0lXUwBR4xEAmc8ZE/gAGWAAAAGhL2++771yXFlECk2zYw8Q5xXq9nxSImv7+/p3bRnY+112/pAYmm4d64UR+PwMsAAAAtOdCWnoRFTDJtoahnV9eV/49KRBV69ev3xp0Js+XnO0Yk8v07J6enjnj/e0MsAAAANB2CoXCYSY7lxKYRNskP6+yrvIrUiDqisXi5sTIrHMk5zZYTKYFs4OO88b7mxlgAQAAoO14o/FsSXMogUnSNNMLS7Xaz0mBuFi7fu29yTA8W1KdGpi046/5uK9+ZoAFAACA9ltAT/A5HMBDtifXW4vV6vcpgbhZs27deoWJcyUNUwOT5JxMJtM1nt/IAAsAAABtJZVKdZvpyZTApHB9ulyvfpQQiKvSutKfzfRMSTupgUkwKxHaBeP5jQywAAAA0FaSQfBMSR2UwMTZj0r16t/SAXFXrFavc/nrKIFJEfhzxvXbKAcAAID2Wjf7s6mAibPV87Zvfb6kJi3QDsq12iWSvZcSmDDXU1euXLlgzMdvygEAAKBdrFy5coHLzqQEJsKkTUmFF9569933UwPtpFSrvEvSlZTABM1u7Ngx5k8CZoAFAACAtjGyffv5kmZTAhMQyvSiNbVahRRox+1/xMOLJJVIgYlwH/tthAywAAAA0E6eRQJM6KTL9M/FavUnlEC7qtfrg4HpuZK2UQPjZ+f09PTMGcvvYIAFAACAttDb29tpsrMpgXFzfb9crb6PEGh3d1Srf3T5KymB8TJpXmci8ZSx/B4GWAAAAGgLW7dsfZKkBZTAOJWtM3mxJCcFIJVrta9L/llKYLzM7byx/HoGWAAAAGgLgYXnUwHj4w2TX1QsFjfTAnjQtpGRN5l0OyUwLqbzJdmoj+MUAwAAQJuslJ9OA4yHu/1HsVa7kRLAQ61fv36r5C+WtJMaGIdlR2UyJ4z2FzPAAgAAQOzll+ePlZSnBMbhhlS9+p9kAPavWKvd7K5/oQTGIxzDbYQMsAAAABB/1uTqK4zH5qT8ouukBimAAyvXqx+Q9HNKYOx81MdnBlgAAACIP/OziICxn1fZ36+p1SqEAA4pDAN7meT3kQJj9LhMJtM1ml/IAAsAAACx1tPTM0eyUymBMfpFqV75HBmA0alUKjV3eyclMEaJwP0po/mFDLAAAAAQa7OTydMlzaEExmBH0/RaSU4KYPTK9erHJN1ACYyFuY3qKmkGWAAAAIg1H+XCGHhwm9G/VqvV2ykBjFnYNL1C0g5SYNRMDLAAAAAAiedfYSznUbqle8niD1ECGJ9qtXq7md5HCYxBfkUqlTvUL2KABQAAgNjKZrNHSjqOEhglN9NrVq9ePUIKYAKSyfdKKhMCo9UMgkO+2cQACwAAALGVaOp0SUYJjIrpK3dUq78hBDAxxWJxh8v/gRIY9e7Xdfqhfg0DLAAAAMRWaHoSFTBKW5VI8AlqwCQp12rfMdNPKYHRcB36eM0ACwAAALFl5qdTAaM8fXpvqVRaRwdgEoXhmyVvEAKjsKywfHn+YL+AARYAAABiqaenZ5FcvZTAIbnWbRsZ+TAhgMlVrNf75fY5SmA0wkTioG86McACAABALM1OJp/Iehej4eZvX79+/VZKAFOgI/Gvkt9HCByKhQe/jZADOgAAAGIpdOP2QYxGf7lWu4wMwNQolUr3uNvHKIFDcRNXYAEAAKD9mPxkKuCQJ0zyf5UUUgKYOmGg90saogQOftxWNpPJPOJA/50BFgAAAGKnr6+vQ9KJlMAhzpb+VK7VvksIYGpVq9UhM32UEjiUhPSEA/03BlgAAACInU2bNp0kaQ4lcDAeBv8krr4CpkUYBB82aRMlcDAW6vEH+m8MsAAAABA7QajHUQEHP0vS78r18hWEAKZHuVwedvmHKIGDceMKLAAAALQRnn+FQ24joX2ACsD0GnH/JJ9IiINx6bGrpOT+/hsDLAAAAMRwAexcgYWDnSBVivXKdygBTK96vT4os0sogQMxaV4tm+3d339jgAUAAIBYyWQyXZLlKYEDniC5fVhSkxLA9GtKH5a8QQkccB8dhn37+/cMsAAAABArCfeTJBklcACDs7fN/QIZgJlRrVarcvs2JXAgJp20v3/PAAsAAADxWvianUgFHHD7cH26f0M/z+ABZpB78EEq4MACBlgAAACIv9D90VTAgTaPZsL+jwzAzCqvK//OXL+lBA6wqz5B+5lXMcACAABArJiMARYO5MeVSqVGBqAVdtb2WSLgABvH/FwuV9j33zLAAgAAQGz09PTMkXwFJbD/cyJxwgy0iFlb514maQslsN/ddRg+7DZCBlgAAACIjU7r7JUsSQnsx1+7Fi/+ERmA1tC/of8+mS6lBPbL/dh9/xUDLAAAAMSGmR9DBRxg6/j86tWrR+gAtA5vBlwViQPts3v3/TcMsAAAABCf5W7AAAv7P09OePMSMgCtpbyu/HuTbqEE9oMBFgAAAOIrlBhgYX9+s7ZeL5MBaMH9tukyKmA/8plMZvbe/4IBFgAAAGLD/OHv2AJm+gYVgNbU4X65JKcE9pEws4d8KAsDLAAAAMTC0qVL50rKUAL78DAIvk0GoDWtqdUqMv2eEtiXuT/kTSkGWAAAAIiFeZ2dK1jfYj+nQDeUy+U6HYAWtusqLOAhAunoff4ZAAAAiMH5T2gFKuDhG4Y4MQZaXTL5DXEbIR6+/37IcZ0BFgAAAGIhDJwBFh52+mPNxHfJALS2Uqm0zly/owQeugdngAUAAIAYMvc8FfDQjUJ/Lt5ZHCAEEAGBfkwE7M1N+YduIgAAAEAscAshHuYqEgC8XhFZi1OpVPeef2CABQAAgJjgFkI8lHFCDERGsVr9naSNlMDekp584NjOAAsAAACRl8lkZku2jBLYy5ZZ8+bdQAYgMpqSriYDHiIRMsACAABAfARBkJJklMBerunv799JBiBC3HgOFh4qVOqBYz01AAAAEHXWbPZQAftsFT+jARAtiXDkWirgobtyW77n/zLAAgAAQBwWuCkiYG+B+a+pAETL2oGBOyVVKYEHj+/OFVgAAACIEX/wHVpA0pY7qtU/kQGIHpNdTwU8eHwXV2ABAAAgTkIGWHjwBNh0k3Y9EBpA1Pbm5gyw8IBAPAMLAAAAsWI8Awt749MHgahqBNz+iwe4tOj4I4+cJzHAAgAAQDwsIwH2CENOgIGoKg+U+yUNUgJ73N8x/5ESAywAAADEw5EkwG4eBuHvyQBEVijZzWTAA4KRIyUGWAAAAIjB0lbyxWTAbvVqtTpEBiC6zJ0PYcBeG4QdsftgDwAAAERXPp8/XLIkJSBJbrqVCkC0hcYAC3vv140rsAAAABCDhe0O5/ZBPMDcGGABURcmeB1jr+1BDLAAAAAQA0HjCCLgAVy5AUTeTt/ZL6lJCezar3MLIQAAAOKwrg2CJVTAA9tDGDLAAiJuYGBgm0l3UAK7hAywAAAAEH0udVEBuzUXLlnCSS8Qj3377VSAJNnu4zwDLAAAAERa4L6ICthtYPXq1SNkAKLPXFUqYLcuiQEWAAAAIs7NFlIBu3HCC8REyOsZD+qSGGABAAAgJgtbQK4KEYB4CNx4PWM365YYYAEAACD6ukgASXKu2ABio5nk9YwH9u4LJRkDLAAAAERbKG4hhLTr7IYTXiAmOjs7uQILe/buyZUrV85ngAUAAICIr2ttPhEgSR6GA1QA4mHNmjVbJA1RApK0Y8eOeQywAAAAEHE+lwaQJE8kNlABiNWr+l4aQJJmuc9hgAUAAIBIM2kOFSBJnY0GJ7tAjLhsIxUgSU33uQywAAAAEPETHHEFFiRJOxKJTVQA4sNkDKUhSQo9yQALAAAAUccthJAkv69arW6nAxAj5lyBBUlSIskthAAAAIg4l3ELISSu1ADit393XtfYJeQWQgAAAESdSbOpAEmDJABit3/ndY09ZjPAAgAAQNQlSABJ3D4I8LpGTFloSQZYAAAAiDKGV9hjJwmAmHHndY1dm0LgCQZYAAAAiKxCoZCkAnad52oHFYCYCXhdY88+3rkCCwAAANG1detWrsDCrvNc40oNIIYYYEGSZB5wBRYAAACia8GCBQywIElyGQMsIG6va24hxJ5twUKuwAIAAEB07dixgwEW9uBEF4jhbp4EkLgCCwAAABGXTCZDKmDX2Y04twFiJvCANymwaxdvcnbyAAAAiKzt27ePUAGSJFcnEYDYmUUCSJKbNxhgAQAAILIKAwMMsMCJLhBXFjKYxu5NwZoMsAAAABBZ10kNSU4JSMaJLhA/DKYhSQoDrsACAABA5HmTBpA5AywgZkJjMI1dAq7AAgAAQPQZtxFCFnKlBhA7vK6xZ1OwkCuwAAAAEHk7SQA3zacCEC9mPo8KkKQgDBhgAQAAIOInOBK3EEKSFpMAiNv+3Q6nAiQpNNvKAAsAAACR5hK3EEKSL5ZkdABi9Ko2McCCJMmsyQALAAAAkbeNBJAsmclkFtIBiBHnykrs3sNL2xhgAQAAIOo2kwCSlGgkuFoDiBde05AkNYOAK7AAAAAQdc4AC5KkINnkag0gXhhgYdf+nQEWAAAAos6kISpAkjy0I6gAxEYgPpwBuyW2JbiFEAAAANHmsi1UwK5tQRkqAPGwoqfnkZJmUQKS1NHdsZkBFgAAAKLNNUwESJIbAywgLhpBZ5YK2HWY1/39/f07GWABAAAg2gIe4o5dTJ6hAhCXXTuvZ+zZt+96VAADLAAAAESb8xB3PIArNoC47NqN1zMe2BoGJQZYAAAAiLyAWwixR4YEQDxwRSX2MiQxwAIAAEDEucJBKmC37p6enkVkAOKwb1eOCthl1xtVDLAAAAAQ8bOcxN1EwB5zOjqOpQIQi507r2XsFm6SGGABAAAg8utaMcDCg5tDqOOpAETbip6eZZIdTgnsdrfEAAsAAAARF8wO/koFPMD8OCIA0dZMJnkdY+8jPQMsAAAARF+xWLxX0gglIElyrsACIo8rKbEXc67AAgAAQDy4pHvIgN0bw3Gc5wARfx1zJSX2Fvg9YscOAACAeDBuI8SuLUGal+vJ5SkBRPh1bHYCFfAAZ4AFAACA+GCAhQdPfgM/mQpANBUKhcPkOoYS2CMRhtxCCAAAgHhwBljYW+CnEgGI6P680ThFUoIS2G1kzbp1DLAAAAAQD8YACw85AxYDLCCyr18/hQjYy3pJTYkBFgAAAGJxwqMaEbCXY3p6ehaRAYgiO40GeODwvtfxnQEWAAAAor/AVbNMBex9BtyZSDyBDEC0rJKSkj+WEtgjMFv3wP8nBwAAAKKuw4wBFh560uP2RCoA0VLLZh8t2XxK4AHuDLAAAAAQH4+s1dZJ3qAEHjjnMZ1NBSBarOlPowL2Fgaq7/n/DLAAAAAQeddJDdeDtxkAkk5Mp9OPJAMQHcbgGfty5xlYAAAAiNmJj1ShAvbeJJJmTyUDEA2pVKpb0uMpgYdIJIp7/i8DLAAAAMSE8xwsPFSoc4gARENHEJwtKUEJ7KU5Z86c6p5/YIAFAACAWOAKLOxno3jqKilJCCACQvH8K+yr1t/fv3PPPzDAAgAAQCw4n0SIh+u+M5s9hQxAy0vIGGDhocxU2vufGWABQLuc2LmekM9knl9IpXr7+vo6KAIgbkKz26iAh20XYXghFfD/2bvvOLnqev/j78+Z2WTTyCYhRpPdmTMlCbqCJYooiKigoGJDRKULIioWvCqWi/Xqz96viigWsAFWUJqFIohiQMAACbPTsglgCNkQkmyyM+fz+yPopSQhZXbmzMzr+Xj4kLTdmdeZPed7vqch3nLp9PMkzaEEHr4Do8JDf8nptAB2SD6f3yPaHO1j5k+VoqfI/SDJCNNenifX89wCjdy7enMuHd4haYmZblXdltSTurlUKlXIBKBtx7nuSyXVxT1U8DD2GknvevCzASCWP6Z2lJwMeOTnQnc+/JcA8AgL5i7Ys96z6ZlS8AzJnyrpqZIyrDO6wmoz3ahIiyW7MVB98bJqlUtyALSNXDpcKmkBJfBw/oKhSuVPdADi5yApuTydvkuyPamBhzLToYVy+bJ//5ozsIAuN3fu3Mm9yd6nB0H0THftK2nfujZnt8xVcRikC81y1yEyHSK56gqUS4cjkm6U7HpzXa8JiesLhcIqUgGIqSViAguP5HaUJCawgBgaDsMXysXkFR5tLLnkob9kAgvoMul0+gk9HuzvgR8g9/0lPVWKks5cFbatT9ILJH+Bm6SxmnKp8E6ZX2/S9ZL+0l+p3HqlVCMVgNaz2yR/FR3w8I+FXn2QdBrbKiCGXK8lArZibWFFYcVDf4MJLKDDZfuz8y3wgxT4AXLtLynn5g+eXMUVgdjlHYH5ks136VhJWp4O1+Wka910lblf3bfnnjcsXrx4jFAAmr4fZL7EOCiDR5tdTWUPVbV4MSmA+Jg7d+5kl46gBLbiNj3ikiAmsIAOk8vlBlSvv0DSC+T+Ainq3zKipw3G1TRJh5rrUMm05t7V6/NheJ27X+WeuGrG7Bl/ZUILQDO42W3GacXYCguiN0liAguIkUkTJrxWrumUwKO257LbHvl7TGABbS6bzU5Xvf5Cc3uRpBeoVp//kKEagdCanQRpirsOkewQs0gj965elw3DK83t8ijQFaVSaSmVAIzLgJcnEWLbH46XLOjvn7dseHgFMYC4/FzayRxpx9YE5ku2so8BoN1+lnOp1NNkdqjMXiz3Z0vGZDTaTdVlV5j5FZtqtSuGh4fvIwmARsmlwzskLaQEHs3OHKqU/ocOQOvlU6knuQVLKIGt8xcOVSp/fOjvsNMLtIFsNjvdouhQd3+ZyV4k6XFbfqYl5qHRplImP0mukyYmkvVsKrzWpN+aoosL1ept5AGwO0xa7ExgYes7RCdJ+pSkiBZAa0UWnMyeDLa1st5Ur/9jK9t3AHGUyWTSQaTDzfzl7nqepAlUQZcoynRxFNnFiQmJqwuFwiaSANgZ+TA83V1fpAS2xkyHFsrlyygBtE4Yhr0J17CkWdTAVpSHKuXMI3+TM7CAGMlkMk8JougIlx1ukT9VkrgPLbpQVq53BObv8LHa2nw6/G0k/8Xo2NglK1eu3EAeAI8lioIbzDjBBlvnkU6XxAQW0EKJyI6TOZNX2JZ/bO03OQMLaLF8KjWoIDhSrqNc2osiwDaNmvz37sEFnrRfF4vFtSQBsDVz586dPKmnZy33iMS2RIE9tVQq3UwJoCUslw6XSHoiKbCNj8iHhyqlTzzqdwkDNF92IPsMS0RHyvUaSVmKADtts6Tfm9tPE5Mm/Grp0qXrSALgoXLp9K2SPZkS2CrXD4aq5RMIATRfPgxf4a5fUQLbYm4vL1RLFz3q90kDNEcmk0lb3V9nphPFjWWBRvrPmVkba5su5DJDAJKUS4Xfk+kESmAbxqyWzBZWFIZJATR5/ZxOXyPZAZTAttRNTyiXy3c/8veZwALGURiGjw8iHRVIb3DTvhQBxt2ISb+su/2kVC39QTxlCuha+XT6bS77OiWwLeb6dKFa/gAlgOaZH4bPilzXUwLbsdUbuEtMYAENF4Zhb0J6hVwnSDpEUoIqQCv4sLudGwX6YblcvoMeADtJwCOs3VSvZYeHh+8jBdAc2TD8jbkOpwS246dDlfLrt/YHAW2ABq2MB7LPyKYzX0+4Vsr1U0mHiskroIWs30wfSLhuz6XD67JheGoYhn10AbrDmHSzpE2UwHZMn5jo+S8yAM2RyWT2NdfLKIHt8e0cfOIMLGA35PP52RobO9alE7lRLNAWRuX6tSs6u1it/lGSkwToXNxnBTuwq/SA9fRkC4XCKloA47xOToWXyvRiSmB7AtN+d5bLf93qn5EH2JWVb2pRLgzP8rFaxWVfYPIKaBu9Mh1lFvw+l04vy6bCM3K53OPIAnQmd7uGCtg+m+pjY++jAzDu+0/7M3mFHbDJk8l/bHONTR9gx2Sz2elW86MU+Gly7U0RoGNslunXHgXfLlaLfxBnZQGds8OUTh8m2e8ogccwmqjX8suGh1eQAhiv9XH4R0nPpwS2y3TNULl84Lb+OEkh4DFWtqnUIik4TfXoKJkmsWsLdJwJch1pFh2ZS4fL3PWNYELye4VC4X7SAG0+Du7pudbHanVxT0psX2+USH5I0ltJATReJpU5RHImr/DYHuPMac7AArYuyKcyL3WL3iHZweQAum7r+YDMfmxR9NVCtbqEHkD7yqUzf5d8ESXwGOpRYE8vlUq3kAJoqEQuDG/iChbsCAvsxYVS6fJt7qSTCPg/YRj2ZVPhO3PpsOTmv2HyCujazedUuU5xC/6ZS2f+nE9ljhRncABtyeVXUwE7spMdRP4lMgCNlUtn3sLkFXZwi11LTJjwl+2O0IkESGEY7pVw/y/JjpHUSxEAW9moFkz60oaxse+vXLlyAz2Adtl5Sr9Ksl9QAjvCTK8slMu/pgSw+/r7+2dOTCSXSZpFDTzm+tf1t0K1/Kzt/R3OwEJXy6ayB+TC8PyE65+SnSwmrwBse7Oad9n/TurpqeTD8NMLBwbm0gSIv8TYxGvEwxmwg9z1xXw+P5ESwO6bmEh8VExeYUfXv+ZXPdbfYQIL3SjIptNH5NLhX8yia+Ti0iAAO8H2dNcZtSBRyKXCb2b7s/NpAsTXspXL7pXpn5TADspGtdrpZAB2Tz6VGpTsVEpgJ/zpMXfkaYRuMTg4OCGfTp+US4V3mOxCSftRBcBumCTTqZaI7sinMxfm0+mnkwSIKffLiIAdZa4zc/25PCWAXRa4BWdL6iEFdtCmKaOjj3nPSiaw0PHy+fzEXCpz3OgD629z2Xdk4mwJAI0dpMmPcNniXDrz51w6/QKSAPHinmACCztjshL1s8X9goFdkktl3ibp2ZTATrj2lnvuWf+Yg246oVMNzh6cmk2F7/SxWlHmP5CUowqAcd5N3l+yPzz45MLD6QHEQzAhuEbyByiBnXBQNp0+kQzAzslmsymZf5IS2KkRtOmKHdqekwqdZuHChdNy6fSHNk1eXzHTlyVxo2UAzd4M7+/mv8mlw+ty6fRh9ABaq1AobJKCqyiBnWGyz4dh+HhKADvxc1P3b0iaRgns1OcmipjAQnfZZ86cKbl05r210dGiZP/j0kyqAGixZ0v2u1w6vJZLC4EWc3EZIXbWjITrf8kA7JhsOv0GyV9KCezkBvreoWr1ph35m0xgoe319/dPyobhu9b3ThqS/LOS7UkVADHznC2XFoZ/yqayB5ADaMHwOGlMYGFXvDobhlxKCDyGTCaTNhkTvtgFdoWkaEf+JhNYaFuLFi3qyYbhWyYmkgVzfUnSHKoAiLmDzKJrcqnw0kwmsy85gOYpFovLXCpRAju9a+X+VZ5KCGxXInA/V1IfKbCzXH7xjv5dJrDQluOIXBgeNXLvvbeZ6xviHlcA2m4tphcHkV+fS4c/z2QyCwkCNOtHz/9ABezCJ2eqJ+rnHSQlaQE8Wi6dfr9cz6UEdp7XNtfrl+74dhxoI9lU9mAz/7Tki6gBoENEkv8oGUXvX7p8+UpyAOPCcqnMm2T+JUmTyYFd3NH6xFCl8mE6AA/ZPxvIPsOC6DpJPdTALrhqqFI+aIc35vRCO8ilUotk9mnJDqYGgI7cLZLWm/xL1tPzuUKhcD9FgMZY0N8/L0omv+euQ6iB3VSX/JChSuVPpACkMAz7Eq6/S8pRA7s4AD5jqFr+7I7+dS4hROwHnblU+H1Z8DcmrwB0MpOmSPbfPlYr5FKZty9atIgjmcBuyqcyR0aJ5C1MXqFBEpL9ND8v308KQEFyy32vmLzCbox/o4t37u8DMTR37tzJvckJ75HpfVt26gCg2zbousPl7x6qVC6hBrBz8vn8Hl6rfU2u46iBRnPpr0FP8nmFQmETNdCtsqnww2b6GCWwGyvTO4eq5QU78084Awux22fLpzJHTuqZsMRMH2PyCkAX7yDtJdnvcun0Fdn+7N4UAXZMPgz387GxxUxeYdwGq9KzfHPtK5RAt8qkMoeYifvBYXfHuhfu7L9JkA2xWRFmMvvuuUffL9z0LvEIVgD4965S1oLoTTP7+h43Z+rUv927bt1GmgCPtmjRop5JPRP/R9J3JduTIhjfVbOeMWNGX3XNyMg/iIFusjCdzsh0uTjMl2yuAACAAElEQVTRALvLg3evuX/NTj3AiEsI0XK5XO5xXos+ZfITxVmBALC9jfZ9kp9ZqFTOklSnCLBFGIZ7JdzO4ynFaLJNUWSHlJaXriEFukE2m51u9ehaSYPUwG4qD1XKWUm+M/+IyQK0UpBLZY5TrbbE5CfxeQSA7XNppsv+N5sO/55Lp59DEUCWS2VOCVx/Z/IKLTAxEfivMpnMQlKg0y1atKgniKILxOQVGjOqvVA7OXklcQYWWmR+JnNgFPnXJO1DDQDYJZHLvpcc63n/spXL7iUHuk0Yho9PuM6RdBg10OIdsUJibOKzWRejk+XT4TkunUgJNILJn1OoVP6y8/8OaKIFcxfsWU9u/rxMx/H5A4BGDAB0X2T6ULFc/rakiCLoBrkwfKVc35Y0mxqIies21WsHDw8Pc59CdN46N505U/KPUwINUh2qlEPtwhlYXLKFpu1jZcPwxHrP5jtkOl5MXgFAQ7g001zfzKfCv2QymadQBJ1scPbg1Gw68x25fikmrxAvz+lN9JwrHpKFDpMLw+Ml/xgl0LCJAdNPtAuTVxKTCGiCbH92viXq35DsYGoAwHjymsy+0bt+yoeWrFryAD3QSTKZzL5B3c+TaT41EN89M/1wqFw+UZwRiw6w5WxXv0CyJDXQKFFgTymVSrfs2ioWGCf5fH6ij419SLIzJE2gCAA0zVDk9pZStXQFKdDuDpKSw2F4prt/kJ0otAOXfaNYKZ2mXTzDAIiDXDp9mGS/Yj8ODbZkqFJ+8q7+Y05xxbjIh+F+Xo9+J9lr+JwBQNPNNNOxM2f0Dc7ac88r77vvvg0kQTtamE5nRvpm/kbSsZJx6wu0BZOeOWt63/T71o5cRg20o1wqtb9b8BuTJlEDjV0/+lfuW7v2ml3990wsoKHmzp07efbMWZ+RdJakORQBgJYaVBSdMHNGX3XNyMgScqC9dqAyp9RNvzYpRw204V7afjOm92nN2pGriIF2kg/D/SS7zKSp1ECDeVJ60+q1a0d2fdUKNEg2lT3ALPqupAXUAIC47Uv5xYkoevPS5ctXUgOx3nnK52f75trZMr2CGmj7da/pM4Vy+f2UQDuYn8kcGEV+kaQ9qIFGc9fVxWr5ebvzNTgVG7ttcPbg1Fwq/JZZdLWYvAKAeA4aZC+rBcHNuTA8ihqIq2w6/VIfq93K5BU6aIftjFwYfkWcOICYy4XhoVHkl4jJK4wTC/S93f4aZMTuyKfTz3a3H/BEIABoowEEZ2MhZvr7+ydNTCY/LdfbGZ+iE7n8vFSlcuKVUo0aiN0+XSpzuJufL6mXGhinteADvRumPmF3n5LNAAG7JAzD3oT7JyR7tziTDwDacSBxr0tvLlYqv6AFWik7kH2mBdG5khZSAx3uJ317zjp+8eLFY6RAXORTmWPdonN4yivGk0nnFCrlkxrwdYCdHGj2Z/dWIvqhSU+lBgC0/Yjigrp0SrlcHiEGmiyRTYXvMdPHxWPa0T0r3T/UzV/DOhex2K9Lhe800xfFCQkYbx4dMFStXrv7w1ZgJwaauXT6/ZJ9RFIPOQCgQ8YUUkkeHFesFv9MDTTDglQqW7fgXEnPoQa6cK37T08kXlosFqu0QCscJCWXp9PflOxkaqAJlg1VynttGXLuHiawsEOy2WxKtehcMx1IDQDoSJFMX++dMuW9S5Ys2UwOjJd8KnOkm39bUh810MXu8ih4eXF58e+kQDMNzh6cOjp5w08lfyk10Bz+nqFK5QuN+EpMYOEx5cLwKLm+xUATALrCjVFgbyiVSktJgUbaa968WWPJnm9LejU1AEnyB8yDNxSqpYtogWbIZrMpq0cXSdqHGmiS0Z7aWP8dK1asbsQXS9AT27Jw4cJpfdOmfU2u/yeeSAEA3eIJ5jppxvS+B9asHfkrOdCQnaZU9uAoEVwm6VnUAP7NJsj0ulkz+ibdNzLyRzXg8hpgW/Jh+DxFfrmkHDXQvNWcfnzn8uU/btyXA7Y20NzyRKCfsIIDgG4ec9iPEr0T3rJ06dJ11MCu6O/vnzQxkfiMZKcx7gS263djHh1TrVbXkAKN3pxnU+H7zPRJcQILms73H6pUrmvc2BR4hFwqc4rMvyaeCAQAkMomf0OhUvkLKbBT44mB3JMV1H8kLlUBdlTVo+AI7ouFRlm4cOG0sdHRc0z2GmqgBW4ZqpSf0sgvyOMy8R9hGPbl0uEvZH6WmLwCADy4eXDZlfl0+t3iwBd2cHyZTYVnKKgvFpNXwM5IWRBdlU+nTyIFdtf8MHxqfXTT35i8Qqu46ZuN/poMRCFJyqVSi2TBz8QlgwCAbQ9ELqpF0fFc4oJtefAGwT+QdBA1gN3yy57a2JsadeNjdBXLpsJ3mOkzkiaSAy2yZsroxoFb7rlnfSO/KGdgQblU+A5ZcJ2YvAIAbG9E7Dq8x4Ib5ofhU6mBR8qnMsdYPbpFTF4BjfCqsWTPzbl0+gWkwI5aODAwNx+Gl5npy2LyCq0dM57V6MkriTOwutrg7MGpo5PXny3pddQAAOyEjS4/rVipnEMKpFKpGT0KvinTUdQAGi6S/AvW03NmoVDYRA5sSy6dfpWkb0u2JzXQYmNWS2YLKwrDjf7CTGB1qWx/dr4lo5/LtTc1AAC7xs/dODZ26sqVKzfQomt3mF4g6QeS9VMDGNf1bUHSKUOVyp9ogYfKZDJzgij6nGTHUgNxYNKPC5Xy0eP0tdF1g80wfKVcP5C0BzUAALu1SyX9o0f+6qWVSoka3SOfz0+MxuqfMvm7xC0pgGaJTDpLPcn3FwqF+8nBPEE2DE8w1xckzSAHYrOiCuxZpVLpb+PyoSdvV0lkU+EnzPR+lj0AoIFWu0dHFavVP5Ci82X7s3tbMvoRZ3EDreLDFgVvKywv/YYW3Sk/MJDzIHmW5C+kBmK1dnJdXayWnzdeX59JjC7x4P0pfiLTi6kBABiHIUvNzN5XKJe/RIuOFeTT6Xe57FPi5sBAy5n84iiR+K9isbiMGt1hyz2MN3xA8ndL6qUIYjcalL+sWKn8dvzWe+h42f7sfEtEv5b0RGoAAMbZTzaObT6Z+2J1ljAMH59wnSPpMGoAsTIm0zc9CD5cLBbXkqNjWT6VeY2bf15SihyIqVuGKuWnSvLx+gbcs6DDZdPpl1giukFMXgEAmuP1k3omXp3L5QZI0RlyYXhUwnWbmLwC4qhHrndYPVqWS2XeJClBks6SD8P9sunwL25+vpi8Qoy5/LMax8kriTOwOlo2Fb7TTF9gQwYAaMEw5t4oCl5dWl66hhZtutOUz+/htdrn5DqFGkDbuF1unx6qln4kqU6ONl4Hp1KDHgQfkes17Lcj9qM+qZSqlBdcKdXG8/vwg9CZA86J0djYd0x2DDUAAC00KtOJQ+XyT0nRZmOJMHyeb3licZoaQFu6xUwfLpTLv9E4nxGBxpqfTj8xcvuITEeKK6bQJkx+WqFS+d/x/z7oKKlUakaPBb+U9DxqAABiwM308UK5/DF2ouJvcHBwwqb16z/urvey4wR0xCr47+6JjxWrxd+yDo63MAz3Srh/ULI3iCto0F5W1k25crk8Ot7fiAmsDrIwnc7UZL8V97sCAMSN6YJNtdrxw8PDG4kRT/PT6SdGsvMkPZ0aQKfxgrt9fXNU+zbr4XjJprIHWBC9Q65Xi4krtOXqRe8cqpa/2pzhJDpjxTeQfaYF0UWS5lADABBT10eBvbJUKt1DilixXCpzmsw/I2kSOYCOdrfJvzZar39reHj4PnK0TCKfyrxa8ve4aV9yoI3dtaleyzVrYpwJrA6QH8i8PAr8xyZNoQYAIM5cKnlgh5VKpaXUaL2FAwNza5Y4R6YXUwPoqnXxesl+mjA/+85y+a8UaeI6NwhOlOxkSSFF0PbrEte7itXyV5r1/ZjAanO5VOZNsugbkiWpAQBoE2uiyF7BEwpbK5tOv9qksyTbkxpAV7vdXT9I1iZ8d9nKZfeSo+GCbCr7AguiU+R6paQekqBD3L2pXss287JkJrDaeEWYS2c+K/l/kQIA0IY2uvyYYqXyC1I018KFC6fVRzd9xaUTqQHgoetlk/1Crp9pQuLyQqGwiSS7Lp9OP93NjpLraEnzKIKO08R7X/0bE1jtuDLM5yf6WO37kl5HDQBAWw99XO8fqpY/S4rmmB+Gz4rcz5MsTw0A2zEi+UXmwQUTp02+bMmSJZtJsgP7aanUoILgSHe9TtJCiqCDVawnubDZE91MYLWZBXMX7Fnv2fxrSc+hBgCgM9gXhiql94pHvI+bRYsW9Yzce99HJH+/eMoVgJ2zWq6LFeiSTbXaFdz8/ZHr1nsPkNmhch0ungaPrhm66cShcvn7zf+2aBv5gYGcW+ISmeZTAwDQWfzcgUrljVdKNVo0ViaTWRi4nyvXM6kBYDfVJf1Nsks8skuKy4s3Soq6KUA2m01ZzQ+V+aGSDpY0jY8FusxtQ5XyPg+uD5qKCaw2MT+dfmIku0JcPw0A6FAmv3i0Xn9tM28G2ulyqcxxsuh/JZtKDQCN5w9Iwc1m/mdFdm2UtKuLxeLaTnqHC1KpbF2JAxT4/nIdIOlJLHd0+c/9q4cqlV+2ZqyINhh8phbJ7FKeEgQA6PghketqJYOXd9oOULNlMpk5QaTvSv5SagBo4lq8JrObFGmxB7pFUXCrkrq1HdbpixYt6llzz5q9lKjvHZjt45GeKtN+kqazXIEtzPW3QrW8n1p02wcmsGIum8oeYBZdzIoTANA1uz/SPzywQ0ul0j3U2Hn5gczLPfCzJT2OGgBiouymW81tmSkqRVI5cC+NRlGpyWfdJjKZTH/CPeNSaFJGrrykQd9y/6oJLCpge0M0P2CoUrmuVS+ACawYy6Qyh5j5L02aQg0AQJcNke6sB3pRuVwuE2PH7DNnzpT1kyZ9Ua5TqAGgjdwtaaVcq8y02uWr3W11YH6vm622yOqRbKOk0Qe3DyNmNZckC4KpURT0BEGUUGR7PLiHO13ms91tltxnmfmeLpslaY6kAUk9JAd2nkk/LlTKR7f4NSCOsqnsy8yiCyT1UgMA0JVcyz0KXlgcLt5JjMcYNwxkn2lBdJ6kBdQAAAANttETwV7FYrHayhcRsBziJxeGrzOLfiEmrwAA3cw0YInommx/dm9ibN1BUjKbCs+wILpWTF4BAIBx4K5Pt3ryasvQELGSS2XeJPNviclFAAD+bVUU2CGlUulmUvyfMAzDhPRDuZ5LDQAAMD58eOPY2MKVK1duaPUrYZIkRvLp9NtkfhbLBQCAh5kdRH7l/DB8Fim2yKUyxyXcb2XyCgAAjCuz98Rh8kriDKz4DETTmTMl/zglAADYprWSv6SVT79ptXw+P9vHat+W9Eo+DgAAYHzZtUOV0nMleRxeDWf6xGEwGoafZvIKAIDHNF2yS3Pp9HO68c3n0unDfKx2i5i8AgAA4y+S19+pmExeSZyBFYPBaOZ/JP8QJQAA2DEurU8E9pI7S6Wru+H9hmHYm5A+I9fbGbsBAIDmjLfsu8VK6eQ4vSbOwGqhXDr9cSavAADYOSZNiSK/qBvuiZXtz+6dkP4m1zvE5BUAAGiOdXVFZ8btRTGB1SL5MPyYZGdSAgCAXbJH5Lo0O5B9Zoe+v0Q+nf6gJaLFcu3N4gYAAM1i8o9WKpW74ve60HTZVPgRM32UEgAA7La1HgWHFJcXb+iUN5TJZNJB5D+Q9DwWLwAAaCaX/pGqlJ95pVSL22vjDKwmy6fTH2TyCgCAhpkeBNGlmUxmn054M7kwPD6I/BYxeQUAAJpvzAM74coYTl5JnIHVVPl0+m0u+zolAABouFV104HlcvmOdnzxYRj2Jd2+7vKjWZQAAKA17FNDlVJs79PNBFaT5FOZY938++KsNwAAxokP182eWy6Xy+30qrOp1AvN7PuS9bMMAQBAa4ZRunNTVHvK8PDwxri+RCawmiAXhq+U+wWSJakBAMC4jr4KNenAON549JHCMOxNSh9113vFAS4AANDCAZR7dEixWv1DnF8kg6VxlkllDpHrp0xeAQDQDJZPml2217x5s+L8KvOp1GDSdb27zmA8BgAAWjt80tlxn7wSA6bxlRnIPDcw/5WkidQAAKBJXHvXEj2/G5w9ODWOY69cOvNet2CxS09hYQEAgBa7qy6d0Q4vlEsIx0luIPdkBfWrJc2gBgAALfFH60m+pFAobIrF2CCXG1Ct/gNJz2fRAACAOHD5EcVK5Rft8Fo5A2u8BqhW/52YvAIAoJVe4GO178dhvJNPZY60Wv0fYvIKAADEhMkvbpfJK0lKsMgaPEDN52erVv+TTFlqAADQck+e0Tdj2pq1I5e34puHYdg3a3rfOTJ9XNIkFgcAAIgDk+5LRNFLVt9//7p2ec1MYDXQ3LlzJydll0h6KjUAAIjNAO3ZM/tmbFizduS6Zn7fXDr9nEB2qaQDWQoAACBmA6QT76xWr2+nl8wEVoMsWrSopz66+dcyHUQNAABi5+CZ02eU1qwduXm8v1E+n584Y9q0T0t2tqSZpAcAAHFi0veGKuVPtdvrZgKrQaZMmPgdmV5DCQAAYjpWM72sb/qM60fWjhTH65vkBnJPNq9fItmrxcNyAABA7Hihd8PUV67asGpzu71ybuLeiMFqOnOmSydSAgCAWOsJzC/MZDL7jMPXtlwqc4qC+l9degqpAQBA/HjNzI5dsmrJA+346jkyuJtyYXiUXD+hJQAAbWOF1ZL7FVYUhhvxxTKZzJwg8nMkvYS0AAAgrkz+oUKl8qn2ff3Y9QHrQOa5QeBXSJpIDQAA2sqNvRumPG93j0Bm0+kjTHaWpFkkBQAA8eV/HqpUDpJUb9d3kGQh7pr8wEDOA/+5mLwCAKAdPX108vqfSXr5rgzk8vn8Hl6rfU6uU0gJAABibiQKgmPUxpNXEjdx3yV7zZs3q55IXiWpnxoAALSt+TNn9PWtGRm5dGf+UWYg81zz6HJJLyQhAACIPdMJxXL52nZ/G0xg7aRFixb1bBjd9GtJi6gBAEDbe9aMGX33rBkZ+ftj/cWDpGQyDD9spnMkzSQdAACIPdcPhirlT3bCW2ECaydNnjDhW5K9hhIAAHQGk148a0bf1feNjFS29Xfmp9NPXNs383eSXi+e4gwAANqB687kpImvXL169eZOeDsMwHZCNgzfJdmbKAEAQEfpcdfP8wMDua38meVSmVPqshsk5+xrAADQFlxaL0+8eunSpes65T3xFMIdlA/DF7v7xZJx43sAADrT7Z4Inl0sFtdKUi6Xe5zVat912ctIAwAA2orb8UPV0g876S1xBtYOCMNwL3f9jMkrAAA62hMtin4oKciF4StVqy1h8goAALQbc3250yavJM7Aekz5fH4PjdX+6tJe1AAAoCvcKOnpZAAAAO3GXVfPmD3r4MWLF4912nvjJu7bZzOnTf+RSweSAgCArvEEEgAAgDZ0d4/XX3TrHXes7cQ3xyWE25FNhR92+RGUAAAAAAAAMTYWRfbapcuXr+zUN8glhNuQTWVfZhb9WkzyAQAAAACAGHPTW4vl8jc7+T0ygbUV2Wx2gdWjv0maTg0AAAAAABBbph8OlcvHd/rb5OyiR+jv75+kevQzMXkFAAAAAABizKSbN27e/JZueK9JFvfDTQyS35T0VEoAAAAAAIAYu7se2CtWrly5oRveLGdgPUQulXmTTMdTAgAAAAAAxNjGwPTKUqlU6ZY3zD2wHpTJZPYJIr9e0iRqAAAAAACAmIpkOmKoXP5VN71pzsCStHDhwmlB5OeLySsAAAAAABBnrtO7bfJKYgJLklQf3fw9SQspAQAAAAAA4spcXx6qlr/ale+92xd+NgzfYq5v8GMAAAAAAADiyuQXFyqVV0qqd+P77+ozsHIDuSeb6wv8GAAAAKA9+Z8lbaIDAHQ2c/1tw9jYUerSySupiyewwjDsVVD/kbjvFQAAANrPqLveP1SpPE+m13XzDg0AdIFyPWEvX7ly5YZujtC1E1iJSF+WtA8/BwAAAGgv/s8osP2K1fJnJEVD5fKv3HQaXQCgI61VlDi8VCrd0+0hEt34prPp9BFm9ll+DgAAANBGIpk+1zt16uuWLVu28qF/sGZk5O8z+6YnJTuQTADQMTYEgb2sUCneQIouvIn7gv7+efVE8lZJM1j8AAAAaBNVMx1XKJev2t7YPpdOf1uyk8kFAG1vs0yvGCqXLyXFFt12CaHVE8nviMkrAAAAtMsAVvYjTwT7PMbklST5UKVyqqRfUA0A2pnXJH8dk1cP11UTWNkwfLOkQ1nsAAAAaANrze24QqV0TLFYXLuD/6beO3XK6yX7LfkAoC25SacOVSq/JMXDdc0lhAvT6UxNdrOkaSx2AAAAxNwflUycMDQ0tHxX/nF/f/+kiYnk7yQdREoAaBvuprcWy+VvkeLRuuUMrKAm+56YvAIAAEC8jZnpY0OV8iG7OnklScPDwxunjG58meR/JikAtAnX+5m82raumMDKpdOnS3oeixsAAAAxdpvJn1Uolz8qKdrdL3bLPfes90TiZZItJi0AxJu7PjJULX+WEtvW8ZcQzk+nnxjJbpTUy+IGAABAPPdb9OXI9MFyuTza6C+ez+dne632B7n2JjUAxHIz8PmhSuW9dNi+jp7AOkhKDqfCa920L4saAAAAMXS3y08qViq/G89vkkqlZvRY4grJF5EcAOLDpHMKlfLJkpwa29fRlxAuT2c+wOQVAAAAYrrXcv6mem1wvCevJKlara5JjPUcatLNhAeAmHCdVaiU3yQmr3Zws9mh5ofhUyPXXyVNYDEDAAAgRu6X23uHqqVvN/sbbzkTyy6X7BksBgBoJf/6UKXyDjF5tcM68gysfD4/MXI/V0xeAQAAIE5M19RNT2nF5JW05UysnlrtUEk3sTAAoEWbAtPHhiqVt4vJq53SmZcQ1mofk+zJLF4AAADExGY3fWCoXH5+uVwut/KF3LFixeoxj14o6S8sFgBoKpfsvQ8+bRY7qeMuIcxkMk8JoujvkiVZvAAAAIjBgPsO9+iYoWp1cZxe1z5z5kzZMGnSL911CEsJAMady/WuoWr5q6TYNR11BtZBUjKI9F0mrwAAABCLnRXTtyePbnxG3CavJOmWe+5Zr2TycEm/YFEBwLiqy/RGJq92T0edgZVLZ94r+WdZrAAAAGixf7kHJxWrxYvb4LUmcqnwuzIdz2IDgIbbbG5HF6qlC0mxmxurTnkjC9PpTCSdL6mHxQoAAIAW+mVibMJhheHCP9rk9fqatSO/mdXX9zhJz2TxAUDDbJT81UPV8m9Isfs6ZgJr+vQZPzPTXixSAAAAtMg6l7+1WKm8f/W61Rva7LX7fWtHfjuzb0Yk6SB14L1yAaDJ1prp8KFK5fekaIyOmMDKpzLHyPReFicAAABa5C8W1V88VK3+sZ3fxJq1I1fP6ps+LOklkgUsVgDYJRXz6IWFSuUGUjRO2x9ZCcOwL+G6Q9IcFieAB41Juleme+VabbLV7r5KZqvd/N4gstWRRavlic1BENU8itY9uELcGEijkhTU62s3JBKRmfVOdJ8kSWOJxLSgXk+6JwOZpkuSBdFUc58Vmc02tz3lPssDzTLXLEmzJO354P8DADqS16Tg4wOV0v+7Uqp1yrvKpzKHu/lPJU1mGQPAzrDFNUWHVyqVu2jR4LLt/gZy6fTXJDuNRQl0lbqkFZJKcpUtUNmlUmBWqpuVi8Xiigf/Tiz09/dP6g2CTGSWCaTQpdAUZFwKJQ/FBBcAtKtlUWDHlkqlv3Xim8un08926TeS7cmiBoDH5qaLpm7c+Ppb7rlnPTUar60nsPLp9NNcdoM66F5eAB61GRiW7FYz3RK532JR8pa+x/UtXbx48VinvMMwDPusbnsngmhvd9tHpn0kPVnSNJY/AMR186Szpmza+F+dvpOS68/llahfLGkhCx0Atrth+PpQpfIuxehAeqdp5wmsIJcOr5W0H4sR6JidgTslXSfpRgt0y2itdsvw8PB93bp+XpBKZepmT3G3vc1sX8mfI2kGHxQAaKl/mdvJhWrpom55w/39/TMnJpI/15abuwMAHi4y03sK5fKXSDHOO0jt+sLz6czJLj+bRQi0K69Jwc0yv1aRLVZP8KehoaHldNm+BalUtq7EAQp8f7kOkPRE8aQoAGjSpkuXJb3+xqXLl6/strd+kJRcngq/JtOpfBAA4D9GZTphqFz+GSnGX1vu9Gw5CpRYyvX4QFsZk3SdmS6r1+3PnvAbyuXyKFl2TxiGjw/cn2NbjoofJlmeKgDQWC6tN9N/DZXL397yy+6VD8MPuOuT4uAJANwTBfbyTr0PYhy15YYnm8583eRvY/EBsR/yD0u61KVLgp6e3xcKhftpMr5y/bm8gugwmR+mLZNak6gCALs1Wr7Bg+CYYrG4jBgPbmvS6VdJ9gNxr0YA3buf88+k9PKllUqJFs3cJLfbBnMg92QFtZskS7L4gNipS7pGrks8Ci4pDhdvJUnr9Pf3T+pNJg906TC5XiYpRxUA2Jltmn+qb889P9FJDw5plHwqNehmv+LMXwBd6KdTRjeezJMGm6/tJrCyqfAyM72IRQfERiTZX9z9grr5+ZVK5S6SxHdnQ0FwpLsfzQ4HAGxXOYrsuNLy0jWk2M52JZ/fI6rVzjPX4dQA0Pm85m7/XayWP0OL1mirCaxcGL5Srl+y2IBYuM1dP0xGtfOWDQ+vIEeb7XT8ZzJLx0rKUgQA/rODcm6yt/dtS5cuXUeLHZLIh+En3XUGKQB0sFXu0euL1eofSNE6bTOBlc/nJ/pYbYm4BAZopdslO8cTdn6xWKySoyME2VT2OaboaJleL2k6SQB0J7/XpTcXK5Vf0GLn5cLwdXI/W7Kp1ADQYa5LRvUju/EJtHHTNhNY2VR4hpk+zSIDmm6j5BdGUXA2l1J0tn3mzJnywKRJrzXXmyQ9myIAusilNfkbuQx+98xPp58YyS6U9CRqAOgELvvfSVMnv3vJkiWbqdF6bTGBlc/nZ/tYrSBpDxYZ0DS3u+sHE+pj37ljxYrV5OguYRjulZROcPeTJNuTIgA61Ki7Plqslj8nKSLH7hucPTh1dPL6b0t6PTUAtPX2Qf62YqVyDinioy0msHLp9FclezuLCxh3m+T6SRDoW3eWy38lB8Iw7A3cjzDZaZL2owiADnKTeXRMoVq9jRSNl0+n3+ayL0qaQA0A7cSlUsL06jvL5X9QI15iP4GV7c/Ot0S0RFIPiwsYtxXBfS77Vt38a+Vy+W6KYGtyqdT+suC/JL1CUkARAG2qbq7PTZw25SNcEjLO4/iB7DMtiH4i7mELoH12jM4fi6JTq9XqGmLEcr813vLpzIUuP4JFBTSeSyW5vjJ108bv3HLPPespgh2xIJXK1oPgnXKdLGkyRQC0kaqZjiuUy1eRojkWLlw4rTY6+r+SHUsNADG2Tm7vGaqWvk2K+Ir1BNb8MHxW5PqL2uhm80Cb/OgvluurA9XSj6+UavTArshms9NVi04w03slzaMIgJiPei8Yi6I3c1S9NfKpzJFufrZ42i2A+G0fbvBacHRxuHgnMeK+qGIsl05fI9kBLCagYa43t08VqqWLSIFGGRwcnDC6bsMJMv+YpMdTBEDMrDW30wrV0nmkaK0wDMOE6yfinooA4qFups9PnzXrzMWLF4+RI/5iO4GVT2UOd/PfsIiARvC/u/SRYqXyO1pgvAzOHpy6afID75Dsv1yaSREAMRjq/sFqiRMKKwrDtIjJtmJwcMLGdes/aqb3SUpQBECLVNyDY4rV4p9J0UZb9bi+rmw6vNGkp7KIgN2yxNw+VqiWLpTk5EBTdk5mD07dOGn928z0fkl9FAHQApvc9ZFitfw5SRE54icfhvu56weSFlADQFNxSXkbL7oYyoXh67Tl9GIAu2apTB8ZKpcvYOCOVtlr3rxZtUTPe9z0DnGzdwDNc4vXg2OKw8VbSRFvg7MHp45OWv95mU4R97wFMP7uN7e3cUl5+4rdhuIgKbk8HS4RR2OAXbHGXR+bMXvWN7iOG3GRy+UGrFb/tEuvZwcFwDiKJPuS9SQ+VCgUNpGjjbYT6fRhkn1H0lxqABgnl0aBnVoqlSqkaF+x25HIptNvNNl3WTTAzg7a/UdKJt8zNDT0L3IgjrID2WdaEH1Z0nOoAaDB7pb8jUOVyiWkaNNtRDY73aLos3K9SRzsANA4a+T2/qFq6WxxS5W2F6uNw+Dg4ISND6y/w6QMiwbYYX+MAju9VCrdQgq0w3Ynn8q8xs0/LylFDgC7y+UXbq7X3zw8PHwfNdrf/EzmwKju35FpPjUA7N6oUxdYMvm2QqGwihidskhjJJ9Ov81lX2exADs0ZC+Y2XsK5fKvaYF28+CN3j9optMl9VIEwC5Y6/K3FSuVH5Gis+wzZ86U9ZMmfUqu0yQFFAGwkyqSv4WzcjtPbCaw8vn8RN9cu1OmARYLsF1jkn2ubv6Jcrk8Sg60s2w2u0C16GwzHUgNADvhqiiw47mXSWfLpdPPkdm35NqbGgB2QCTT13vXT/nQklVLHiBH54nNBFY2DE811zdZJMC2ufQP8+jkoWp1MTXQSduiXCpzrJl/yaWZ5ACwHWNm+lShXP6EpDo5Ot9BUrKaCt9mpk9ImkYRANvYU/qnmb2pUC5fT4sO3mmIw4tYtGhRz8i9q5dJClkkwFZtkPzDQ5XKlxmwo1MtHBiYWwsS/yvpldQAsBW3mfyYQqVyEym6TzabTVkt+qpMr6AGgIfYKNn/6506+TNLlizZTI7OFosJrHw6fZJveXQugEfx3yfc37ysWi3SAl2xk5JOH2Gyr0l6AjUASHKZvrapVnv/8PDwRnJ0t/xA5uUe+FclpakBdDnTBXXpfeVyuUyMblnkLXaQlFyeDu+QlGNxAA+zzuSnFyqVc8QjX9FlUqnUjB6zr0h2LDWArrbSTG8slMuXkQL/1t/fP2lCkHyfmd4naTJFgK5zUxDYu+4sla4mRXdp+QRWLpU5TuY/YFEAD3O9RfVjCsuXD5EC3SwXhq/Tlvsj9lED6LZBqv08Wdv85jtWrFhNDWx1G5HLDWis/jmZXquYPV0dwLj4l8k+VKiUzpEUkaMbxwYt/v65dHirpEEWBSBJqpvp89NnzTpz8eLFY+QAHtxBqdXPlfQ8agBdYZ3c3jNULX2bFNgRmUxm3yDyr0jajxpARxqT6ZseBB8uFotrydG9WjqBlQ/DV7jrVywGQJJUlkfHDFWr15ICeJREPp0+w2UfldRDDqBjh6bXJrx+HPd9xC4Isun0CSb7uKR55AA6g5suUi34r+Jw8U5qoKUTWLl0eJ2kZ7MY0PUrZvl5SiRO44gCsH2ZTGbfoO7nyTSfGkBHGZP8Y0OVyqfF03axG+bOnTt58oQJ73TXGZKmUwRoW0sit9NL1dIVpMC/tWwCa34mc2AU+VUsAnS5jXI7daha+iEpgB0zOHtw6uik9d+R6ShqAB1hqUfBMcXlxb+TAo2yYO6CPesTNp8p16mSJlAEaBsVmT46VC6fKw5o4BESrfrGM6b3fUPiCDq6l0ulQP7ioSpPVgJ2xqoNqzavWTty4awZffdL/kLJAqoAbbopdJ21sbb5iOqKaoUcaKTV61ZvWDMycumsPab9xM1mmuzJ4kbvQJz9S64P9k6bcvzSO+9cLJ7Cjq1oyUo8k8nsE0T+DzYi6GKXbqrXjh4eHr6PFMCuy4fh89z1M0lzqAG0lXtcflKxUvktKdCU7UUq9SQPgo/KdYQkDnwA8TEi2Rd6N0z+8pJVSx4gB7anJRNIuTD8gVzHkR9dyCX71FCl9GHx6FegIRb098+rJ5IXiqdPAe0y+vyNEok3DQ0N/YsYaLZMJvOUoO4fk+nl4mA60Epr3PVlJYOvcB9g7PgQosnS6fQTkrKyuBYd3WetmY4vlMu/JgXQWIODgxNG163/ikynUgOIJ5fWm9vpQ9XS2dRAq2UHss+wRHSmXIeLiSygmZi4wi5r+so6l05/QrL/Jj26bNhe8ETipcVicRktgPGTT2dOdvk3JPVQA4jRVlD6q+rBsTwGHXGT7c/ubYnoA5JeqxbeHxjoAqsk/4r19HytUCjcTw7siqZOYOXz+Yk+VquIe5Wgu1yvZOIVXCoBNGlnJJV6oVnwc/H4dCAGvGZmX5g+a9aZixcvHqMH4mphOp2pmb1LrlMk9VIEaJiyu748Wtt89sqVKzeQA7ujuRNY6fRJLvsO2dFFP2Hn16Xjy+XyKDGA5nnwiPrFklLUAFrFC2Z2bKFcvp4WaBe5XG5Ateidkp8sDoQAu+MWl38mVamcf6VUIwcas3vdxO+VS6dv0ZZH2AKd/8Nl+kyhXP6AeAQs0BILBwbm1oLERZKeTg2g2fw7vRumns4TpdCu8vn8HqrVTnLXOySFFAF2bOUv6TIL7EuFUukK9oPQ8H3sZn2jbCp7sFl0BcnRBevtmjx421C19G1aAK01OHtw6qbJD/zEZS+jBtAUq2Q6Zahc/hUp0AkOkpLDqcyrI/N3m/QsigBbtUGucwPzr9xZqdxODoyXpk1g5dLhLyW9kuTobP6AzI4cKpcvpQUQG4l8OvyaS28hBTCuLqmb3lgul+8mBTpRJpPZN6j7W2U6StwnC5CkipnOSo6NffuOFStWkwPjrSkTWFuuJa+XxJM90NlGJH/pUKVyHSmA+MmH4Ufd9RFKAA036q6PFqvlz0mKyIFOF4ZhXxDpeDO9Q1KWIugykeR/NA++3V8t/fJK7m+FJmrOBFY6/QnJ/pvc6Fx+r0kvLlQqN9ICiK98Ov1Bl32SEkDDhpKL6+bHlMvlO2iBLhRk0+nDZPZmcz9MsiRJ0MHuluycKNC3S6VShRxoyahjvL/BokWLekbuXV2WNJfc6NSVudeDFxWHi7eSAoi/bBi+xVxflxRQA9hlkUxf750y5b1LlizZTA50uzAMHx9EOsoCnSTX3hRBh6hL/ifz4NvTZ8/81eLFi8dIglYa9wmsXBgeJddPSY0OVVE9cfDQ8FCBFED7yKczJ7v8W+LSdmBXlN2DY4vV4p9JATxaNpU9wBSdJPPXSDaVImhDt0l+ThQE55VKpXvIgbgY/wmsdHilpOeRGh3Hdacng4OLxWKVGEAb7mCE4evN/Ydc8gHs1Mjxh5ZMvr1QKNxPDGD79pkzZ8oDvb2vNNkbJH8R2xvE3EqXfqYo+ElxefEGciCew5BxlE+lnuQWLCEzOtDSmvz5lUrlLlIA7SuXTr9K0vnsVACPOWC8T26nFqqlC6gB7MJ+UT4/28fqR0n+Bkn7qYlPgwe2Y8SkX0Qe/bhYrV4pqU4SxHw8Mp47BpnPS/5fZEYncakU1JIHFlYUhqkBtL8tZ2LpPHFPLGDrg0XTFUGtduKy4eEV1AB238J0OlNT8BqXH2HSvmIyC801IvlFFgUXamLiskKhsIkkaJsxyXh94cHBwQmjD6xfLulxZEYHWZHw6MBl1WqRFEDnyIXhCXKdw04E8DCj7vposVr+nKSIHEDj5efl+z1Rf4lZdLhLh3JGMMZpp/8+l//WPLhg4rTJl/HwDbTxZ3l8ZNPpI0x2IYnRQf5VNz2PR4UDnSmbCt9ppi9TApBMutmjxDFDy4f+SQ2gOTKZzJxEpMNd/lKXDjFpClWwG5ZKfpGZ/ba/XP7zlVKNJOiA8cn4yKXD30k6jMToEGuiwJ5fKpVuJgXQuXLp9Ick+x9KoItFkn/BenrO5LISoHXCMOxNSAe528tM/lJJIVXwGDZLdo2bX2y1xMU8JR2daFwmsPLz8v2erJXF48nRGdYFpkPuLJf/Sgqg82VT4afM9AFKoAtVJT9hqFL5EymAeMmnUoNREBwSuL/QpYMkm0oVSLpNpivc/fKpo6NX3XLPPetJgk42LhNYuXTmvyX/BHnRATaZ6dBCuXwlKYDukUuF35TpVEqgi/ykbnpruVweIQUQb4sWLepZs2rNs4IgOtjdDpZ8X0k9lOkKVcmvktkfE7XaFTxcA91mnCawwqWSFpAXbc7N7fhCtXQuKYCuk8ilwp/L9ApSoMPdL7f3DlVL3yYF0J7mzp07uTfZ+3Qp2j8wP8BlB0jqo0xHuEumPyuy35vq1xaq1SUkQTdr+ARWLp1+jmTXkhYd8OPx4aFKiTMJgS41OHtw6ujk9VdLeho10KGu9ERwfLFYrJIC6BwHSclKJvP0RBQd4G77umlfkzKUiTeX1pv0dzNdL+kvNemv5XL5bsoAD9lDb/QXzKfDb7j0FtKizX8wvleolN9ICaC7LRwYmFuzxPUyDVADHWSTZGcOVUpfkBSRA+h8C+Yu2LPes+mZ7vbMwPyZLnuGpMdTpmU2unSLuf6hQDcF0l/nlcv/vJInBQKPtZ/eOIODgxM2PbD+LpdmkhZt/GPxh749Zx62ePHiMVoAyPZn97ZE9GdJe1ADHWBJFNjRPFUXQC6Xe5yP+T5m9afIbB+59pY0KGkCdRqqIul2yf/p0j8C938UqtU7JNVJA+zknnpDV4Lp9Ksk+wVZ0c4De08E+xeLxbWkAPBv+UzmRR75xeImuWhfLtNX69L7y+XyKDkAbM2iRYt67r/33nwk7eVuCwLTApf2krRQ0iwKbdMmSUMyFeS+zKXbPQj+OWHChNuXLl26jjxAYzR4Aiv8haRXkRVt6p4osGeVSqUKKQA8ahuXyrxJ5tzoGu1qrfUk5xQKhU2kALAr9po3b9amCRNyibrSbgpdCk1KS56RFEqa3MFvf0zSCpmWu3tFbstNVpJFBU8khorF4nJJzqcEGF8Nm8Dq7++fOTGRXClpIlnRfrxmZocUyuUraQFgW3Kp8FsyvZkSaMtBn9vLC9XSRZQAMB6y2ez0RL0+183mRO7zArPHuds8VzTHZLMkzZA0U/KZks2UFLT4Ja+Ta0SBRuS6T667Zf4vKfiXSXcr0r+U8H8l6vXq0uXL7xb3DARaLtmoL9SbSLzKmbxCuw7qpTOYvALwmOuKCcl3RmO1p5r0LGqg3UQWvVYSE1gAxsWDt+BYK+n2Hfn72Wx2ek+9PnNzEEyzmk2QqU9SbyCfJIv2cA8SMk139/9MdJl50sym/fvX7r7Z3dY/9OsG5g+4B2MmjUQW1eSJ+919U2D1DYp61vb46Jo7VqwYEfegAtpxv70x8mF4ubsOISna0E+HKuXXkwHAjkin009IyhZLegI10GbW1U2P4x5YAACgHTXktM0Fcxfs6e7PJyfajUl3JHsnnkIJADuqUqncJY+O1Jb7YQDtZFqybi8iAwAAaEcNmcCqTdj8GsmS5ESbWVczvYongwDYWUPV6rWSf4ASaDdREB1JBQAA0I4aMoFlrteSEm3GXX5CuVy+gxQAdsVQpfIFuX5GCbQTk70iDMNeSgAAgHaz2xNYmUxmjqQDSYn24l8oViq/oAOA3ZGcNPFNkoYogTYyLSm9mAwAAKDd7PYElrm/WlKClGgjN/VOnfohMgDYXUuXLl0XmI6WvEYNtA03LiMEAABtp1ETWEC7GPV6cPySJUs2kwJAI9xZLv/V3T5BCbQLl7+8v79/EiUAAEA72a0JrDAM+yTj8kG0z6Dd9O7icPFWSgBopGK1/D+SrqIE2sS0ickklxECAIC2slsTWMnIXiZpAhnRJi4plsvfIgOAcRApmThW0hpSoB2Yi8sIAQBAW9m9SwhNryQh2sS/osBOlOSkADAehoaGlpvbmymBduDS4VxGCAAA2skuT2CFYdjrijj9HG0yTvcTSqXSPaQAMJ4K1dIFJv2YEmgD0yYkEi8gAwAAaBe7PIGVjOwQyaaSEHFn0veGKpVLKAGgGUbrtbdLYsIc7TAMPIwGAACgbUYuu/oP3aLDyYc2cPdovfZeMgBoluHh4ftkeiclEHcmfykVAABAu9jVCSyT7CXkQ+wH525vHx4evo8SAJppqFz+mVy/pgRiLpyfTj+RDAAAoB3s0gTW/DB8iqR55EO82W8L1dKFdADQCkmvv1XSCCUQZ5HEAUkAANAWdmkCy90Z7CDu7rda4lQyAGiVpcuXrzT5f1MC8cYZ9QAAoD3s2gSWxE0/EfPxuN5XWFEYJgSAVipUKt+U/M+UQIw9N5vNTicDAACIu52ewEqlUjMk7Uc6xJW7rh4ql79NCQAxEAXSKZI2kwIx1aN6/YVkAAAAcbfTE1g9QfBiyZKkQ0zVPWFvl+SkABAHd1Yqt8v0ZUogxsNBLiMEAADxH7Hs9L+I9GKyIbZc3ymVSrcQAkCcWDL5SUn3UAKx/HzKD5NklAAAAHG2K/fA4jRzxNWITUieSQYAcVMoFO43+YcogZiam0+nn0oGAAAQZzs1gRWG4V4yDZANceSmjxUKhVWUABBHhUrlezLdQAnEchsqcRkhAACItZ2awEpEdgjJENOhd2HSlCnfoAOAGIvk/i5xjz7EkjGBBQAAYm3nLiE0fwHJEEcuvWvJkiU85QtArA1VKtfJdT4lEEPPCsOwjwwAACCudngC6yApKen5JEPsuC4rViq/JQSAdhAl7AxJGymBmEkEUXAAGQAAQFzt8ATWcDr9TEnTSYaY8SDQ+8kAoF2USqWK5P9LCcSNWf1AKgAAgLjamUsIOfsKMRxt68I7y+V/EAJAO0mMTfyMpHWUQKw2qW7PowIAAIirHZ7AcjeOyiFu6oH7R8gAoN0sW7nsXsm+SgnEiZs/feHChdMoAQAA4miHJrAOkpIyPYdciNlQ+8d3Viq30wFAO6qbf17SGkogPixZ37SJ8R4AAIilHZrAqg5knyaJI3KI1b5fFASfJAOAdlUul0fc9WVKIE6iSFxGCAAAYmmHJrAs4KaeiBeXfb9UKi2lBIB2NmnjlC9KWkUJxIUZt4wAAADxtGP3wHJ7LqkQI2M9ijj7CkDbW7JqyQPu+gIlEB/+zLlz506mAwAAiJsdmcAymQ4gFWLD9L2llUqJEAA6wdRNG78u+b2UQExM6E0mn00GAAAQN485gZVPpZ4kaRapEBNRZPZFMgDoFLfcc896Sd+kBOLCzLgPFgAAiJ3HPgPLEhyFQ3y4LuLeVwA6TjL5dUkbCYF44D5YAAAgfh5zAssVPYtMiIvIjXvFAOg4Q0ND/5L8PEogJvYLw7CXDAAAIE524AwsYwIL8WC6obS8dA0hAHSi+pbLoyNKIAYm9pjtSwYAABAn253AWrhw4TS5nkQmxIFF9nkqAOhU5XL5Djf9lhKIgygSE1gAACBWtjuBNbZx7FmSEmRCHPbt+qulX5ABQIdvlLlMGjHhi2gAAABiNlbezh9anaNviMcw2vXlK6UaJQB0skK5fJVMN1ACMdjyPoMGAAAgTrY7geXc/wpxGEJL65UMvk8JAF3if0mA1rNcGIZ9dAAAAHGx/Zu4uzh9HHH4kJ5fLBbXUgJAN9hUq50vaQ0l0GKWcH86GQAAQFxscwIrl8s9TtI8EqH1/GwaAOgWw8PDG132E0qg9Ztf4zJCAAAQG9ucwLJ6/WnkQQzcXqhU/kIGAN3EA51FBcRglMiZ+AAAIEZDk23jtHHEYC9O3yICgG5TKpVukWwxJdDibTATWAAAIDaCbY9ZxBlYaLXRTVHtPDIA6ErG5dNouexe8+bNIgMAAIiDbZ+B5ZyBhdZy+YXDw8P3UQJAN+pdP+VHktZRAi1kmxMTOaAJAABiYasTWPl8fg9JWfKgpR9Os+9QAUC3WrJqyQMmXUAJtHZjHHEjdwAAEI9hydZ+08fGnizJyIOWcS0vlMtXEwJAd68K/UdUQGs/hM59sAAAQCxs/RJCD55MGrSU2fmSnBAAutlQpXKlpLsogRZukJnAAgAAsbD1CazAB0mDln4wzblsBgCkyGW/JANaxaRMKpWaQQkAANBq2zgDS5yBhZZxqXRnufw3SgCAlAj0MyqglXqkJ1EBAAC02raeQsgEFlr3oTRx+SAAPOjOUunPklZQAq2T4Mx8AADQco+awMrn87MlPY40aBl3zjYAgP8TyXQhGdC60aJzBhYAAGj9kOSRv+FjY3uTBa3jhUKlchMdAOChq0Y/nwho3efPODMfAAC03KMnsMwWkgUt/EiykwYAjzBUqfxFruWUQGtwBhYAAGi9R01gBZEWkAWtYooupgIAPIpL+i0Z0CJP6O/vn0kGAADQSls5A4sJLLSGSfcVKhWePggAW1tHul1CBbTKxCB4IhUAAEArbeUphM4EFlrCpcsl1SkBAI82efOGP0jaRAm0ZsQYzCcCAABo6XDkob9YtGhRj2RpsqAlOLsAALbplnvuWS/pWkqgRdtoJrAAAEBLPWwC67777stK6iELWjE0jhK6jAwAsD1M9KNVHz1nAgsAALTUwyawEnXuf4WWjYxvLJVK99ABALazpvQ6E1ho0WePMSIAAGith01gRYHnSILWiNgpA4DHUKhWl0iqUgLN5tJ8SUYJAADQKg+bwDIpJAlaMzL2S4kAADvAxPoSrTA5Py8/jwwAAKBVHv4UwogJLLTEhr7Zs/9GBgB4bC5dSQW0RE+NM/UBAEDLPPwMLGMCCy3xt8WLF4+RAQB2ZMsd8CRCtIRHPKkaAAC0cBj8sIEJlxCiJYydMQDYQcVisSrXckqg2VzOOBEAALTMfyawUqnUDEnTSYLmi5jAAoCdYWK9ieYPGk2cgQUAAFo3Fvn3f0wwC8mBFvBN9fpfyQAAO4MzV9GCDba4hBAAALTOfyaw3BiUoCVuGx4evo8MALDjjDNX0RJcQggAAFrnPxNY5s6jkdGCsbD+TAQA2DmFSuUWSWspgSYb0COfYA0AANAk/3cGloInkAPNZ9fRAAB2Wt1MfyMDmmzCwoGBx5MBAAC0wv+dgSWfSw40fQ8scHbAAGAXuBvrTzTdmHoYLwIAgJb4zwRW5OISQjTbxnK5fCcZAGAXmN9KBDR/4MgBTwAA0KpxyL/HwcaABM3e+dI/JdUJAQC7sAF3v4UKaLYowXgRAAC0aPz77/8wGQMSNJW7sfMFALvozkplmaSNlECTB47cMxUAALRqHCLl8/mJLs0gB5rK/J9EAIBdVpd0OxnQTJEbt5wAAAAtEUiSuz9OkpEDzWTuN1MBAHaDizNZ0dxtN/fAAgAALRJIktVqe5ICzZYYm8gNiAFgNxg3ckfzPZ4EAACgFbbcAysIZpMCTbZy2cpl95IBAHZd5AnOwEJzuTjoCQAAWiKQpCiKGIygueNfF/e/AoDdFAUR61I0lzGBBQAAWmPLGVhunIGF5n7wTENUAIDdUy6X75b8AUqgiSbtM2fOFDIAAIBm23IPLHOOpqGp3FWmAgA0glVogGZaN3ky40YAANB0nIGF1uxuyUpUAIBGrE+d9Sma+5mrMW4EAADN9+BN3DWDFGimekKcMQAADeASE1hoKktw71QAANB8WyawIk0nBZopkUiwwwUADWDikmw0l7vPpAIAAGi25IOjXyaw0LyBr7R+qFBYRQkAaMg6lQMCaC6zPYgAAACaLXjw/xmIoHnjXu7XAgANXKdyBhaajDP3AQBAC/x7AouBCJrGjRu4A0CjRIlEkQpoJuMMLAAA0AKcgYXmD3wjraACADRGsVhcK/kDlECzOAc+AQBACwQP/m8qKdA05vcSAQAaumJdTQM07dOmiAOfAACg6YJsNjtNkpECzeLGjhYANJZxYABN/LgZZ2ABAICmC+r1+mQyoKkfuogJLABoJHdnvYomfuA0jQgAAKDZgonuk8iApo57LeJMAQBo5MbcxHoVzdRLAgAA0PQxb8QgBE3mUYIdLQBo5HqVCSw08/MmcfATAAA0XcAgBM3WE9TZ0QKABvJIXEKIpjHGjgAAoAUCV5JBCJqq3tPDjhYANHJjbtwDC03F2BEAADR/zCsuIURzjRUKhXVkAIDGceMphGgqJrAAAEDTBYG4iTuaar0kJwMANI5FtoEKaCIOfgIAgKYLIosmkAFNtJkEANBgCW0iApqHg58AAKD5gsCDBBnQxEEvE1gA0PBVK+tWNJMxdgQAAE0XRIEzCEEzB72cJQAAjebOuhVN3Zg/+D8AAICmCYKIo2hoKs4SAIAGc87AQpMdJDF+BAAATRX4licRAk1hTGABQON5D2dgoamG83kmsAAAQFMFziWEaOpOFjcaBoCGr1q5hBBNtmHDBsaPAACgqYLAuYQQTdzJMi5zAYCGr1t7WLeiuaZNm8b4EQAANFXgziWEaCYbowEANFYURUxgoak2btyYpAIAAGimQJKTAc3izk1fAaDRkskkkwloqgkTJtSpAAAAmilwixiAoGnMNIEKANDgdevmzaxb0VST161j/AgAAJoqMDMGIGimiSQAgAYzY92Kprp/0iTGjwAAoKkCi5jAQlNxlgAANJgFAetWNNWsWbMYPwIAgKYKIosiMqBpnAksABgHnIGFplq8eDETWAAAoKm4hBDNZexkAUDj161cQoimckkcAAUAAE3FJYRoNs7AAoAGq9eNdSuayBk7AgCApgsU+BgZ0EScJQAAjWZ1JrDQzA/cZhoAAIBmCySNkgFN1EsCAGi4SSRAE20kAQAAaLbAzBiEoKk7Wf39/exoAUADmQezqIDmccaOAACg6YIaZ2ChyXq9lx0tAGggC5z1KpqJsSMAAGi6wMY4AwtN3tHqqe1JBQBoHHdjAgtN3JAzdgQAAM0XmBiEoLnqUcAEFgA0kjvrVTSNRdwDCwAANF+Q0CYGIWjuwDeIOFMAABq6YjUmsNA0bkxgAQCA5gs28CQZNHs/y7lXCwA0ls+kAZpoPQkAAECzBdOnT3+ADGimyDlTAAAay2fTAE10PwkAAECzBUuWLNksniaDJrJAnIEFAI1ds7JeRfO41hIBAAA0W/Dg/4+QAk30eBIAQGPk8/mJkqZTAk0cPTKBBQAAWjAEkSTXOlKgWSxSSAUAaIx6vR7q/w5IAeO/HXdnAgsAADRd8OBIhIEImsZNGSoAQGMk3EMqoKnbcQXcAwsAADTdg0dsAyaw0EyzB2cPTiUDAOy+SBwUQHMZ98ACAAAt8OAEFmdgoblGe0dDKgBAQzbkrE/RXExgAQCA1ox7JeMm7mj22Ne45AUAGrI+5QwsNPszF0T3UgEAADRbIEluYiCCpjImsACgUZjAQlN5PbGKCgAAoNkefAqhMYGFZgtJAAAN4M4EFpoqSkZMYAEAgKb791MIGYig2XtcWRoAwO5ZuHDhNMn2pASauP2ulctl7oEFAACabsslhFHAGVhotieRAAB2T7RpE+tSNJndK8npAAAAmi2QpETAqeBouvzcuXMnkwEAdl0U2T5UQFOZGDMCAICW2HIGVr3OGVhotkRvopczBwBgt7bi/mQioKlcq4kAAABaMvSVJE2cyNE0tODTV+fMAQDYHS7Wo2i2u0gAAABaIZCkQqFwv0vryYGmfvjc9qYCAOwW1qNoMh+mAQAAaIXg3/9hrpXkQFOHwMaZAwCwq/Lz8v2SZlECzd12G+NFAADQEv+ZwJIxgYWmewoJAGDXRMkxDgKg+QPHyFZQAQAAtGQc8pD/ZgILzTZr4cDAXDIAwC7gMmy04mOnOuNFAADQEg+ZwOKUcDTfmPU8nQoAsPNMehoV0GxJLiEEAAAt8n/3wFLEgAQt+ABG+1MBAHaBOetPNJtvMuMphAAAoCX+M4HFTTnRkpFwIHbAAGAnhWEYStZPCTTZPeVyeZQMAACgFf7vEsIoWk4ONJ3rmYODgxMIAQA7sfF2fw4V0AJlEgAAgJaNgf/9H1afUCEHWqB30/r13AcLAHZq420HUAEtUCYBAABo3Rj4QYUVhZWSNpEEzebOfVwAYKfWm+Lya7Rie60SFQAAQKs85CmEiuSqkgTNZ+yIAcAOyufze0gapASavrUOxNn6AACgZYJHDEzKJEELHCDJyAAAj81rtedISlACzWZcQggAAFroYRNY7s7ABK0wO5PJLCADAOwA5/5XaI26GeNEAADQMg8/A4sja2jVB7GuF1EBAHbIoSRAC9QTiQTjRAAA0DIPm8CKzLg5J1rD/DAiAMD2ZTKZOZI/jRJogUqhUOBhPwAAoGUeNoGlenAnSdAiB82dO3cyGQBgOxvtul78qG030BxLSQAAAFo6Fn7oL3om9zA4QatMmjRhwoFkAIDt4GxVtOyzp2VEAAAArfSwCaylS5euk3Q3WdAi7JgBwLYlJB1CBrSCuXOWPgAAaKlHXYbgzhE2tEjEBBYAbEs+nd5X0ixKoBXqHjA+BAAALfWoCSwzZ4CC1jDNz/Xn8oQAgEdzzlJFKyU4wAkAAFprKzeCDbgPFlr4iYzYQQOArWP9iJZwaX2pVFpOCQAA0EqPPgMr4ggbWjlI9tdQAQAeLgzDULJFlEArmOk2SRElAABAKz1qAityu50saOEg+YAF/f3zKAEAD9lYRzpKklECLdk2u/5JBQAA0PIx8SN/ozhcHHJpPWnQqs9kLUhyFhYAPISZjqICWsXlS6gAAABabSv3wFJkcs7CAjtqABAD+YGBnKSnUQKt2y4bZ2ABAICWC7b6u85ABS21XyaTSZMBACQPkq+nAlo6WKzVGBcCAIDWj0m2+rvmDFTQShZEEZcRAsCWbfJriYAWWrtseHglGQAAQKttdQKLU8XR+h024zJCAF0vDMO95NqbEmihf0hyMgAAgFbb6gRWol6/lTRoKdczHrzvCwB0raT0Oiqglcx1ExUAAEAcbHUCa+ny5SslrSIPWjpmDpInkgFAN2+j3XUCGdDizfGNNAAAALEYHG/rD5wjbmg5P2nRokU9dADQjXJh+CJJPNACLVZnAgsAAMRCsJ0/YMCCVnv82tWrX0IGAF3J9SYioMU29FerS8kAAADiINj2HxlnYKH1+29u7MAB6DqZTGaOpMMpgRa7+UqpRgYAABAH276EMAo4Awsx4IfmcrkBOgDoqo1z3Y+XxCXUaO0WmIOZAAAgTmPkbf3B0PDQkKS1JEKLJXys/kYyAOgiJulkMqDlH0TzG6gAAADiYjuXEMol/YNEiMEA+mRJCUoA6Ab5MHyeTPMpgVarS9dTAQAAxEWw/T+2v5MIrWf9+VSGm7kD6Aoe6VQqIAbWlsvlZWQAAABxsd0JLHP9lUSIxQ6d+bupAKDTZTKZtMyPoARavt3dMgaMKAEAAOJiuxNYCa9dSyLExEGZTGZfMgDoZIm6v0uyJCXQambOQUwAABAr253AWrp8+UrJh8mEWHxYI38XFQB0qlQqNcNNJ1ECceDiLHwAABCzOYEdGMBwA0/EZTh9ZCaTSdMBQCdKKjhF0jRKIA4b3KCn529kAAAAcfKYE1imgCNwiAlLWuTvpAOATrNo0aIeMz+NEojF1lZaWigUVlECAADEyWNOYMnrfyETYjSoPjkMwz5KAOgka1avPkayfkogDtx1JRUAAEDcPOYE1qYoulHSJlIhJqYlIp1CBgAdxEw6nQyI0ejwKiIAAID4DVEew/Dw8EbJ/k4qxGdXT6fPnTt3MiEAdIJcGL5Crr0pgbhI1utXUwEAAMRNsCN/yd0ZyCBOHj+pZ+LbyACgA5i5PkoGxOYDKd2x5SnUAAAA8bJDE1hmfg2pEC9+xsKFC3laF4C2lgvD17r0FEogNltX7n8FAABiaocmsJK9vX+WvEYuxMis2uhmnkgIoJ0l5PoIGRCzkSH3vwIAADEdpuyApUuXrpOCm8mFePH3pFKpGXQA0I5yqczRkp5ICcQJ978CAABxFezoX3RxHyzEzvQeM57cBaAdJWT+ITIgTrj/FQAAiLMdnsAKIruSXIjhcPtdC+Yu2JMOANpJPp05UdICSiBOuP8VAACIsx2ewIp67Crug4UYmlbrGfsAGQC0i/7+/kkuP5MSiOGokPtfAQCAGA9VdlCxWFwr2Q0kQ9yY/LRsNsuZDADawoQg+V5JKUogbrj/FQAAiLNg5/66/55kiOP+oKLo82QAEHcL+vvnyfQ+SiBuuP8VAACIu52awIqi4AqSIZYDb9fh+UzmRZQAEGdRouczJk2hBGLoTyQAAABxtlMTWJP3mPxXyR8gG+LII//yokWLeigBII7y6fSzXf4GSiCOIvlvqQAAAOJspyawlixZslky7o+AuHriyKr7TiUDgBgyuX1ZkpECMbRxdGyMM7AAAECsBTv7D9x1OdkQ2z1E84/29/fPpASAOMmF4XFu2pcSiOnW848rV67cQAcAABBnOz2BpSj4HdkQVy7NnJDo+QQlAMRFPp/fQ65PUQKx3XYalw8CAID42+kJrOJw8U657iQd4srkp+ZSqf0pASAOorH6/5M0lxKIKzfj4CQAAIi9YBf/FQMdxPpzbRZ8J5/PTyQFgFbKh+F+JufefIgtk24ulUoVSgAAgNjv6O/iYOcS0iHOXNor2lx7PyUAtEo+n5/oru/u6rYWaM720i6mAgAAaAe7NqhOJq+U/AHyIc7M9MF8KjVICQAtmRgYG/uQpCdRArHeViri/lcAAKAt7NIEVqFQ2CSzP5IPMTchsuC7khKkANBMYRjuJdn7KIGYW12oVP5GBgAA0A52/bKGyDhih9gz6Vm5VOatlADQzG1rwvU9SdyHD7Hm8ksk1SkBAADaYpC9q/+wHvhvJEUkROyZfzIMw5AQAJohG4bvkLQfJRD7zaNxMBIAALSPXZ7AKpfLd0v2FxKiDUxLuJ0nLiUEMM7yqdSguT5FCcSf1+rSpXQAAADtYnefjPQrEqJNBur759KZD9IBwHgJw7DXg+AnkiZRA/Fn15bL5RE6AACAdrFbE1hJRT8nIdpH9OF8Ov1sOgAYDwnpM3LtTQm0BTfGcAAAoK3s1gTW0kqlJNOtZER7sKTLzsvn83vQAkAj5TOZF8n1dkqgTURJrzGBBQAA2sruXkIok35JRrSRrG+ufYUMABoln8/P9si/v2WTCLSFq5cuX76SDAAAoJ3s9gRW3ewXZERbMZ2QT2VeSwgADVmjjI2dI+kJpEC7cNP5VAAAAO1mtyewSqXSzZKWkhLtNXj3s/IDAzlKANgd2TB8p8teRgm00RawZokElw8CAIC2EzTii5jpZ6REm+nzIPGLfebMmUIKALsil04/x1yfoQTaiZn9aWho6F+UAAAA7aYhE1g16SekRBvaZ33vpLPJAGBnhWH4eMkukDSBGmgr7hx0BAAAbakhE1jlcvkOyf9JTrSh1+dSGZ4cBmCHLVq0qCchnS9pLjXQZsZG63UevgMAANpS0MAvxRE9tCfzL8zPZA4kBIAdsebe+74s13MpgTbc4F0+PDx8Hx0AAEA7atgElkU1LiNEu+qJIj9/QX//PFIA2J5sOn20yd9KCbQjc+5ZCgAA2lfDJrAKy5cPyXQDSdGm5tQTPT8bHBzkfjYAtiqfTj/NZNw3D+1qU5S035ABAAC0q2RDv1pk58r8mWRFe/L9R9evP1vSCZKcHgD+bUF//7y69BtJk6iB9tzE6dJisbiWEACaLQzDvkQtsaebzwgS0UyXZpj7TJdmSOqT2R7uPtnMJprUF0WaaGZTJJ/2iP3V3q1th01yl0YessKLpGCt5JslXy+zDZI2udv9Zv6ASSNRpDUWaETSWpNGvJ64N0pGq0ql0ipJEUsNiCdr5BfL5/Ozfay2QlIPadG2PxSmjxXK5Y9SAoAkLVy4cFp9dNM1Lj2FGmhXLj+6WKn8mBIAGmXRokU961atGqibhTJLyW1Aih4n2TxJc7TlYSeP15aJp3ZRl7RKplUe6S6Z/0tuywPz4cgTVU94dWxsbJj7CQIt2ldv9BfMhuFvzHU4adHe43w7Yaha+iEpgO52kJRcng4vknQoNdDmI77z69Kby+XyCDEA7KiFCxdOq23cuMDNFgZmC909Iykjt7RMcyUlunNnQevNVJRrSPKCzAoeBUNREBXK5fJybZkIA9Dw4UyD5VOZI938fNKizW2W/NChSuVPpAC6Vy4Mz5LrFEqgQ1TNdFyhXL6KFAAeKgzDvh6zfaJI+8h9UKYFkhZK4iFHO29U0u0m3S75Epdu93rin8XhYlFMbAG7peETWGEY9iZcd0nqIy/a3Ih5tH+hWr2NFED3yabCM8z0aUqgw0Tm+uz02bM+vHjx4jFyAN0nPzCQkyUXuekpbr63ufaRlKbMuBuV6VZFulGBborMbhobG7t1eHh4I2mAHWPj8UU5Yo0OUq6bnl0ul+8mBdBFg/tU5rVu/tPx2k4CMRgCLo4CHV0qlZbSAujg7Vk+PzsaG9s3MHumu/aVtK+kWZSJC6/J7HZz3eBu13tk1xeHi7eJM7WArY9exmVFGYb7uesv5EWH/JDcvNmj51er1TXUALpgsJ/JvMgj/42kidRAh9sg07uHyuWzSAF0xrB1fjq9V+TBAbLouZLtLylLlrazTtLfJfuLK7ou6Om5plAo3E8WYByPLOfS4T8lDZIYncClv/b0Tjxk6dKl66gBdK7MQOa5QeCXSppMDXTNNs50UZBMnlQoFFZRA2grQS6VepoFwYHuOlDS/pJmk6Xj1CXdbK6rPdBVPWNj19yxYsVqsqAbjdsEVj4MT3fXF0mMDnLVpnrtMK5TBzpTdiD7DAuiP0jagxroQndL/sahSuUSUgDxtTCdztQ8OFiBHyz3F0i2J1W6jrt0s8mvcE9cHgXRn8vl8ihZ0A3GbQJrwdwFe9Z7Ng+LSzDQWS7tnTrlFUuWLNlMCqBzZPuze1si+pO4Lwi6fKdI8q9vqtfP4GANEA9z586dPDkx8WA3f4lMB0vKUQWPsNFd15jZFeb1SwrV6hKSoFON681pc2H4M7leS2Z0mF8NVMpHXinVSAG0v1x/Lq9E/WpJT6AGIEm63eRHFyqVm0gBNF8mk0kHdb34wbOsDpNsKlWwE8oyXW6RXawJicsLhcImkqBTjOsE1oM3wr2MzOg0Lj+vWKkcLymiBtDmOwmRXy0pRQ3gYTZJ/qGhSuVLbOuA8ZdPp5/uCo6QopdL9mSKoEHWmexyuX5dC/yicrk8QhK0s/F+PHiQS4dDkkJSo/N+eOxH/ZXSCVdyJhbQnjsLAwM5DxK/ZxsFbHdr94dEfez4ZcPDK2gBNPaHa34Y7hu5HyHZEeJpgRh/myX90WQ/D8Z6frVs5bJ7SYL22wcfZ9lUeIaZPk1qdKhf9k6d8jruiQW0l3wq9SS34ApJc6kBPOZg8b5IfkqxUvk5NYDdk8lk9k3U/fUuHSHTAEXQInVJV8l0/qZa7YLh4eH7SII2GZOMrwdv5r5cUi+50aH+1LthysuXrFryACmA+Mun009z2WXiUePATvJzk729b1u6dOk6WgA7LpPJpK3urzPTiZIWUgQxU5f8T/Lg3N6Nk3/BPg3izJrxTXLp9A8lO5bc6GBXJXsnHs6gHoi3XDr9HMl+K6mPGsAuGTLTMYVy+XpSANuWz+dnR5trbwikN7hpX4qgTayT/Ffu/oNitfoncQ9ExExTJrDyYbifu/5CbnT4j9PintrmF9+xYsVqWgAx3JkIw+e56yJJ06gB7A6vmdkXps+adebixYvH6AH8R5BNZV9gQXSKXK+QNIEkaGMrzHSe6vWzC8uXD5EDsdjjbtY3yqXDxZKeTnJ0+A/UzTXToeVy+W5qAPGRH8i83AP/mbicHWik6xIeHbusWi2SAt1sQSqVrZudKOkEyfopgg4TSbrS3L5XC/zCcrk8ShK0cH+7STsP6fRJLvsOydEFKubRSwvV6hJSAK2XS2dOk/zLkhLUABrufpneMVQu/4AU6DKJXBgebtJb3XVwM/ergNbxeyV9X/XkWUPDQwV6oNmatqLt7++fNDGRXC5pFtnRBUbco9cUq9U/kAJomSCbDj9v0umkAMZ9RHn+WBSdWq1W1xADnSyXyz3OarWTXfZmSSmKoEtFcl2hQN8aKpcv0panGgJNGG40c4WfznxS8g+SHV1is0xvHiqXv08KoLnmzp07eVLPhPMkvYoaQJO4lsv8+KFK5U/EQKfJh+F+cjvN5a+RNJEiwH9UJfv6mNe/w0EMjLemTmAtHBiYWwsSJXFDQ3TXT9lXh8rld0lyYgDjb69582aNJZO/kuwAagBN5zJ9zZLJ9xUKhU3kQJsL8qnMS92id0h2MDmA7RqV/AJz/3ShWr2NHBifXesmy6bT55rsGNKjy8bz5/ZOnXrykiVLNtMCGD9hGO6VcP1WUpYaQEvdFMiPvrNSuZ0UaDf7zJkzZUNv7wkuO11SjiLATokkXSr55zkjF43W9AmsfDr9dJctJj260HXJqH7k0uXLV5ICGIftSypzuJv/UFIfNYBY2Gjy9xQqlW+Ks5DRDtuRfH62j9XfafK3uDSTIsDuMdffIvPPFCuVX2nLxBawe5+pVnzTbCq8ykwHkh9daJXkrxuqVP5ICqBx27JsKnyfmT4lKSAHEC/uurzH6ydyAAdxlclk5iTc3+Ku0yXtQRGg4Ybc9bUo0FnlcnmUHNjlQX8rvmkuDF8p1y/Jjy415q73Fqvlr5AC2D39/f0zJyaS50k6jBpArN3j8pOKlcpvSYG4WJBKZetBcIZcx4sbswNN4MPy4LP1wM9mIgu7wlr0fYN8Olzi0l4sAnTxD9+PN4xtftPKlSs3UAPYefPD8KmR6+fifldA2+y5uOybm+tj7xkeHt5IDrRKrj+XV6L2YUmvlyxJEaDpVsr1mU1R7Wy2B9jJfejWyKbTbzTZd1kE6HK3WFR/dWH58iFSADsun8oc6+ZnSZpEDaDt3G7yowuVyk2kQDNlMpm0RTrTFB3PxBUQC3e56bOba7WzmMjCjmjZBNbg4OCE0QceGJKsn8WALjci01uGyuWfkgLYvn3mzJnyQO/kr5j8JGoAbW2zXGcOVcufFzf2xThb0N8/r5bo+aDJT5Y0gSJA7KyQ28cGqqXvXSnVyIFtsVZ+83w6/W6XfYHFAEiSn2s9PacVCoX7aQE8WnYg+0wLovMkLaAG0DH+pGTi+KGhoeWkQKNtuU9izwclf6s4YxdoB8tk+vBQuXy+eHottqKlE1iDswenbpq8vsJjaoEtXCqZ/JihSuU6agD/EWTD8H3m+rikHnIAHWeNuZ1aqJbOJwUaIQzD3oTb2yX/gKQZFAHazo0W2AcKpdLlpMBDWatfQD4MP+auD7MogP+om+nz02fNOnPx4sVj5EA3y+VyA6rVfyjpIGoAHT8qvaAunVIul0eIgV39FOVTmddE5p8xKUMOoN357839XYVqdQktsGWo0GJ7zZs3ayyZLEs2lcUBPMxfEh4ds6xaLZIC3SifyrzWzb8ljp4D3bOrwpnI2EXZVOqFsuDzJj2VGkBHGXPp65Hp4xzgQKLVL+Dedes2zpoxY7qkA1gcwMMMuNkpM6b31dasHbleXAeOLpHJZObMmj79mzJ9QtyzBOgqJs2Q7IRZM/omZ3K5q+666y5u8I7tys/L98+YOe3rZsEXTHo8RYCOkzDp2QnplL7pfZvWrB35O/tFXT1OaL0FcxfsWe/ZVOIsLGDrXPpHID+pUKncSA108jYpl8ocK/MvSppFDqDLVwiuv0VRcExxuHgnNfBIc+fOnTx5woT3uesMSb0UAbrG7TK9e6hcvpQU3ScRhxexet3qDTP7+mZItj+LBNjKIF56vGRvnNk3fcL0GTP+MjIywuNl0VGy/dn5M2dMv1Cm0yVNpggAmeZZ4CfMmNF395qRkX8QBP/+ZGTD8PU9QfAbyV4uKUkSoKvMlnTMzL6+fWZP3+Pvq9euXUOSrtovjodMJjMniLzIjgvwmD+0d9QjO6W0vHQNNdDuDpKS1TB8j215mAeXCwLYxrbPfj5aHztleHj4Pmp0rzAM90q4viHp+dQAIGnUXF+euHHKJ5esWvIAObpiXzg+sunMF0z+bhYL8Jhc8u9YT8+HCoXCKnKgHWVT2QNk0de44S6AHbTCPTq+WK3+gRTdpb+/f9LEROKDkr1X0kSKAHiEiuRvGapULiFFZ4vVBFYYho9PuIbEWVjAjhox+Sem77nn1xYvXjxGDrSDbDabslr0WZleG7ftEIDYiyT7kvUkPlQoFDaRo/PlwvBQub4uKUcNANtjsh+pJ3E6B/g7eRnHbyP1Gbnex6IBdsoy9+C/itXixaRAXO0zZ86U9b29Z0j2HnG5IIDdG8DeLI+OLlSrS6jRmTKZzJyg7l+R6ShqANhxfq95cHqhWjqPFh25/Y+XVCo1o8eCIUkzWDzATv9I/8HrdnpxuHgrLRCnD2Y+lXmNm39OUpocABpk1F0fLVbLn5MUkaNz5FOZI92ib0i2JzUA7KJLo8BOLZVKFVJ00E5FHF9ULp05U/KPs3iAXeE1Sd+qm32yXC7fTQ+0UmYg89wg8M9K2o8aAMbJJXXTG9nmtb/8vHy/J+vfkvyl1ADQgP2iB9ztv4vV8tfEgY6OEMsJrMHZg1NHJ68fkvQ4FhGwyzbI9J3I7FOlUukecqCZ5ofhs9z9v132MmoAaIJVZnpToVz+NSnac58kl8oca+ZfcmkmOQA02E0mP7lQqdxIivaWiOUIZMOqzbP6pkeSvZhFBOyyHknPMtebZ/ZNnzx9xoybRkZGRsmC8ZRPp582s6/vbJd9VrIFFAHQJFMkvW7m9L4nTJoy+Y/r1q3jwSZtYkF//7zpfTMvMBP3RwQwXp4g2YkzpvclnrJ25NoyZ2O1rdg+/SkMw96E+52S9bOYgIYYkeyLyd4JX166dOk6cqCRcgO5Jyuof0zSq8STBQG01lJ5dPRQtbqYFDHfdoTh6+T6hrj3LYDm+UvCo2OWVatFUrSfWO9kZMPwRHOdw2ICGsnvdbevJWsTvrFs5bJ76YHdWk8PZJ9hiei9cr1GUkARADEx5qYPF8vlz4oj7bHT398/c2Ii+b+SXkcNAC1wv9zePlQt/ZAU7SXuR8kTuXR4o6R9WFRAw20w6QdeT3xxaHioQA7szLYjm8q+1Cx6j6TnkQNAjF3lieC4YrFYJUU85DOZF3nk50iaRw0ALeX6WT3QqeVyeYQYbbITEvuNXBi+2F2XsqiAcROZ/HeRJ75SrBZ/Tw5sy+Dg4ITRdRteJ/P3SRqkCIA2cb+5va1QLZ1HitY5SEoOh+F/u+tMccYugLhwLbdAxxXK5SuJEX9tcZ+SfBhe7q5DWFzAuLvO5V9MVSq/vlKqkQOSlMvlHqda7U2SnSbp8RQB0J77KH6eEonTisXiWmo014JUKhsp+Imb9qUGgBiqu+uzM2bP+sjixYt5CEiMtcUEViaT2SeI/CZxtAZolrvN9AOvJb7D5YVdK8imsi8wqx8n2WvEk6EAdIZqENixd5ZKV5OiObLp9BEmO1vcqB1A7PnfPZE4ulgsLqNFPLXNk6JyqfD7Mh3PIgOauxaX7I8y/44lk78sFAqbSNLZFvT3z6snek6U/CRJIUUAdKC6ZJ/u23PmxzjSPn7mzp07ubdn4ldty/YEANpl9+cBmZ02VC7/gBbx0zYTWAv6++fVEsmlJk1hsQEtWZnf67JzA4++W6hWl9CjcyxatKhn7b/uOyxK+MnmeomkBFUAdPwg2PW3KAqOKQ4X76RGY2X7s/MtEV0oHsQEoG13ffQtm5B8FwfwY7btbqcXm0unPyTZ/7DYgJa7zUwX1KSflsvlO8jRlhLZVPbZFkRHyvU6SY8jCYAutNFdHyhWy18hRWPkBzIv98B/IKmPGgDamy2OAh1RKpUqtIjJEmmrDWI+P9HHxv4pWZ5FB8TGbWa6IAqCH3O9eOwF2VT2OQ9OWr1W3JAdAP7tl4mxCacsW7nsXlLsmoO2PGXwf9z1vnbbxwCAbfN73ROv52nt8dB2G5dsOv1qk/2cRQfEco1ygyJd6FFwSXG4eCtBWq+/v39SbzJ5YOR2uMmPEJNWALAtKy2wEwul0uWk2DnpdPoJSbOfyfVcagDoPF4z6YxCpfJFWrR6d7MNZVPhZWZ6EYsPiLV/SX6ZeXBRLfAryuXyCEmaY0Eqla0rcbACP1iuQyVNowoA7Nheikxnb9y8+fSVK1duIMdjy6fTT3PZrySlqAGgw7cQv/ZkcHyxWFxLjNZozwms/uzelqjfKFmSRQi0hTFJ17nrkkSgy+4sl2+VVCdLYyxcuHBabXT0AEmHbfkfl1kDwG6OkG/1WnA0ZxNvXy6VOU7mZ0nqpQaALrHEE8GruXVKqzbP7brBTKe/KtnbWYRAW7pf0nWSXSdFf54yOvq3W+65Zz1Zdkx+Xr7fe2r7y31/yQ7Qlqc88eRAAGisUXe9v1gtf1WSk+NhEtl05rMmfzcpAHShtWY6vlAu/5oUzdW2E1jZbHa61aM7xP1cgA7gNZndJOk6i+xaee3GwvLlRXYYttzDamIQPMnMniUFz3H5AZLSfGYAoElbKNfldfMTKpXKXdSQ+vv7Z/Ymkz911yHUANDNmwczfahQLv8/UjRPWz8hJJtOH22y81iMQEfaLKkg+WJ3WxLIbvOe4K9DQ0P/6tQ3vHBgYO6Y9TxJigbNfJFkiyQtFGdXAUCr91PuldmbhsrlX3VzhQWpVDay4Lcu7cVnAgAkk743fc9Zb168ePEYNZrSu71ffy4d/kHS81mUQLfsQ2i5pNsklV0qBbJSPaFyIpEoFQqFVXF+6QdJybvS6YGaFLqUMSnjUmhb7lk1KG62DgBx3widPWV09PRuvOw9m8oeYFb/pWR78jkAgIdsGVyXBxOSRxYKhfupMb7afQJL89PpJ0ayf0iawOIEunzjIa03ecnNSnL7V+C+ys3vldlqi2y1W7Q6CoLVEzdvvveOFStWN+J7Dg4OTqjdf/+eY94zK0hGsyL3WTKbbe6zzG1PN58lWb+kjOT9PHwCANreMo+CY4rLizd0yxvOptNvMNk5kiay+AFgq25RMvGyoaGh5aQYP9YJbyKfCv+fm97P4gSwkzZL+vdR9HWSanLVZfawoycuT5i0x4O/nPyQAfwMEgJAVxqT/GNDlcqn1dlP1bVcOvPfkn+sU/YbAGAcrTT5ywqVyk2kGKeNUie8iX3mzJnyQO+kW03KsEgBAADQpJH0NXXpuHK5XO60t3aQlFyeCs+W6QQWNADsKH/ApaOKlcrvaNF4HXFj4HvWrx+b2Tf9VsmOE0eHAAAA0BzpQHrjzOkz7luzdmRxp7ypuXPnTt4wc8+fy/RaFjEA7AybYLLXzeqbvvq+tWtvoEdjdcyTrdasXVua0Tc9b7J9WKwAAABokokyHT5zRt/glKlT/3D//fdvbOc3k0qlZkxM9Fwi+QtZtACwSwLJXjJzRt/MNSMjl0tykjQsbOdIjk08XdIqFisAAACaynXkxETyxvmZzIHt+hYymUx6ggXXSb4/CxQAdnu78I5sOv2DgyQe4tQgiU56M6vXrd4wo2/6SpO9mkULAACAJutz13Ezpvf1ZvO5q++6666oXV54PpUaNNmfJGVZjADQGCbb5/6+vifP7Z/3q1WrVtUpsrs9O1A+nb7IZS9j8QIAAKA1/O9REBxTKpWWxv2V5lKpRTK7VLI9WW4AMC4u3VSvvXp4eHgjKXZd0Ilvqh4Ep0lax+IFAABAa9gzLPLFuVTmlDi/ysxA5rmy4I9MXgHAuDp0YiJ5ycKFC6eRYje2rJ36xnJh+Ga5vsUiBgAAQEu5LqsHOqFcLt8dq/FyOv18Sb+RbCoLCQCaskH4e0+tdugdK1aspsXOs05+b7l0+DtJh7KYAQAA0GL/cg9OKlaLF8fhxeRTmcPd/HxJvSwaAGiq22rygyuVyl2k2DlBB78390TwZkn3s5gBAADQYo8zi36TC8OvhGHY0kmjXBge5Rb9QkxeAUArPKlH9scF/f3zSLFzOnkCS8VisSq397CYAQAAEAMm1zsSrhvz6fTTWvEC8qnMkXI/TzIe6w4ALeLSXvVE8tr8wECOGjsu0elvcM3akZtmTu/bT6Y8ixsAAAAxMFuyE2b1Td9w39q11zfrm+bC8CjJf8TkFQDEQp/MXj1z2p4Xrbl/zX3keGzWDW8yPy/f78naLZJmsMgBAAAQH/77RL1+wrLh4RXj+V1yYXgUZ14BQCxVPBEcWCwWq6TYvqAb3mRhRWFYprewuAEAABAvdnA9kbw5m06/ery+Qz6VeS2TVwAQW2mrRb8Pw/DxpHiMLWY3vdlsOn2uyY5hsQMAACB+/NzeDVPfumTVkgca9RXzA5mXe+AXSuqhLwDEehvwz55a7aA7VqxYTYutC7rq3SYSp0kqs9gBAAAQP3bs6OT1t+ZSqf0b8dWyqdQLPfCfickrAGiHbcCTNyd7fp9Kpbj10TZ01QRWsVhc6x4cK6nOogcAAEAMhTK7Mh+Gn160aNEuTzzl0+lnm9mvJPWSFADag0lP7bHgt4OzB6dS49ES3faG16xdU501vW+STAew+AEAABDDXZhA0gGjG0Zf8Li+6X9avXbtyM7861wqtUgWXC7ZHrQEgLYzUOvZvO/0GTMuGBkZqZHj/wTd+Kanz571YXP9jcUPAACA+PL9a7J/5FKZ43b0X+RTqUFZcJmk6fQDgHZlByekn+3OmbgdWaVb3/iCVCpbt+BGNu4AAACIO5dfuLlef/Pw8PB92xzf9vfPqyeS10lKUQwAOsIvBirlo66UOBNLXXgJ4b+tXrt2zcwZfSVJr+FjAAAAgDgz2ZOSFrxh1oy+m+4bGSk/8s/7+/tnBonkHyXNpxYAdIwn3j+j7/FrRkYuJkUXT2BJ0pqRkSUz+mYMmPR0PgoAAACINdN0ScfPnNE3c+68eX9ctWpVXZL6+/snTUwkfifZM4gEAB1n0YzpfaNr1o5c2+0hgm4PEJmfJukWfiYAAADQBkyud4w+8MDibH92b0mJiYnkeZLxgCIA6NQVv+n/ZdPpo9kAQtn+7N6WiK6XNJkaAAAAaBP/n707j5OjrvM//v5Uz+SGuRLAMNM3AYkcGkTlEFAQUfG+z3V1db331vW3urq66u66nusF4gEegAcIqCioUQFRjHIFCOmjujMBYshMd+5kuuvz+yMJJCHHTObq4/V8PHg8ICSTntd0V33r01XVmyXdKukZpACAlrdVHp2bL5fb9kwsBlg7pROJ15jsW5QAAAAAAAANaJ3HgtMKhcL97fjNB/z8dyiUSt+W/KuUAAAAAAAADajP6tFPM5nMEe34zTPA2k3d7F2SLaMEAAAAAABoQGkbqV+7cOHCtrsFEgOs3YRhuDUK9BKThqgBAAAAAAAajZtOnT1jxjfUZjOdGD/6PVUqlWp3V+89Zv4qcY8wAAAAAADQeBb3dXXPHKpWftEu3zADrH0Yrg7f39fVPUsmPo4YAAAAAAA0HtMZfd1dg0PV6p/b49vF/gSZROoayZ9LCgAAAAAA0IBG5NE5+XL55lb/RrkH1v5FI15/neQ5UgAAAAAAgAbUKQXfbYdPJmSAdQDlcnm4bnahpPXUAAAAAAAADcc0oFr98rOljlb+NrkH1kFUKpWHe3u675P0CnHJJQAAAAAAaDyp9d1ds4er1Rta9RtkgDUKw5XKfb3dPZ2Snk4NAABalddkdp2kY2kBAACaj53W19Vzz1C1ck8rfndcQjhK+VLxA3JdQQkAAFqUB/+QD8MXSP5iyR8mCAAAaDLmFn0tG48vbsVvjgHWGJa126LaG2W6jRQAALTYTl52Sb5c/Lwk5Uulq6IgeIKkn1AGAAA0F5vnFvwwnU53tdp3xgBrDAYHB7d01OsvlHyQGgAAtAZ3/Wb2vDlv3/3XisXimnwpfJ7c3ippM5UAAEATWWRRdKla7D7e3ANrjNatX7+hr7v715K9TlInRQAAaGqFjtqM8+4r3LdhX/9zuFpZ1td1+I/c7DSTjiIXAABoEsf29XRvG6pUbmqVb4gB1iEYqlYf7Ovqycn0UvHJhAAANKthjwXn5Mq5VQfZ76/t6un+ZmA6TNJT2PcDAIAmcXb34T2/qqyvlFvhm2EBNg7pZPJ95vo4JQAAaDrbJX92vlT61Vj+UDaZPN9dX5f0OBICAIAmUKqbTg7DsNLs3whnYI3DcKVyU29Pd4+kp1IDAICm4XJ7U74c/misf3CoUskvmHvENz1WXyTpOFICAIAG123y7HC1+r1m/0YYYI3TcKXy857ursUmO54aAAA0A/vgrk8cPBTrNqzbPFytXNHb1VOU+XmSzaApAABo2JWP7Pi+rp7CULVyZzN/H3wK4fhFs+fNe41kvyAFAACNzWWX5EvFj07E18qXi5d2SCdKuoWyAACgoddAFn0x3Z8+ppm/BwZYE2D58uXbPWYvMekOagAA0LB+NXvenLdP5BdcUSoVB0rhWWb6sKQ6iQEAQGOyedYRfXvJkiWdzfodcAnhBBkeHt7WM7/vx4qil0l2OEUAAGgcLt3eOWvm+ffee++Wif7aoRQNVSpLuw/v+ZWZniGpm+IAAKABHb1ty5ZoqFJZ2owPnk8hnGDZePx4t+AmST3UAACgIRRq8jNKpdKDk74OyGYP91rtf+R6C9kBAEDj8Zqks/KlUtPdAoEB1iQ4JpV6ehT5zyTNogYAANNqrceCMwqFwv1T+Zdm46mXyfzLLvXyIwAAAI3EpWLQ2XFyLpdb30yPm3tgTYKVxeJvLLJXiHthAAAwndab/NlTPbySpFy5+L0oFjxR0q/5MQAAgEZiUspHRv6v2R4398CaJEPrKyt6err/YtLzqAEAwJTb7h68IF8Ob56uBzA8PFwdrla+2dPVPbzz3lisuwAAQIOwk3q7u+4crlbva5ZHzEJqMheulcofe7q6Z5rpTGoAADBl6jK9vFAq/qQh1gPVyu97Du+93szPkjSfHw8AAGgMdmZPX+8lw8PD25rh0TLAmvxF6y96unsWmHQqNQAAmHTupjcXwvDyhloPrB9+YGDWzK+PdHbOl7SEHxMAAGgAh1nkPcPVynXN8GC5ifsUdc4kEhdJ9mZSAAAwmQsb/8dcqfSpRn6M2WTyfHd9Q9JR/MQAAMA0c8nPzZdKv2z8dR6mSiyTSH5L0itJAQDAJKy+TP9aCMNPNMNjzWQyR1itdonLuFcmAACYbvfXTSeFYbi1kR8klxBO4bo6nc1cs2XLlpNNOpYcAABMHDP9Rz4MP9osj3d4eHjTULV6eW9XzwMyPVNSJz9FAAAwTfoCmQ1XKw19FhZnYE2xZDI5K+Z+rWTnUgMAgAlZzvxvvlT8p2Z99Nl4fLFb8B1JJ/KzBAAA02QkCuyUYrF4Z6M+wICf0dQKw3DrlpGRF0j6JTUAABgfk76ULxX/uZm/h1y5vNw6O0512ackOT9VAAAwDToD96+qga/U4xLCabBhw4aR2XPnfL8zFnuapBRFAAA4FH5xvlR6u1pg6DM0NFQfrlZ+3tN1+E1meoZkh/PzBQAAU+zovp7uylClcmsjPjguIZxGCxcunDO7c8a1kp5BDQAAxsIvzpdKfysparXvLJlMdsdcX5T0Kn7OAABgim22qH5ibtWqfKM9MC4hnEYPPPDA5rlbtzxf0q+pAQDA6Oy4bLD0VrXg8EqSwjCs5Evhq13+Jsk38hMHAABTaI4Hsc834gNjgDXN7lyzZtOszXOf567fUAMAgANz2RdzpfAdaoN7RRVKpa+p3vFEl37PTx4AAEyhC9KJxHMa7UFxD6wGsHbz2u0Ds2Z+b6Sj41TJ0hQBAOCxXPaFQqn4LrXRjc6H1w8PnVStfGNDT7cknSHefAQAAFPAZKeks5mvPPjggw1zxjsDrAaxZtOmkYX9/VfUto+cIOk4igAAsDv/v0IpfLfa8FP6QikaqlSWzu/p/pnLz5asl+cDAACYZPO3bdky3Eg3dOcm7g1m8eLFM7Zs3Phtk72UGgAASGb6r1wYvo8S0rHHHntYbdu2T8r1FmoAAIBJtj4KbFGxWFzTCA+GM7AazNq1a+vD1eoPe7u6EzKdTBEAQHuzD+ZL4QfpsMO6deu2D1cq1/V0d90dyM6VNJsqAABgksy0SPOGq5UfN8SqkJ9HwwoyicRXJHszKQAAbchN/s5cqfRFUuxbJpMZUK3+TUnnUAMAAEySehTYk4rF4p3T/UA4A6uBF+7D1ep1vT3dsyWdTg4AQDstlGR6U75UupgU+zc8PLx+uFq5rLere7NMZ7GuAwAAkyAw13HD1co3p/uBcAZWE8jEk/8i0yf4eQEA2sBWyV+dL5WuIsXoZROJJ7rs25IeTw0ALSKSVJU0Imnjjl/yzVKw7dHf4iape+e/z5BsrqQ5kmaSD5hYLn9JoVT64XQ+BgYizbMwfZPLviLeXQUAtK6qmV6QC8Nfk2LsFi5cOGdW58z/MfnbWOMBaGAjklZJCk0KXVaU+aBFts4tWhcFwbrObZ3r7n/g/nU6xE+eXbxg8bzN8zb3Wc0WWCya7+59gdkR7p5ys6S5pyQlJZvHjwMYtYJ1dhyfy+W2TdcDYHHTRDKJxIsk+654RwEA0HoeCkwXrAzD20kxPulE4rkm+5qkI6gBYBptl7RcprvkdlfkukMx3V8sFgcl1RvhAWaz2QVWq6WjyE6URSdIdqKkEyX18OMDHstN/1oIw09M19/PAKvJZBKJcyS7SlIXNQAALSJvUf383KpVeVJMjFQqdWQQ6RLJn0sNAFMgknSvTDcrsptN9WX95fKKpVKtKY+5MpkBH/GTpOg0Saeb6cniU18BSVrfWRtJ37d69brp+MsZYDWhdH/6BIvVfyJZPzUAAM3Mpdsj0wVhGD5EjYlf52UTibe57JMceAGYYHVJf5DsV67olpr7LeVyebhVv9klS5Z0VtetWyL309zt6TI9Q9JhPA3Qpqu3T+ZLpX+eloUN8ZvTsQMDC0eC2I9NOpkaAIAmXQDd6LHYSwuFQpUWkyeZTB4Xc31b0pOoAWAc2+yHZfYrRXZjPfBr2vyNh1gmHj/ZguBCd3ue5E/i2BptZKs6Yovy+fyqqf6LeZE194K0O+b6oaRzqAEAaCYmfa1rft/fLlu2bIQak2/x4sUztm7c+FHJ/lFSQBEAo+M5KbjSI7uqsKrwJ+24VBB7yWQyA1arXeiyl0s6k+0s2mDbcHG+VHrLNKwf0ewL0m0bN3/N5a+hBgCgGVY8ZvqPXBh+iBTTcJCVSJwj6VJuQwDgAMoyXe1R8L1CuXCzDvGTANvVooWL5tc7Rp4ji14n2TPEMAutqV43PSEMw/um8i9lgNUaLJNIfVTy95MCANDAtpvbm3Pl4mWkmD7xeLynMwi+LNfLqQFgpw2SXx6YXbIyDH9PjomRPTrbr46R17vsTZLSFEGLuTxfCl81lX8hA6wWkomnXi/ziyTNpAYAoMFUJH9JvlT6JSkaZN2QTL5Brs9JOpwaQJsy3abILp61Zc53l69dvpEgkyZIxVPPDAJ/s1wvlDSDJGgBUSB/wspS6d6p22ShpaQGUmcGQfRDyeZTAwDQEFwro5hdWCwWVxCjsSyKx9N1Cy6TdBo1gLaxVaZLA+lLK8PwdnJMrWw2u8C3194o6Z0yDVAETe67+VL46qn6yxhgte5i9DpJj6cGAGBamX5rHR0vyeVya4nRsGLpePKfzPQRSZ3kAFqVP2xml8Tq9c+tWLXqAXpM/7Y3G089R/J/c9Op5ECTihTFTsqvyt89NctKtKR4PN7TaXalZOdSAwAwHUz6Un8pfPdSqUaNxpdNJp/qrm9JylADaCGulR7oU9trtW8ODg5uIUjjScfjzzQL/knS+RyjownXe9/JlcLXTNHfhVZ1ttQxGE/+j5v+jhoAgCk8WqqZ9He5UukLtGguxx577GH1rds+69IbqQE0vby5fThXLn5HUp0cjS89kD7Fgug/JF1ADTSRKftEwhitW1coRUPVys96u3qKMl0gqYMqAIBJts499qJ8ObyCFE34w1u3bvtQtfKjnu6uu4MdZ3HPpgrQdEom++fu+X1/s/y+e/4syUnSHIbXDz8wXK18u7fr8BtllpSUogqaQBCT5gxVK9dM9l/EGVhtIpVKnRpE/kNJR1MDADAZXLq9U/7iFaVSkRrNb1F//9H1WOc3JX8mNYCmsMbkH5k5b97Fy5cv306O5pdJJM5x2cdNego10OC21eSpUqn04GT+JZyB1SYqlcrqvgXzL1MUPVlSkiIAgAl2+bytW154z+rVfyFFa1i3fv2G4Wrlsp6u7mEznSPO5AYa1YhMX/BY8JJ8GP527dq1XC7YIoar1XC4Wrmkr6tnuXbc6L2bKmhQHYGCbcPVyi8n8y/hDKw2s3jx4hnbNm76jEtvowYAYPy8Zmb/kgvDT9OidaVSqZOCyL8taTE1gAZiuka12D/mB/M5YrS2E488cu6mWbPeK9k/icu70ZCbIw3N2bolfueaNZsm6+/gDKw2s3bt2vpQtfLjvq6egkzni4/LBgCMY7ci6QX5Uum7pGhtlUplzdzD5n29I7DDJTtVvAkKTPeB4n3uwasKpeLHhtcPD1Gk9a3ZtGlkuFr9VXdvz7cCtwFJx1MFDWb2SGzGQ8PVyh8mcduHdpVMJo+LuX4o6fHUAACMjf+xQ3o597tqP6l46rzA/BuSFlIDmPJtb83M/rcmfSgMw630aF/pROK55vYlmQaogQYSDpTCY5ZKtcn44pyB1cYqlcrDRxx15KX1Wu0YkzHBBwCMjumiWfPmvfTelSvXEaMN1w/VSqFvwfzLVI8WyXQcRYCp4dLtgXRhrlS6rFKp1CjS3oar1ZV9C+ZfIo/mSnqyODkFjaF7Q1fP8qFqZfnkLEEByTLx5D/L/D8l4watAID9qUr+xnypdBUpIEmZZPKtcn1K0hxqAJNms5n+LReGn5PEDdrxGKmB1JlB4F+VtIgamG7m+kOuHE7KJ2cywMIj0gPpJ1sQXS4pTQ0AwF7+rHrs5dwoGHtbFI+n6xZcJuk0agATze/2euzVhcHCXbTAgfT398+e2dHxCbnexXE+plsQ2Fkri8XfTPjXJS12Kawq3Dbi0SmSrqYGAGAXk75UN53G8Ar7cn+5XOie33e2uT4hzg4BJkok03/PmjdvCcMrjMbg4OCWfBi+x0wvkvxhimBaN2Du/zhJa1LgsTLx1Ftk/jlJM6kBAG2rKtNb82F4BSkwGtlE4mku+5Y4mxsYj4dkemM+DK8nBQ7pWC6TOUK16GuSP5camCYeyBevLJXuncgvyk3csU/D1cqy3q7DfyrZOTL1UQQA2mzV4fqNdcbOyxeLt1ADozVUrQ529XRfGkgJSSdQBBgr+/GIR+eGpdLdtMAhH8sND28arla+29PVvcVM54grrzANG7NIgQ1XKz+Z0C9KVxzIbtdSv5saANAW6mb6aC4MPyIuB8M4ZOOpl7n5VyT1UAM4KDfTf+fC8P2SInJgohyTSj09ivxKSUdSA1NsQ8esmUevWLFiw0R9Qc7AwgGtX7++NlypXN/T3XWXyc4VnzIEAK2s5B48P18qXirJyYHxGKpW7unq6b4ikJ8iWZwiwH4Nu/xl+VLpS2x7MeHb4kql1NPXe6XJz5B0NEUwhWZG9XppuFJZNlFfkAEWRrdXrVbvPeLww74VmZ0kGfe1AIBWY7rUY8ELCmFhJTEwUSqVSmW4Wr20t7tru2RnsvYEHuNOi+rn5svl35MCk3YsNzxc7Zs//1JF9aMkexJFMFVc6h+uVr4ycctVYIzPmWwi8fcu+09Js8gBAE2/tHjYpbcWSqUf0gKTKT2QfrJZ9G2ZjqEGIEn241mb57xy+drlG2mBqZJNJv/eXZ8U98XCVG3pTE/LheGtE/G1eBcMYzZUrf6ur+vwq2U6VbKFFAGAJl1QyK+rm11QLJVuowYm2/D64QcGZs382khHxwLJllAE7b391ZfypfD1azev3UYNTOmxXKVya293112SXSipkyKYdK7O4Wrl6gnadgKH5mypY1Ui9a+Sf4CNHwA01Upiozz4h3y5eDEtMB0yyeQL5X6xZPOpgTYTSfbefKn4SVJgOh2TTD4lcl0j6QhqYJJt9liwsFAoVMf7hThtEIdsqVTLl4ofCUynSrqTIgDQDPzGutkJDG9qtVwAAIAASURBVK8wnfJheHVNOtFdP6cG2shWc3sFwys0gpVh+PuYR0+TtIIamGRzrOavmIgvxCWEGLehSuWhhf1Hf622vRaT/GmSMRgFgMZTldu78+Xw7yuVSoUcmPYnZLW6cbha+XZPV/ewmc6W1EEVtCqXNsmj5+fLpR9TA41iXbU63Du/70qP/DyTjqIIJo1pwXC1csn4vwwwgVKp1IlBFF0i2SnUAICGcb3HgrcWCoUyKdCIsvH48ZEF3zbpZGqgBVXl0XPz5fLNpEAjSiaT3THXTyQ9jRqYLObR4ly5fM94vgZnYGFCVSqVNSdVq1+v9nRvMekM8W4qAEynYZneli+F/zw8PFwlBxrVULW6tqun+5sx1zyZniLeZEXrWOdR8KzCqvD3pEADH8NtPeKoI6+MavXTJCUpgklh2jxcrd4wvi8BTJJ0Or3Iouircp1JDQCYcpfXTX8fhuFDpEAzyaZSz/LIvy6JTzpGs1vj9eC8wmDhLlKgGfT398+eGev4oaRnUwOT4KGBUjiwVKod6hdggIXJZulk8m/N9TFJ3eQAgMnlUtFMb8+H4fXUQLNatHDR/Hrn9oskvYgaaNKt8cOKOs7Jr8rfTQs0k2QyOSvmdp3kz6QGJn46oAvGs0blEkJMuuFK5Y9dPd3fDORHSnaiGJwCwGQcLNVk9n+zN8992YoHVt5DDzSzdRvWbR6uVq7o7eopyvw8yWZQBU1kvUexZxVWFW4nBZpNpVKpzZ475/sdQexMMyUogoldrqo+XK1cfah/nEECplQ6nj7XLPqCpEXUAIAJc2sU2FuLxeKdpEDLrR3608cEQfQtN51KDTT+sZk2mfxZ+VLpFmqgqbe96XSX1aNfSnoSNTCBNmyr144cHBzccih/OKAfplKhXLixe37fE9z1PklbKQIAh86kIXf9Xb4UnsHwCi27dhgsrOwvh6eb6cOS6hRBA9tuppcyvEJLbHsLhWpsZMb5kpZTAxPosFlB5/PGsfYFpkemP5NVLPqM5M+lBgCMSd2ki7bWa/82ODg4RA60i3Q8fYZZdJn4lCw0nkiml+TD8GpSoJUcOzCwsGaxW2UaoAYmyNX5UnhI97hkgIXpX4wmEs81t0/LdAw1AOCgbjX5O3Kl0p9IgbZcN6TTXarX/89kr6UGGoWb/r4Qhp+hBFpyu9ufPsFi0U2SDqcGJsC2uumoMAwrY/2D3MQd0264Wl3Zt2D+Re7RJpM/lRu1AsA+rXHTuwul8F1D1eqD5EDbrhuGh7cNV6tX9fZ0r5B0rqRZVMH08s8XSqV/pwNadru7fvgvfb09f5LrlcwQMAE6Ard7h6uVO8b6B3nyoSEMDQ3VhyuVmxYcdtilCmJHSjpBnCEIAJK01V3/0zl75stz+fzvyQHsPKCqVO7u6ev9rrk/SVxSiOliuiZfKv21JCcGWvp4rVLJ93V3PSDZ86mBcQsUG65ULh/7JhdoQMckk0+J3P5X8tOpAaBNuVxX1gO9LwzDkBzA/pfB6WTyX8z1YUmcxY2p9Ke5W7c8/c41azaRAu0iHU9+zEz/SgmM09aOWTOPWLFixYax/CEGWGho2XjqQrfoU5JlqQGgffgfoyj4h+Kq4m9pAYzyoKo/fYJ1RN+W6wRqYLKZNBSTn7KiVCpSA20myCSS10m6gBQY54b0VfkwHNNZWAHV0Mhy5eK1s+bNW2zyf5Q0TBEALS4v06vypdKpDK+AsSkMFu7asn37U+X6MjUwyep1t1cyvEKbirbVa691iec/xsXdXzLWP8MZWGga/f39vTNjne+X/B3ihq0AWstfJPvIrHlzLlq+fPl2cgDjs+MMbv+qpCOogYlmpvfnwvDjlEBbb2cTiSe67GZJs6mBQ+HSpu312oLBwcEto/0z3MQdTWP9+vVbhquVn/fNm/9NxaJ5kp8kGWcRAmjqHXdg+rR1drw8Xyz8du3atXWqAOM3VK3c3zu/71KLosdLtogimMAN94/ypfBdhADb2epDPd1docleTA0cCpNmxAL73XC1unK0f4YBFppvY7lhaP1wpXJdd2/vlXI/ymSPF2cTAmgu2yT/knV0vCRfLP5oaGhoG0mAiTU8PLxpqFq9vLe752FJ50jqpArGqWAzOp7NNhvYuZ2tVu/q7e7ql+xJ1MChMLf1w9XKj0f9+0mGZpceSJ9iFn1UpvOpAaDBjcj0dQ+C/ywUCmVyAFMjG48fH1nwbZNOpgYOjddMenquVPodLYBHnXjkkXM3zZq9TNKx1MDYN61alS+HCUk+mt/OAAstI5NInGZmH3LXedQA0HgHPnZpTP5RbvoLTI9sNjvTR2p/kHQiNTDmrbjrQ4Vy+GFKAPs4DovHl8iCWyTNoAbGKjA9cWUY3j6q30sutIp8qXRLLgyfZfLTTH4dRQA0gEim73kstjhXCt/E8AqYPl1dXZGkJCUwZqbbehb0fYwQwH6Ow8rlZW76d0rgkBbLbs8b/eYYaFHpePoMs/q/S3YuNQBMsRGTLovqwScKg4WV5ACmXzaZPMtdSymBMVof8+iJ95fLBVIABxRkEslfSDqbFBij3+VL4WmjepLRCq2qUC7clC+VzjPT02S6RqO8rhYAxmGry77gsSCbK4VvYngFNA53exYVMPYnjv0zwytgVKIosL+SfCMpMEanJpPJ7tH8RgZYaHm5MLw1H4YvUBQ7UfLLJK9RBcCEHt9Im2T6XKxeyxZKxXdyg3agIV+pz6YBxujX+XLxYjIAo1MsFkvu9m+UwBjFAvdnjOY3cgkh2k52YCDjsdi/yPUGSTMpAmAc1kj2hc7a9i/et3r1OnIADbrvz2YX+EjtIfHmLUZvi8eCkwuFwv2kAMYkSCeSt5j0FFJg1FxfzpfDtx30yUUptJvcqlX5fBi+VR2xuJk+LPnDVAEwxr1szl1/t61eS+VLxY8wvAIaWzQy8izWvRjTVt71YYZXwKFtci2KvVnSdlJg1Eznjea3sSNH28rn83/JheGHrLOzX25vkHQvVQAcZO96s7m9PF8qHVcoh58dHBzcQhOgCV65xv2vMCZ39izo+xQZgEM8zlqVv1vy/6IExiCzKB5PH3R/TifgEUE2mbwwivQPZno6OQDstE3yKz2Kfa6wqvBHcgBNxzKJ5GpJjyMFRsHNdFouDG8lBXDoksnkrJhruaQ0NTC6vbX+Nh+GXznwbwGwrw3ucTHpbe56k0lzKQK0pYfM9M2gVvv8/YODq8kBNKdsPH68W7CcEhgdvyxfKr2eDsD4pROJF5vsB5TAaJj0nVwpfM2Bfg+XEAL7EIbhffkwfI9iwdFye6tJ91EFaJvd5zK5vaF7fl88F4bvY3gFNDcPgjOpgFHa7LEYn6AGTJBCqfRDM91ACYxqfy2dddBVOpmAUQmy8dRz3fztkrgRLNB6Nsj0XXP/Sq5U+hM5gNaRTaS+5fLXUAIHZx/Il4ofpQMwcVKp1ElB5MskxaiBg26Fo3o2t2pVfr8H5SQCRiXKlYvX5kvhBbF6Le6u90kqkQVoeve4630jHiXyYfhWhldA63E5Z2BhNE+UVVtGtnHjdmCCFYvFO+T6KiUwqoPuWOyA96LmDCzgEJ0tdQwOpJ6jIPobl10g3lUAmuUoZaOk73oUu4ibsgOtLZVKJYLIQ0rgoHsG+WsLpdK3KQFMvEwmc4Rqtbxk86iBg2yMv5kvh3+1v//NAAuYANmjs/3eUf8rub9epmMoAjTg7lD6tUzfmLtly/fvXLNmE0mANtg/x1OvdfPLKIGDWJ4vhSdKikgBTI50PPkxM/0rJXCQBXuxUAr3+8mVDLCACZaJx5coCF4v12sk9VEEmNa94CoL9B3V6xcf6Hp6AC26T04mvyLXWyiBA+8q/KWFUolPSgMmUTKZ7I65ipK6qYEDqZseF4bhQ/v6fwywgEnS398/e0ZHxwvN9XrJz5WsgyrAlBg26SqZLs2F4W+04+wrAG0ok0jeI+nxlMD+uHR7oRQ+iX0FMPmyyeSH3PXvlMCBmOmFuTD80T7/H3mAKVhAZzJHWK32MpdeKdnpvPaACbdZ0jVmulwdHdfncrltJAHa26KFi+bXO7f/hX0uDnig5Pb8XLl4LSWAyZdOp7uCelRwqZca2P92WZ/IlcN9Xm7KDh2Y+g133Or+cslfJelJFAEO2XaT/zySLp+9ed6Plq9dvpEkAHbJJBIXSPYTSmD//I/5UunJdACmdNv8/yT7KCVwAEvzpfCcff0PBljANEr3p49RR/QSc3+JZEt4TQIHtUXSz8zth7XArw3DsEISAPs+SEp9QPL/oAT2x9xekSsXr6QEMHXi8XhPp1mZTyTE/vnGgVKpZ6lUe8x2mzhAY0ilUglzf9HOYdZpkgKqADt2YjL7iUX2g5lb5vyEM60AjEYmnrxaphdQAvvcs0jFeClctK8DJACTvH1OJj8r17spgf2JAju5WCzesfevc1NpoEEUi8WSpM9I+kwymTwqJr3A3J/nsmdKmk0htJnVMv3Yo+Da7dH2XwwODm4hCYAxMZ1CBOyX67NLGV4B06LD/TM16e18yBX2uwuPoiWS7njsrh1AQ+vv7589I5hxugXRhYr0IpkGqIIWdY+Zro2i4LpCuXCz+EQoAIcomUweFXM9SAnsx/CszXPjnNELTJ9MPHm5TK+gBPbN/y9fKr1r719l4gk0uJ1nnty485+/yyYSJ7v0HJmdL/en8c4Fmtg6mX7h7j+rSz8tlUocbAKYEB2RPdmNGTj2zVxfYXgFTC/34H/NIgZY2I/gifvcfhMGaF4nHnnk3I0z5z4tCKJz3e1cyZdQBQ2sLtntZn5jFAU39izo+fWyZctGyAJgomWTyQ+764OUwD5EUWDpnbduADCd2+p48vduOpUSeCzfmC+VuiRFu/8qZ24ATezONWs26dGzs7QoHk/Xg+A8uc6WdJakx1EJ03mQYNJdblpq0q+iIFhaKBSqj/zfMoEATNKy120JVyFjP37G8ApoEGYXS84AC/t6csxLp9PZQqFw/+6/ygALaCH3l8sFSV/Z+Y+SyeRxMemsnQOtsyUdRSVMokjS3TL9StLSbbXabwYHB4fIAmDq+ZNogP08Ny6mAdAYZm6ec/nWOZs+JekwamBvFkVPlLTHAItLCIE2kkqljg3cnyb30yV7mqTHSwoog0M6BJA2mXSbZDe7ot9tr9d/x8AKwHQ77uij+0Y6Oh+mBPbhwYFSGF/Kpw8CDSOTTH5FrrdQAo9l/5kvFf9t91/hDCygjRSLxRWSVkj6hiTF4/GeDrOnmfQ0KXia5KdI6qIU9iMv6Ta5fuce3BJfVbidgwAAjWZbMOP4gMsHsQ/u+gb7LaDBXpf14GILIgZY2Nez4/i9f4UBFtDGyuXysKSf7PxHkizdn86qIzpFbqfI/RQzPVGc1tuWTw9JfzTTH+uR/bGu+h93Pl8eUaARgAYUxPx45lfY15FQ4PVLyAA0lsKqwh+zieQdLp1EDexl8d6/wAALwB6Lu8JgYaWklZK+u+tY4JhE4tjI7ESPdJKZnSj5CZLi5GoJI5LudfmdpuBOC3SHB8Ht+Xz+L6QB0Jx7Ml/MXTKwN3Pdllu1Kk8JoPFEpsvNGWDhMTLJZHJWGIZbd/0CAywAB92nrCyV7pV0r6Qrdv1iPB7vmREEJ0aRzjLTh8nUVFab2/vqMd3V29t7z7Jly0ZIAqB1BMfzCYR4DPMriAA0po4ourJuwcfEuw/YU8zMjpV0xyObcpoAGI/swEDGg1iOEk3lT/lSuIQMAFpRJpF8UHzqLvbkUWCpYrFYIgXQoNvuZPIPcj2ZEthj4216dSEMd10ZxKePAQAAoDX09/f3iuEVHut3DK+ABuecJYnHCqTj9vpvAAAAoPl1WudiKuCxB8biwBhodB0dV4rrv/HY7Xd29/9kgAUAAICWEAt0LBWwN6t3/JAKQGPL5/OrzHUbJbAHBlgAAABoRZF7mgrYg+mu3OrcICGAJhDoeiJgd27K7PkUAQAAAFqASQywsLefkgBoEu4MsLC3vng83rPrPxhgAQAAoCWYlKIC9npOMMACmkSuVPqDpHWUwO46vOORywgZYAEAAKAluDHAwh42zJw79xYyAE2jLunnZMAeYhEDLAAAALSOxQsWz5O0gBLYzY3Lly/fTgagibhxGSH2FCm+618ZYAEAAKDpbZm5hbOvsBf7JQ2A5hKLRn5BBey5KbeBXf/KAAsAAABNL+iIuIE79nxOmN9EBaC53D84uFpSSAk8wpwzsAAAANA6Im7gjj1tWBmGd5EBaD4mu5kKeISLM7AAAADQUgvcOBGw2xPi99pxQ2gATSYyZ4CFR5gYYAEAAKC1FrhHUQGPPB+MMziAZuW8frGnvhOPPHKuxAALAAAAreFxJMAuURRw/yugSRWLxbslDVMCu2zqnPc4iQEWAAAAWgBnYGE3HgXRH8kANK1I0p/JgEcEI0dKDLAAAADQAlw6kgrYqRyGYYUMQPMy151UwKNPCDtCYoAFAACAJpfNZmdK6qYEJMnkfPog0OQi43WMR7kZZ2ABAACg+dXr9aMkGSUgSa6AMzeAZhfFeB1jt+eDGGABAACgJXD5IB7FmRtA09vu25dLqlMCO7brXEIIAACAFhCrM8DCbsc5UcSZG0CTGxwc3CIpRwnsEDHAAgAAQAuwHQtbQFK9a8GClWQAWoDrPiJAkmznfS4ZYAEAAKDJj3G4gTsesXrZsmUjZACan0lFKmCnbokBFgAAAJr9IMfsMCpgJw54gRYRSSEVsFO3xAALAAAAzX+U00UESJKcA16gVQRuDKSxk/VIDLAAAADQ9OtaHU4ESJIFDLCAVlHv4PWMXbxrxyYeAAAAaGKRnAEWdhzicAkh0DJmzJjB6xk7Wcexxx47jwEWAAAAmpsbAyzseCpE0SAVgNawYsWKDZIqlIAkbdu2bS4DLAAAADQ34x5Y2MFjsbVUAFrqVf0wDSBJM91nM8ACAABAUwvEAAs7zKjVONgFWojL1lEBklR3n8MACwAAAE1+gKPDqABJ2haLDVEBaB0mYygNSVLkHQywAAAA0PRmkACSbwzDcCsdgBZizhlYkCTFOriEEAAAAM2vkwQQZ2oALced1zV2iLiEEAAAAC1wiNNBA0gaJgHQWozXNR41iwEWAAAAmv0QhzOwIElcPgjwukar7ukj62CABQAAgGbHAAuStJ0EQItx53WNHU+FwGMMsAAAANDMgp3/oO2Pc7WNCkDLbeF5XWPnNt45AwsAAADNK5vNcvYVdhznGmdqAC2IARYkSeYBZ2ABAACgec3ZsIEbuEOS5DIGWECrva65hBC7ngsWcQYWAAAAmtfGuXMZYGEXDnSB1sMZWJDEGVgAAAAAWubohnuhAa0m8CBGBUiSmZyNPAAAAJrW7A2z61SAJMk1gwhAy5lJAkiSm9cYYAEAAKBpbZq7qUYFcKALtCiLGExj51PB6gywAAAA0LT6+vo4Awu7Dm840AVaD4NpSJKigDOwAAAA0MSWLVvGAAs7mDPAAlpMZAymsUPAGVgAAABo9uMbSU4GWMSZGkALbuF5XWPHU8EizsACAABA0xshAdw0jwpAazHzuVSAJAVRwAALAAAATW8LCSCpjwRAazHZfCpAkiKzzQywAAAA0OwYYEGS90kyOgAt9Ko2McCCJMmszgALAAAATW8zCSBZRzKZ7KID0EKcARZ2buGlLQywAAAA0OxHOAywIEmK1WIc7AKthUuDIUmqBwFnYAEAAKC5mRsDLEiSgo46B7tAa2EojR3bdwZYAAAAaHZuXEKInc+FyI6gAtAyAnEGFnaKbYlxCSEAAACanGk9ESBJLiWpALSGRf39j5M0kxKQpM6ezvUMsAAAANDsKiSAJLkxwAJaRS2YkaICJMmlTcuXL9/OAAsAAADNrkICSJLJk1QAWkPA6xmPbNt37OcZYAEAAKAlFraAJM7YAFqEG69nPPJsGJYYYAEAAKDp17VeJQJ2SpIAaA2cUYndVCQGWAAAAGhykdkwFbBTT39/fy8ZgObnUpoK2CGoSgywAAAA0OzLWmmICthldmfnE6gAtALntYydoqGd+3sAAACgmY9x/C9EwCOHOZFOpALQ3Bb19x8t2XxKYKc1EgMsAAAANLnAfQ0V8AjzE4gANLd6RwevY+y+p2eABQAAgOY3a9s2Blh4lHMGFtD0OJMSuzHnDCwAAAC0gDvXrNnk0iZKQJJcOoHjHKDJX8ecSYndBTtuFcCGHQAAAE3Pdt4fAzBpbro/naEE0MSvY7OTqIBHOAMsAAAAtI6HSIBHDn4DfxoVgOaUzWYPl+t4SmCXWBRxCSEAAABahGk1EfCIwE8nAtCcvFY7TVKMEthpZMWqVQywAAAA0CIHPG6rqIBHnxBigAU07wad1y92t1pSXWKABQAAgFZgzgALuzu+v7+/lwxAU27QGWDhEe4q7/p3BlgAAABohRVumQjY/Qh4Riz2VDIAzeVsqUPyJ1MCuwT26BnWDLAAAADQ/KIYZ2Bhz4MetzOpADSXUir1JMnmUQKPcGeABQAAgNYRxSIGWNjzmMd0PhWA5mJ1fzYVsMf+PeASQgAAALSQMAzXSNpCCezm5EQi8TgyAM3DGDxjb+6lXf/KAAsAAAAtscSVVCADdj8W7jB7FhmA5hCPx3skPYUS2EMsltv1rwywAAAA0BpcOSJgD5EuIALQHDqD4HxJMUpgN/XZs2eHu/6DARYAAABagxkDLOz1nNCzzpY6CAE0gUjc/wp7Ky1fvnz7rv9ggAUAAICW4OYMsLC3ntWp1GlkABpeTMYAC3syU373/2aABQAAgJbgkeWpgL1FUfQyKgCNLR2Pny3pSEpgj+2328rd/5sBFgAAAFpDTPcTAY9lLxX31QEa+1UaBC+nAvYW7HVmNQMsAAAAtIRisViWfCMlsJejMonE08kANKazpQ65XkQJPIbZ8t3/kwEWAAAAWoVLuo8MeOwzw15BBKAxDSaTz5S0gBJ4jO2xe3b/TwZYAAAAaB2+57u1gCTJ/CVn82mEQINut8WAGfuyPrc6t3r3X2CABQAAgFZyDwnwWDa/HE/zCWdAg+nv75/t4vJB7NNy7Tiz+hEMsAAAANAyXAEDLOyTBdHfUAFoLDM7Ol4hqZsS2Mce/TFnVDPAAgAAQMuIguhuKmDfx0L+nEX9/UcTAmik16W9mQjYFzN7zBtSDLAAAADQMsIwLEkapgT2cTjUUY/F/ooOQGNIJpPHSX4aJbAv7n773r/GAAsAAAAtteaVdAcZsO8nh72JYyCgMXREeqskowT2tbneVq8/Zl/OxhsAAACtteqV/YkK2BeTUtlk8jxKANMrmUzOctPrKIH9KA0ODg7t/YsMsAAAANBSAtefqYD98Uh/TwVgesWkN0jqowT2Y5/7cQZYAAAAaDF1BljYP9P5qVTqJEIA0/gqdL2HDDjAU4QBFgAAAFpfrly+T9JmSmB/grpzFhYwTbLJ5PMlPZ4S2B9z3b7PbTdpAAAA0GLqknMfLBzg6Eivzh6d7ScEMPXc/Z+ogAOpBX7bvn6dARYAAABaUPB7GuAAOhWrvYMMwNRKD6SfLNkZlMD+uFQMw/Chfe7ZyQMAAIBWYy4GWDjwQZLpbf39/b2UAKZQLPoAEXDA/bf2v/9mgAUAAICW453BrVTAQXTNjHX+IxmAqZEeSJ9irudRAgfeget3+/tfDLAAAADQcvL5/CpJqymBAx8n+XsymcwRlACmgEX/KckIgQOJYrbfN6AYYAEAAKBVcRkhDnw8Lc1VrfbPlAAmVyYeP91Mz6IEDmJbLBa7Y3//kwEWAAAAWpTfQgMcnL1zUX//0XQAJvNlFnyECDj480R/yOVy2/b3vxlgAQAAoCV5FPs1FTAKs6JYx/8jAzA5UvHUeZLOoQQOvuO23x7ofzPAAgAAQEsqrCr8WVKVEjjoMZP0llQqdSIlgAkXCwL/XzJgNCzQAd94YoAFAACAVlWX9v9pRsAeB9mRf5oMwMTKJFJvk+sESuDgvBabMeOA+2wGWAAAAGhZZvoNFTBKz8gmky8gAzAx4vF4jxT9OyUwGi5btmLFig0H+j0MsAAAANC6C2J37oOFMTxf9KlsNjuTEsD4dZp9WLL5lMBomPygbzgxwAIAAEDL6p4//zZJGyiBUUpHtdrfkwEYn2w8vliyv6UExuBXB/sNDLAAAADQspYtWzZi4iwsjJ65Ppjpz2QpARyywC32FUmdpMAobZ+7dStnYAEAAKC9udsNVMAYzFasfrEkIwUwdpl46h2Sn04JjMFNd65Zs+lgv4kBFgAAAFpaPdDPqYAxOjudSLyRDMDYpNPpuMz/kxIYCzeN6o0mBlgAAABoaWEY3iepTAmMhck+tai//2hKAGN43UTR5yUdRgmM8XnDAAsAAACQJJNupALGqKse6/gcGYDRSScSr5br+ZTA2PjD+XL5z6P5nQywAAAA0AbrY7ueCDgEL04nk1xKCBxEKpVKmOwLlMDY2Q2SotH8TgZYAAAAaH0zYj+TtJ0QGDPX59Pp9CJCAPsVBJF/XVI3KTDmTazp2lE/0cgFAACAVpfL5dZL9ltKYKxMmmv1+reXLFnSSQ3gsTKJ1PslnUMJHIL6jJGRUX/QCgMsAAAAtAU3v44KODR2SuXhhz9AB2BP6YH0KZJ/kBI4RDfdt3r1utH+ZgZYAAAAaAtBvX4tFXDo7P2ZRIKzTICdkslktwXR5ZI4OxGHxvWTMe3HKQYAAIB2kFu1Ki/pXkrgEMUkuzx7dLafFIAs5vqapAwpcKgC8zG9scQACwAAAO1zxGW6hgoYhyOijtr3s9nsTFKgnaXjyQ9IehElcMhcK1eWSmN6U4kBFgAAANpGVA9+QAWMh0lP8e21z1IC7SoVT51nJu57hXFx6ftj/TMMsAAAANA2CqsKf5RUogTGxfTWbCLxJkKg3aRSqURg0XckxaiB8W1GozG/ocQACwAAAO3EzXUVGTDuJ5Lsi9zUHe0km80eHkR+jWTzqYFxCvPl8p/G+ocYYAEAAKCtROIyQkyIGSb7fiqVOpYUaHVLlizpVK32fUknUgPj59+X5GP9UwywAAAA0FYK5cItkh6gBMZ9CCb1WuQ/zWQyR1ADrayydt3n3XUeJTARzOyQ3khigAUAAIB2E0nOWViYmAMxKaVa/ar+/v7Z1EAryiRSH5DprZTABCnnwvD3h/IHGWABAACg7ZjZd6iACXTarFjnZeLG1mgxmWTyDZJ/mBKYuP2vvqtDuHxQYoAFAACANpQLw1vlWkkJTBSXvySTTH6NYyy0ikwy+UK5f1WSUQMTpT6ON5DYuAIAAKA9mV9BBEwo1+vTidTnCYFml4qnzpPrcsk6qIEJdG+xWLzzUP8wAywAAAC0pbrZt6mAiWbyt2fjyU9TAs0qE4+fbuZXSZpJDUzw9vFb4/nzDLAAAADQlsIwvE/SnymBieamv0vHkx+kBJpNNpl8qiz4qUlzqYGJ3jTGpO+O5wswwAIAAED7rqZNl1IBk8FMH84mk5+gBJpFaiB1prt+JukwamDC97eu364olYrj+RoMsAAAANC2ZoyMXCZpGyUwSQds700nUl/guAuNLpNInBME0U8kHU4NTAYL9PXxfg02pAAAAGhb961evU7SjymBSTtok789k0h8mWMvNKpsPHWhZD+RbB41MDl846xNc78/3q/CRhQAAADtvaz24OtUwOSyv8kmUpcuWbKkkxZoJOlE4jVu0Q8lzaIGJm0LKLty+drlG8f7dRhgAQAAoK3Fy4XrJT1ICUwml7+m8vDQT9PpdBc10AjS8eR7THapZB3UwKRu/zz62kR8HQZYAAAAaGtLpZpxM3dMzWHcMy2KfpvJZAZogelyttSRSSa/YqbPMBPAFLg/Xy7fMhFfiCcrAAAAUK9fLCkiBCad6wTV6r/PxONLiIGptnjB4nmrEqmr5XoLNTBFG72LJPlEfCUGWAAAAGh7uVWr8nLdQAlMkcfJbGk6nn4eKTBVMpnMwLY5m26S/LnUwBTZ2lmrfWOivhgDLAAAAGDHyvjLRMDUsXlm0TXZZPITHJdhsh2TSj1dtfofXDqJGpi6zZyu3PlpvxO0mwYAAACgfBheK6lECUzl4Z273ptJJK+Nx+M95MBkPMfS8eR7oshvlHQUOTDFG7gJfWOIARYAAACwQ12yS8iAafCcTrM/pFKpE0mBibJ4weJ5mWTyip03a++kCKbYnblS6XcT+QUZYAEAAAA71RR9VdJ2SmDqWdYivyWdTL6RFhivVCp10tY5m/4g18uogengpi9N9NdkgAUAAADsVCqVHjTZ9yiB6WDSXHN9LZNI/uC4o4/uowgO5WmUjiffE0T+e0mPJwemyfC8LVsum+gvygALAAAA2I17/dNUwDR78UhH592ZZPLZpMBoZTKZIzKJ5HU7LxmcSRFM335UX75zzZpNE/11GWABAAAAu8mXy8sku5kSmGZHyfXjbDL5iWw2yzACB5RNJl+gWv1uSc+hBqbZSFDv+OJkfGEGWAAAAMBezPUZKqABBO56r2+v3ZVJJM4hB/a246yrxKXuulrSAopg2vef0vdyq3ODk7JBJC8AAACwp1y5eJVLRUqgQY4Ij5HsF5lk8ivZbPZwgkCSsvHUy1SrLZfsddRAo6gH9tnJ+toMsAAAAIB9rsH1eTKggZhcb/HttbvT8fTzyNG+FsXj6UwicYObXynZfIqgUbjrN8Vi8Q+T9fUZYAEAAAD7MGfLloskf5gSaCimAbPo2kwicUM2Hj+eIO1j4cKFc7LJ5IfqFtwt2bkUQcNtnsw/MZlfnwEWAAAAsA93rlmzycy+SAk06KHiuW7B7Zlk8rPpdLqLHq39w87GUy+b3TnjHnf9u6TZJEEj7jbzpdL1k/kXMMACAAAA9qej4/8kbSYEGlSnXO+2erQim0i8ieO71pNKpU7NJJK37LhcUAmKoFG5/L8l+WT+HWzgAAAAgP3I5XJrJb+EEmhwR7rsq5lE8u5MPPV6jvOaXzYePz6TTF4ZRH6rpKdSBI3MpWK8VLpisv8eNmwAAADAAURB8L+SRiiBJvB4mX8znUguy8ZTF5Kj+aRSqWMzieR33IK75HqZJKMKGl0g/9+lUm3y/x4AAAAA+1UsFksmXUYJNAuTTnbza7Lx5O/TicRzxBCk4aXT6UWZePIbQeTLJb2KY3U0kQdqZlNypnIHrQEAAIADCzz6z7rZ6yVj/Yym4aZTTfbjTDy50qUvRIG+EobhVso0jkw8vkRm71E9erVMMYqg+TY0+q+wNDXbFaa6AAAAwEHcXy4X5PYtSqApmY4x02dirjCbTH6ov7+/lyjTKsjGUxdmEqmbZMEfJXudxPAKTemhbVHt4qnblAHAGJwtdQwmk6e425mm6OkuO0NSN2WaTl6u3yrQr61e/21u1ao8SQDgwLIDAxkPgvs4CwvNzzdK+q5HsYsLqwq30WNqJBKJx3Wa/ZW73iwpTRE0/ZbE9XeFcvjZqfr7GGABOKAlS5Z0VtauPdEVnBuYn+GyMyV1UablPCTTbz3Szabopny5/GdJEVkAYE+ZePIbMr2BEmgh97rrmzPqI1+9b/XqdeSYcEE6nn6GBdFb5HqhpE6SoFWOH7bVa+nBwcEtU/UXMsACsIezd5xhdbq7PUuKni7ZkyXNpEy78Yclu0muX3kU/LQwWFhJEwDYdRZW7F4OQtGCNkv+A5eumD1v3g3Lly/fTpJDd0wyeXI90svN/HWS9VMErXe4oPfky+HnpvKvZIAFQNlsdoG21892iy6U7EJxSSAeqyDTjRbZjTO3zPnp8rXLN5IEQNvuNxPJL7r0NkqghVUkv9Y8+F7Xgt7rly1bNkKSUWwb4vHFCoKXyfUKl46jCFpYyTo7js3lctum8i9lgAW0p1g2kTjVpedIwQWSP4ntAcZgs8l/GZn9JJJ+GoZhSBIA7SSRSDyuQ5aTNIcaaH3+sMmuldv121W/oVwuD9Nkh7N3XrmgSM9204WSFlMFbcH0xnwYfmPq/1oAbeHEI4+cu2n27OeZ6/kunS+pjyqYIPdI/hNJV+VLpd9JcpIAaHXZePLjbnofJdBm6pLdKkU/NemnuVLpdrXZPTOzR2f71VF/tqRnu/xccW9YtOHaP18KT9yxPZhaDLCAFtbf3z97VtB5rlv0MkkvkmweVTC5fFBmP/Qo+F6hXLhZDLMAtKhkMtnd4cq71EsNtLENkv/ezG6OouCmrbWttzzwwAObW+kbXBSPp+uKnaHAT5frDEnH82NHm6/3X5wvla6ajr+ZARbQYnYOrZ7rgb9MrueJyxswfUqSfT8KdGWxWLxNDLMAtJh0Mvk+c32cEsAjRiQtc9mfzPxOc78zNmvW3StWrNjQ6A/8bKljMB4/1oPgBIt0kptOkvRUST38WIEdzPWHXDl86nSt6xlgAS2gv79/9oxY7AJze7mbnmfSXKqgwYSSf8+j2JWFVYU/kgNAK0gmk7MC1z0mpagB7JdLKsp1l8zvd7OiuYd1s6KkMAzDrVP4WIJMJnN0EEWpqK6ky1Myz5pssXbcv2oGPy7gQK9lPyNfKt0yXQ+AARbQxFKp1KlB3f9apleK6+/RJEy6z2Vfq5tfFobhQxQB0Myy8dRL3fx7lAAO2YMyDcr1sMvXmdk6ua0zRevcbJ1FFinw9VEU1IMgqnkUPXo2l9lM99iOqw2sfnjgQSyy6DBzmy/zBSbrc1Of3Pqk6EjJ4mJIBRzqGv47uVL4mml+DACaSTwe7+lU7GVu/jaTTqYImlhd8l+ZBxd1Lei9mo/oBtCsMonkrySdTQkAQIva4rHguEKhUJ7OB8EAC2gOQTqefoZZ/fWSvVTSbJKgxTwk05WR2SXFYvFOcgBoJqlU6qQg8mWSYtQAALQad/17oRz+x3Q/DgZYQANbFI+n6xb7a8n/StLRFEGbuMXkX5uzdevld65Zs4kcAJpBJpn8ilxvoQQAoMWUt4xsf3wjfMIoAyygAaXj6TMsiN4t14vFu7loX+tl+kZd+nQYhiE5ADSybDa7wEdq90vqpgYAoGWYXpkPwysa46EAaJSF70zfXn+FAv8nuU6gCPCIyOQ/iTz22UK58AtN08f2AsDBZBKJf5Tsk5QAALSIW/Kl8IxGWX8zwAKmWSKReFyn2Vvd/R2SzacIsH8u3W5uX9oWjVw2ODi4hSIAGsnixYtnbN246S5Ji6gBAGhykUfBUwurCrc1ygNigAVMk0w8vkRm75HslZI6KQKMyVozfc1jsS/k8/lV5ADQKLLx1IVufg0lAADNzGWXFErFNzfSY2KABUzxay4dTz/XLPp/kp5KDmDctrvssiCqfTy3alWeHAAaQTqe/JmZnkUJAECT2lA3LQrD8KGGOpjm5wJMiSCdSLxIsn8z6WRyABPNay5dHrh/PFcu30MPANMpmUweF3PdLmkmNQAAzcbk/5grlT7VeI8LwGQKsvHUS9z8Q5KOJwcw6dzkP46i2H800vX6ANpPOp78oJk+TAkAQFMtpqXb46XwyUulWqM9NgZYwCRYsmRJZ2Xt0Ktk/n5Jx1IEmJbd741m9oFcGN5KCwBT7Wypo5xI3saZ1wCAJlo/10x6Sq5U+lMjPjoGWMAEWrx48YxtGze+2WXvlRSnCNAQO+Iboyj4j+Kq4m9pAWAqHZNMPiVy3SwpRg0AQMOvml0fL5TD9zfq42NnCkwMy8ZTL6uNbL9KstdK6iIJ0DAvz7SZ3tjb3XVGX3f33UPV6kM0ATAVhiqV1b093b3ig1sAAI3OtXJ7VHvV+vXra436EDkDCxindDx9rln0X5KeRA2g4UUy/cDq9X/lUwsBTIWFCxfOmd054y5JaWoAABqUu0fnFcrlXzTyg2SABRyi9ED6yRZEn5D0DGoATWdEpq9HZh8sFotryAFgMmWSyWfL9VNKAAAakumifBi+tfEfJoAxSafTiyyKPirXS3kNAc3ON5rZF9TR8bFcLreeHgAmbf2QSFxmO24zAABAI3loxKPjy+XycKM/UA6+gVFKJpNHxSJ9SOZvkqyDIkBLedBN/xEPw68ubcCPDAbQ/BYtXDS/3rn9HkkLqAEAaBQuf0mhVPphMzxWBljAQZwtdZTjyXeY6cPi5uxASzPpvrrbu4vl4g3UADDR0onEa0z2LUoAABpj7evX5UqlC5torQ5gfzKJxDMk+7yk46kBtA036buxqP7PK1ateoAcACZSNpG41mXPowQAYDqZNBSL6ic003qXARawD8cODCysBcEntONeFbxOgPa02Uz/o46Oj+dyuW3kADARstnsAh+p3SnpKGoAAKaN6ZX5MLyimR5yjJ8a8KglS5Z0zu6c+S4Pgh9K9mQxvALaWaeks1WPXtHT3ZUfrlZXkgTAeA0NDW3u7eleLuk1rDMAANPBpK/lS+HHmu1xM8ACdkrH48/ctmXrNWZ6naSZFAGwcw/fZ7LX9HV3nbKgu/vWddVqhSgAxmO4Usn1dPcsMOlUagAApli+Y9bMF61bt2578y3LgTaXSCQe1yH7gqQXUQPAQWyR60MD5fBTS/m0QgDj0N/fP3tmrOOP4j6bAICpMxIFdkaxWPxDMz54Blhoa9l46mVu/iVJfdQAMIad5x3u0Zvy5fIyagA4VJmBzBMU1G+TNIsaAIDJX8P6/8uVSh9r1sfPJYRoS8lkMjm/u/tKl94naQ5FAIzRUTL9dV9Pz9ze+fN/OzQ0VCcJgLEaXj/8l97urq2SPYsaAIDJ5TflS6W/keTN+h0wwEK7sUw89ZZAfrVkjycHgHFsTgJJZyiqv7Kvp+fOoUqlRBMAYzVcrd7a2919qqRjqAEAmCSVKAieValUhpt69c3PEe0i05/JKlb/qqSzqAFggrlMF8/aNPcfl69dvpEcAMbi2IGBhbUguEOy+dQAAEz4QtX06kIYfrfZvw/OwELLW7JkSeecGbPeryC6XFKGIgAmgUlaUusceWVP1+HLh6vVIkkAjNa69es39Pb0rJT0SmoAACZ4lXppIQw/0grfCgMstLR0Or1o26ZNP5H0WkkdFAEwyXrM7HW9Pd29Xd3dSyuVCp9UCGBUhiuV+3q7uo+S6RRqAAAmhGtlx6yZL1y3bt32Vvh2An6iaFWZeOr1Vq8vk4yFIICpZHK9O+ZadkwyeTI5AIxW94K+d0t2MyUAAOPl0iZ57MUrVqzY0DqLbKDFJJPJ7pjrS+I0fADTb6u7PlQoh/8jKSIHgIPJZDIDqtX/KOkIagAADpnbG/Ll4qWt9C0xwEJrLfoSiWdIdqmko6kBoIFWEDd2RNEbVqxa9QAtAIxiPXOOpJ9Lxu0PAABjX3lKny6Uwn9ote+Le2ChJSxZsqRz7syZH5Tsq5K6KAKgsVg6suD1fYf3rBhaX1lBDwAHMlythr3dvVslnUcNAMAY3TJ73tzXrV27tt5yK2p+tmh2yWTyuJjr25KeRA0Ajc8vm7t169vuXLNmEy0AHGidnkkmL5fr5aQAAIzSQx1RfUmrnvXPTdzR1LLx1OtirmVieAWgeY5JX7dp1qxbU6nUsbQAcAA+a9PcN0m6hxQAgFHYLvlLWvmWFZyBhaaUzWZneq3233K9mxoAmtQGc3tTrlz8HikA7E86nV5k9egP4hYJAIADcNPbC2H4pVb+Hhlgoelkj872e0fte5KeSg0ALbAnvqi7r++dy5YtGyEGgH2ufQZSz/fAr2btDgDY93LSvp0rFV/b6t8nN3FHU8kkEuco8J9LOo4aAFrEkq1btpx9eFfX9dVqdSM5AOxtaH1lRU9X90wznUkNAMDuTLpj88j2F27YsKHl3wzlHlhomudqJpH6gGQ3SDqSHABaiuvMDtmydDx9BjEA7EuhHH5ApmsoAQDYzUP1wF7wwAMPbG6Hb5YzsNDwstns4T2HHf4dSW8XQ1cAresws+j1PV0924erlVvIAWAvPnfevB/FguBck/rJAQBtb0tguiAfhsvb5RvmOno0tFQqdZJFfpVJKWoAaBumK+du2fLXd65Zs4kYAHaXTCaPirlulZSgBgC0rbpF9uLcqmJbnZnLAAsNK5NMPluuKyQdTg0A7cakO6JY8PxCoVCmBoDdZePx492CmyT1UAMA2pDrPfly+Ll2+7a5HAsNKR1Pvkeu68TwCkDbrkt0ktWj36UH0qdQA8DucuXyPWZ6kaRt1ACAtlsjfrodh1cS98BCgzlb6ggSqc+Z6YNiwAoAh8n8Nb3dXfcOV6v3kQPALkOVSqmnpztv0ovFVRUA0BZMfl2+VHqTJG/H758BFhpGPB7v2djdc61Jr6AGAOxaqGiGZC/v6+m2oUplKUUA7DJcqdzd19MdSDqLGgDQ6vyPc7dufd6aTZva9uxbBlhoCNmBgUwQxG6UdCo1AOAxTNLZfd3dicf1H/3TtWvX1kkCQJKGKpVf9/Z0pySdRA0AaFlhFATPWDE4ONzOEbhEC9MuE4+f7kHsd5IeTw0A2D+X3rh14+ZfZrPZBdQAsGvT0N3X92bJfkEKAGhJVUWxC4vF4pp2D8H18phW2XjqtW5+iaQZ1ACAUR+v5iyKnp1btSpPCwDSjlsxdFqwVNKJ1ACAlrE5COyClcXib0jBGViYRpl46l1u/k0xvAKAMbKsB7Gbj0kmT6YFAEkql8vD1tlxrqR7qQEALWG7y1/O8OpRDLAwLdLx5Htl/jmegwBwyI6MXL86JpV6OikASFIul1sbq9fOc6lIDQBoanVze12hVPoxKR7F8ABTLZZJJr9ipk+QAgDGrTuK/OfpROIlpAAgSfcPDq5WLDhbUpkaANCU3ORvzZWLV5JiT9wDC1Nm8eLFM7Zu2vQtuV5GDQCYUHWT/W2uVPwqKQBIUjqdXmT16NeSjqIGADQNd9PbC2H4ZVI8VowEmAqLFyyetyXadLVJz6cGAEy4QNKFPV3dW4erlZvJAWB4eHhdd2/PDYHrFZJmUwQAmoDrfYVS+FlC7BsDLEy6444+um/bzPrPzHQWNQBg0piZzu3t6e4drlR+Rg4AlUplTV9P969deoWkmRQBgMblrn8vlMOPUWL/GGBhUmUymYHI7TdmfKQzAEyRp/R09/QPVyvXSXJyAO1tqFJZ3dfT/TvtGGJ1UgQAGpF/slAu/RsdDox7YGHSZDKZAdXqv5KUoQYATLnL86XwtZLqpACQiqfOC8yvFWdiAUBDMelruVL4ZvHG40FxBhYmRTqdjls9WiqGVwAwXZ7Q29OdHK5UrmVBBKBSrRT6unrukOlFkjooAgANwPWVfDn8W9Zqo8MZWJhwO4dXvxTDKwBoBJcPlMLXLZVqpACQTSbPcte1kg6jBgBMJ/+/fKn0bjG8GrWABJhIO4dXXDYIAI3jlaviyW+dzRkXACTlwvDXHgXPNGmIGgAwPcz0X/lS6V1ieDW2biTARNlteJWmBgA0GNcVA+XwtUs5EwuApGwi8SSXfibZfGoAwBSuyGT/ki8VP0mKsWOAhQnB8AoAmmKvf+VAGL5mKUMsAJKOSSQeH8lukHQ0NQBg0rlcf5cvh58jxaEuZYFxSiaTyZjrV5KS1ACAht/xfydXCl8vPp0QgKR0f/oYi0U3SopTAwAmi9fMg7/OlYuX0WJc61jg0GUymSNUq/9W0iJqAEDTLKIuy5dKbxD3XQCgnWfS16IbZTqGGgAw4bab22ty5eL3STE+MRJgHIudLtWjX5i0mBoA0EzspN6e7p7hSuV6WgAYHh6udvf2XGnS+ZKOpAgATJhtZnpFrhReRYrxY4CFQ7Jw4cI5nRa73qRTqQEATekpPV3dW4erlZtJAaBSqWxaMOeI73lH/RxxTywAmAhVMz0vF4Y/I8XEYICFMVuyZElnfdv2H0p6JjUAoHmZ6Zm9XT0PDFcrf6IGgHUb1m3u6u6+LDAtEmfYA8B4rA5Mz8qF4a2kmDgMsDBWwZwZM78l6UWkAICmZzI9p6+r596hauUecgCoVCq14UrlB3093ZJ0NkUAYKyLK91htY5n5FYV7qfGxGKAhTHJxpOfkunNlACAlhHI9IK+nu7bhiqVPDkASNJQpbK0t6vnQZlfIFlAEQAYBdfPOmbPvGBlceXDxJh4fAohRi2TSPyHZB+gBAC0pM2Sn5cvlW4hBYBH1n/J5LPlulLSYdQAgAMwXTQQhu9YKtWIMVmJgdEsXuKpd8n8c5QAgFbmD9fNzgzD8D5aANglPZB+sgXRNZKOogYAPEZkpn/KheGnSTG5GGDh4IuWROI5JrtGXHIKAO0gVEfsKfl8/i+kALDLov7+o6NYx49dOokaAPCIrTL9VT4MryDF5ON6dhzQMcnkySZdIYZXANAukqpFP0wmk7NIAWCX+wcHV8dmzTxT0vXUAABJ0jp5dC7Dq6nDAAv7dezAwMLI/VrJ5lEDANqJn97hukScqQ1gNytWrNgwa97cF7jsEmoAaPO10t0d8ifny+WbaTF1OKsG+9Tf3z87FnRcL7PHUwMA2tIJfT3dGqpUlpICwC5r166tD1cr1/R29RRlerakTqoAaDOXz9269fn3rF7N7RamGAMs7EuwoKf3CpnOJQUAtLWz+rp68kPVyp2kALC74Wrljr7urp9Kdr6kbooAaH1ec7f3F8rh36/ZtGmEHlOPSwPwGJlE4r8l+2dKAAAkbTfT+bkwXEoKAHtbtHDR/Hrntu9KxhufAFrZWvfoVYVy+RekmD4MsLCHdDL5RnN9jRIAgN2sUz321PxgPkcKAPsQyyaT/+muf+H4AkDr8T96LPaSQqFQpsX04ibueEQmkXiGub5CCQDAXvoUq1+TTCa7SQFgH+q5MHyfub1S8o3kANAqXPaFWfPmnc7wqjHwDgkkSZlMZkC1+jJJC6gBANj3osGvy5VKL5AUUQPAvqRSqWODyH8o6XhqAGhiW13+jkKpxNVJDYSbuEPZbHam6vXrJR1DDQDA/tmi3u6ukeFq9be0ALAvlUpl3RFHHXmZ16JFYogFoDmVPQouKJTDH5OisTDAgnoOO+xLkl1ICQDAwdlZfb09tw5VKnlaANiXdevWbR+qVr7X09NdMelsSR1UAdAcyxxdOeLR88JVIeuchvzxoK1l46nXufmllAAAjGHxMBSTn7KiVCpSA8CB15rx42XBd1w6iRoAGtgGuf1Tvly8iBSNizOw2tgxyeTJLl0tqZMaAIAxmF2XnTX3sHmXrl+/vkYOAPszVK2uPbyn+xsxU6ek08Qb6AAajek2rwfnF1YVbyBGY2OA1ab6+/t7Awt+Ydy0HQBwSGs9HdURWHy4Wr2KGgAOpFKp1IYqlRu7u3p+Z6ZnSjqMKgAaQN1M/9Pd1/fae1bcs5YcjY8BVnsKFvT0/sCkJ5MCAHDo7KS+7p7VQ9XKn2gB4GAq1Uqhb8H8y9yj40w6liIAplE5COyFuTC85MEHH+TTlZtl5UmC9pNJpP5T8vdTAgAwAbZ5FJxZWFW4jRQARr0ejade7+ZfNGkuNQBMKdP3RqLoreVyeZgYzfajQ1vJJpPnu+un/OwBABPFpWLQ2XFyLpdbTw0Ao16XxuOLZcG3ucE7gCmy3tzekSsXv0WK5sQlhO20SMhmF3g9+pm47wAAYAKZ1GORx4eqlR9SA8BoDVWra3sXzP+6orokexrHJgAm0fVRYM8tlIq/JUVTrznRLj/rTDJ5tVzPJwUAYDK4/LWFUunblAAwVpmBzBM8qH/VpKdQA8AEGpbb+/Ll4sWSnBzNjQFWuywKEql3Sv55SgAAJo9v9HrsSYXBwkpaADgEQSaeerPMPymuGAAwXqbvWUfHO3K5HJ8w2DI/UrS8bDy+2C24TdJsagAAJnllcVt3X9/py5YtGyEGgEORTCaTsUhflul8agA4BA/I9I58GF5NitbCdeYtLpvNzlTkP5XUTw0AwBQ4etuWLT5UqSwlBYBDUalUKsPVyrf6unrukels8UmFAEYnkunijlkzn78yn7+THK2HAVaL6znssE9Lxn2vAABT6cy+nu7fDFUqISkAHKqhauWew7oO/2ossB5JSygCYP/8bjN7YT4Mv7xu3brt9GhNXELYwtKJxHNMdh0/ZwDANCjVTSeHYVghBYDxyiQSF0j2RUlJagDYzRbJPj5r3pz/Wr58OYOrFscZWK26k89kjrDIfyZpHjUAANOgO5CSw9XKD0gBYLyGq9Xc3MPmXdQR2BaXPcWkGVQB2pzpe3XTC4ul8Jq1a9fWCdL6GGC1qJ7DD/+GyZ5MCQDANHpCT3fX3cPV6r2kADBe69evrw1Xq7894vDDvhEFwWGSniiuNADa0Z+DwF6ZC8NPViqVCjnaBxv8FpQdSD3fA/8RJQAADWCtdXYs5iOsAUy0TDy+RBb7rOSnUwNoC+vc9ZFCOfw/SZxx1YY4A6vFHHf00X31WHC9uHQQANAY5iqqHzVcrV5FCgATabhafXC4Wvl6X1fPcplOldRNFaAljcj0BY8FLyqExV9LcpK0JwZYLebw3t6LTHYaJQAAjcNO6uvpvn2oUllBCwATbahauWf23DkXdQSxDWb+VMm4PxbQMvxGc39hvlS6bHh4eBs92nxFSYLWkU4knrvzUwcBAGi0Beigx2JPKBQKVVoAmCypVCoRuP+3XC/jWAdoassjt78vlos3kAK7cAZWi8hms4er7j+RqYsaAIDGY4ebR33D1eq1tAAwWSqVSnW4Uvl+z+G9Pwksepxki6gCNBHXKsn+ZaAcvvX2aiVHEOyxmiRBa8gkEhdL9mZKAAAaeVlqgT07Vyz+nBQApkI6nj7Dguhjcp1JDaChlwgPu9sno0CfDcNwKz2wLwywWmPHfK5Z9HN+ngCAhl+eSsV5W7eccOeaNZuoAWCqjnkyicQLJfuIpMXkABpKRbL/nbV5zmeWr12+kRw4EC4hbHILFy6c07njUwd7qAEAaPijSKlnpLNz7nClcj01AEyV4Wr1vuFq5ct9XT33yPzxkh1BFWB6X5bu+oQ6glcVwuINazev3U4SjGIdiWaWSaQ+Kvn/owQAoInUo8CWFIvFO0gBYDqOgbLx1PPc/EOSnkQOYEptMNMXa9InwjCskANj2niToHll+jNZxep3S5pJDQBAc/Gb8qXS0yU5LQBMkyCdSLzIzN4r15PJAUyqtZJ/1jo7P5/L5daTA4eCAVYTyyRS10n+XEoAAJpyEeL2+ly5eBklAEy3nTd7f7dcLxa3WQEmUuiuz2ytbb/4gQce2EwOjGvtSILmlE0mX+CuqykBAGhia+qm47iEAECjyPRnsuqov0uuv5E0myLAITLdpcg+OVAufmepVCMIJuZphabT398/e0asY7lJKWoAAJp6IeL6TK4c/j0lADSSVCp1ZBBF75TsbZL6KAKMikv6mQX26VyxeIO4TQAmet1IguaTTSY/5K5/pwQAoAXWurUoCE7hhu4AGnLdnc3O9O31V5j5v7p0HEWAfdom+ZXm/l+5cnk5OTBZGGA1mUXxeLpuwd3ilGYAQOv4db4UniPeqQXQuIJ0IvEiub3bTE8nByBJKpnpKx0jIxfdt3r1OnJgsjHAajLpZPIac11ICQBAK3H5awql0ncoAaDRpVKpY2Pub5Trb1zqpQjaTCT5L82Di/rLxauWcn8rTCEGWE0kk0hcINlPKAEAaEEPzNo899jla5dvJAWAZnDikUfO3Txrzqtc+lvJl1AELe4hyb4WBbqoWCyWyIHpwACrecQyieQdkhaTAgDQkosS04dzYfghSgBoNtl4fLGC4HXu+mtJCyiCFlGX/FfmwUVdC3qvXrZs2QhJMK1rRRI0h3Qi8dcmu4QSwETukLVuxz+2Weab5b5tx4YxqLp5tNvvnSn3OTs3m/Mk65S8R9J8SYeTEpgovjEKgmyxWFxDCwDNKJvNztT2+vPd/K8knS8pRhU0oXsk/1oUBN9in4xGwgCrCfT398+eGYvdL1k/NYBR2SCpKFMoqeiRikGgUO5/iWKxddu3b394cHBwaCL+oiVLlnSuW7euryOK+hQE8yP3fpOSkpJSkJI8KSkuqZMfC3BwLvtioVR8ByUANLtjBwYW1mOxV7j7qyU7hSJocA+4dIWi4LuFVYXbyIFGxACrCaTjyfea6ROUAB5ji2T3mPyOyHSXouiuYMaMO3O53NoGe5yxTH8m5bHaiYHZie46QfITJUtLCvgxAnsY8XqwuDBYWEkKAK1i543fX+WRXi3TMRRBg6iY9MPIo+8UyuWl2nGFAtCwGGA1uOOOPrpvpKMzJ6mbGoBWyPU7M79J7r/LlcsrmnlHu3jB4nmbZ21+osX89MD9dJc9TVIfP2awOtH38mH4ckIAaEWZeHyJKXipSy9hmIVpUJH8WouC72tm7Ge5XG4bSdA8S0Q0tHQi9b8m/wdKoE3d47LrA/PfeCz2u3w+/5dW3yYfk0gc5wpOd/kzJD9Psvk8DdCGPArsqcVi8Q+kANDKUqnUSUEUvUSyl0g6niKYJOtcdrUp+sGsefN+sXz58u0kQVMeLJGgcSWTyWTMdZ+kmdRAmxyzbpTbLxTop5HZ9XxEr2LHJJOnuPQcRXq2m04RlxyifSzNl8JzyACgXaRSqWODSBdK/lzJz5CsgyoYhxWSX2tmP+4Pw5uWSjWSoNkxwGpg6UTiMpO9lhJo8Y3QUCS7Kgh05cw5c5byjtD+ZbPZBRqpv0DmL3fXM8QnG6HFufx5hVLpx5QA0G7i8XhPZxCcb64LfcenGXKLARzMdsl+6+bXWS12XX4wnyMJWvDYEY3omGTy5Mi1TJxtgdZUletqN7+yZ/78G5YtWzZCkrHJZrMLolrtJeZ6haQzxTALrblKuSsfhk8UN5UF0N6C9EB6SRDUz3PZeZJOkzSDLJB0j0w3uPvP523d+us716zZRBK09tIQDSmTTP5IrudTAi3EJf+FeXCxZsR+xA0jJ86xAwML60HwVy57k6Q0RdBSGw7Tqwth+F1KAMAOJx555NyNs2adJdm5Jp0l6STxRla7KEv+a5n9Mlar3XD/4OBqkqCdMMBqQDtu5uh/5ueDFvGQmb6pev3i3KpVeXJM7jY9HU+fbkH0OrleJ2k2SdAC7smXwhMkRaQAgMdavGDxvC2ztzw1CKIz3P10yc4U99BtFQ/KdJMiu9FUvzlXLi8nCdr6YIcEjSedSHzPZC+lBJp883KzK/p0z/z513CJ4NTbeYnhm8z1bkmPowiamctfWiiVfkAJADi4hQsXzpk7c+YpUd2fKtNTJT2VtUAz7Ou0yaQ/mulWSb+rSb8Pw/AhygC7HWGSoMEOOuPxxW7BneLeV2hOdZdfFZj9by4MbyXH9Fu8ePGMrZs2vVru/yjZEyiCJl3U314ohU/a8a8AgLFKp9PxoOZPVeBPiiI90UwnSzqCMtNmi0t3mut2BfpzIP3+6DC8eymfFAgcEAOsBpNJJL8j6VWUQJPZLPnXYu6fvr9cLpCjMbf3mWTyfLn9k+TPJAea7gns9vxcuXgtJQBgYizq7z+6Fsx4opmfLPMT5H68ZIvEDeInWknSvZLf7dLtgfvtuXL5PvEBJcDY14MkaBzpdHqR1aN7xE0Y0Ty2SX5RTfp4qVR6kBzNITWQOjMI/CPaceNXoFlWLLflw/BUQgDA5FmyZEnn+ocfzroHiyP58WY6TqasuTIu9VLoQGti5WXKyf1+l+71ILh7xowZ965YsWIDeYCJWg6iYWTiyW/I9AZKoAmMyPR1xWIfzefzq8jRnNLx9Llm0Ue0494YQDOsWi7Ih+H1hACAqdff39/b2dmZtSjKmoKMFA1INiApLnlcsnktvfaVVsu0yt1LcltlsqIsynksli8UCqvEZe7AFCwF0RAWxePputkKyTqogQbmJvtO4PUPcqlg60gnEs816RPcIwtN4JZ8KTydDADQeOLxeE9H1NFvHdHRFtkCt+gIKXiczBfIdYRkCyTvManbpZ4GOBbdIFdFgSpyDcn1kMz/IgV/MekhRfqLYv6XWL1eXrFq1UPi03CBaccAq0FkEomLJPsbSqBhNxauPyjQe7g5e2s6W+oYTCTe6rIPS+qjCBqXPzNfKv2SDgDQ3NLpdJe7d0vqjrnPjqJgXiCfLWlWZNFh5kGHy3v2WI+azTDzuY/sEdy3u9um3X9PYL7RPRgxqRJZVJPH1rv7tsDqmxV1Vjt96/B9q1dXxD2ogOY7JiXB9Msene33jlpe3DARjekBuf1rvly8TJwa3fLi8XhPZxB8SK63SeqkCBrQL/OlkA8iAAAAaDMBCRpAZ+2dYniFxjNirk/M3bplUb5cvFQMr9pCuVwezofhewL5SZJ+RRE0oGcck0yeTAYAAID2wqfdTbOFCxfO6Qhil0maQw00CpduVxS8ML+qeNmaTZtGKNJ+hqrVh4erlUt7u3oKMj2dbRQaahvlmjVcrfyIEgAAAO2DM7Cm2awZM94g7jeDxrHFXe8rlMJTCqsKfyRH2/N8uXhpFNhiyS8jBxqG6VXJZPIoQgAAALQPzsCa5iV4b1f3NyUtIAUawC9jHl2QK5euE5cLYjeVSmXTcLV6VW9P9x2SzpY0jyqYZh3m2jhcrfyaFAAAAO2Bm7hPo0wicYFkP6EEptmImT6WC8P/EB8PjIPIZrMLvFb7qlzPpwam2V/qpkQYhltJAQAA0Pq4hHA6ub2HCJhOJt1n8qfmwvBDYniFUcjlcmvzYfgCub3BpU0UwTQ6Iia9kgwAAADtgQHWNEmlUsfK9CxKYPr4ZXO2bjklVyr9iRYYq3y5eGlkOkUSzx9Mp38QZ5MDAAC0BQZY0xW+7n/HohvTZL3kL86XSq+/c80azqDBIQvD8D7r7DhNri9TA9PCdUI2mTyLEAAAAK2Pm7hPg3g83hOYfcOkGdTAFLvfPHpWvlz+DSkwEYaGhurD1cqP+7p68jI9W1InVTDFuoerlSvIAAAA0No4A2sadFrsTSbNpQSmksu/3zFr5im5cnk5NTDRcuXit0x+pqSQGphiF6ZSqQQZAAAAWhsDrGlg8jdRAVOoLtd7C6XSy1esWLGBHJgsuVLpT521kVPMdAM1MIViMfc3kgEAAKC1cQ+mKZaOp88wi35LCUwFlzYFptfkwvBH1MAUiqUTqc+Z/O2kwBRt7QbzpVJSUp0WAAAArYkzsKaYKeLsK0yVhxQF5zC8wjSoF0rFd7jr7yRF5MAU7F37s8nkuXQAAABoXQywptDiBYvnyfyllMAUuKduelphVeE2UmC6FMrhZ13+cklbqIHJ5hJvEAEAALQwBlhTaOvsza+SbB4lMMmW1k2nh2EYkgLTrVAq/UAenWfSEDUwqVwvyGazCwgBAADQmhhgTeXa2rh5OybdT7fVa88Jw7BCCjSKfLl8szw6U9ID1MAkmqFa7bVkAAAAaE0MsKZIZiDzBJOeQglMFjdda50dLxocHORyLTScXLl8TxTYM+RaRQ1M2nbQuYwQAACgVTHAmiJmdRbVmEzfjYfhi3O53DZSoFEVi8UVUczOlDxHDUySxcckk7xZBAAA0IIYYE3Fanrx4hluzmUNmCR+cb4UvnapVKMFGl2xWCzF6vWzJa2gBiZD5P5mKgAAALQeBlhTYMvGjc+TbD4lMOFc38yXSn8rKSIGmsX9g4OrY/XaMyUVqIGJZ6/o7++fTQcAAIDWwgBrKpbSZq+kAibBDwfK4ZvF8ApN6P7BwdUeC86RVKIGJthhM2Kx55ABAACgtTDAmmQnHnnkXHexkMbEcv3MOjtevZTLBtHECoVC2evBeZIeogYmkpm9ggoAAACthQHWJNs4e/bzTZpLCUzgodkv6oFeyA3b0QoKg4WVXg+eZdIQNTBhXM9dvGDxPEIAAAC0DgZYk8wi8S4wJtKfZ22e88IwDLeSAq2iMFi4K/LgBZJ4XmOizNk6d9PzyAAAANA6GGBNomw2e7hM51MCE2S11Tqev3zt8o2kQKsplAs3mdvrxT3dMFFcLycCAABA62CANZlr5+31F0qaRQlMgA1RYM/Nrc4NkgKtKlcufs9M/0YJTJAL0ul0FxkAAABaAwOsyWTO5YOYCCMW2EuLxeIdpECry4Xhx132RUpgAswKan4hGQAAAFoDA6xJEo/HeySdSwmMm9s7c8XizwmBttl+lorvkfxGSmDcLOKNJAAAgBbBAGuSzDB7saQZlMD4+MX5cvEiOqCdLJVq2+r1V7hUpAbGtQWVnd/f399LCQAAgObHAGuyFs1uL6MCxsV0m3V2vosQaEeDg4ND5tHLxCcTYnw6Z3Z0cBkhAABAC2CANQlOPPLIuTKdTQmMw7q69PJcLreNFGhX+XJ5mbm9hRIYD3d/HhUAAACaHwOsSbBp9uzzJM2kBA5R3QJ7dRiGISnQ7nLl4mVyfYUSOFQme9bixYu5pB8AAKDJMcCaHBeQAOM43PowN20HdntFzOh4j0l8CicO1eFbN248gwwAAADNjQHWJBxryf05ZMAhPn1uzpeKH6MD8KhcLrdNHr1a0mZq4BDxxhIAAECTY4A1wY5JJk+SrJ8SOATVuvlrJdVJAewpVy7fY/J/oQQOjT2XBgAAAM2NAdYEc86+wqE+d+Tv4L5XwP7lSqUvuulaSuAQPD47MJAhAwAAQPNigDXBXAEDLByK7xZKpW+TATjwJtZisTdLWkMKjP3J08H+GQAAoIkxwJpA/f39vZI/lRIYo4e21WvvJANwcPl8/i8ufwclMGbm3AcLAACgiTHAmkAzYrFnS4pRAmM7prJ3Dw4ODlECGJ1CqfQDSVdRAmN0zsKFC+eQAQAAoDkxwJrQmFw+iDFy/ShXLn6PEMDYdET1d0qqUAJjMGtOx8xnkgEAAKA5McCaQC5/BhUwBuut3sGlg8AhWLFq1QNyey8lMKb9dOAMsAAAAJoUA6wJkkwmj5P0OEpg1AdSpvfmVucGKQEcmny5eLGkX1MCo97uus6iAgAAQHNigDVBYmJRjDH5UyEMLyIDMC4eyN8maYQUGA2TTkwmk92UAAAAaD4MsCbsMIoBFkb/bIki+ztJESmA8VlZKt0r+VcogdGue4IoOIMMAAAATbiQI8EEcbEgxqiY9N3iquJvKQFMjBH3D0paRwmMahtsdd5wAgAAaEIMsCZApj+TlWmAEhiFLfXA3k8GYOKUy+VhuX2YEhgVMwZYAAAATYgB1kSshWM1FsMYFXf9V7FYLFECmFgD5eKXZLqLEhjFhviJ2Wz2cEIAAAA0FwZYE7EWNns6FTAKa+Zt2/JJMgATb6lUs8j+HyVwcNbhtdppdAAAAGguDLAmAjdwx2ieJq6P37lmzSZKAJMjVy5e69LvKYGDbo8j8cYTAABAk2GANU6ZTGZAUoISOIgHt0e1i8gATPJOzfTvVMDBmPHGEwAAQNOt9UkwzkXwSMQiGAflpo8MDg5uoQQwuXJh+DPJb6IEDuLJ/f39s8kAAADQPBhgjZNbdCoVcBCl2XPnXkIGYGpEUcAnfeJgOmd1dJxEBgAAgObBAGv8nkgCHJDbfy5fvnw7IYCpUVxV/K2kX1MCB942+xIiAAAANA8GWOMTcxkDLBzIX+qBX0YGYGq5/H+ogAMzBlgAAABNhAHWOGTj8eNMmksJHOAA6fNhGG6lAzC1CqXSTyQtpwT2x02nUAEAAKB5MMAaz+JXMd69xYFsjo10fpkMwPRsok3+aTLgADvx4xcuXDiHEAAAAM2BAda46nH/DBzo2Mi+fv8D9z9MCWCadHZ+S9KDhMB+xOZ0dnIjdwAAgCbBAGt8uP8V9idS3T5LBmD65HK5bSb/P0pgf1wBb0QBAAA0CQZY42nnzgAL+/PzwmBhJRmAad5Qj8y8SNI2SmCf+CRCAACA5lnbk+DQZOPx4ySbRwns85hIfjEVgOl3/wP3P2yy6yiB/ayCGGABAAA0zdINh4gbuGO/1vTMn38tGYAGYQyUsR+u40888kg+TRgAAKAJMMA61DWviRu/Yj/Hyvr6smXLRigBNIZcGN4gKaQE9iG2Yc6cxWQAAABofAywDt1xJMA+eBQFXyMD0FAiyS4hA/YlVtexVAAAAGh8DLAO/XiIBS/25dfcvB1oPFaLfUNSRAnszY03pAAAAJoBA6xDsHjx4hmSkpTAY4+SdTkRgMaTW50bdNdNlMBjN9ucgQUAANAMGGAdgq3rty6SrIMS2JPXFItdRQegQXd45ldSAY/Zcss5AwsAAKAZ1vMkGDuziMUuHnsQ5PbLfD7/F0oADaqz80rJa4TAXo45W+JNKQAAgAbHAOsQuHH/K+zjxcTZHUBDy+VyayX7DSWwlxmr+jNJMgAAADT4MTcJDgkDLOxtpKNWu5oMQINzu4IIeMzTIlZjvw4AANDgGGAdCjMuIcTehz+/vm/16nV0ABpbFNOPxKcRYu/duvgkQgAAgEbHAOtQOGdg4TEHPz+lAtD4isXiGsn+TAnshf06AABAg2OANdYV7sDAQkmHUwK7Y4AFNJXrSYA9N+KcWQ0AANDoGGCN0XZ1ZKiAvZRWlkr3kgFoEl5n4Iy9nhPKEgEAAKCxMcAaIwuiOBWw14EPZ3MATSRfLt9q0hAlsJsjFy9ePIMMAAAAjYsB1hiZgoVUwB7PiYDLB4EmU3fTjWTA7uuhzZs3P44MAAAADbxgI8FYRQM0wO5PiO1R9BsyAM3FpV9RAXssiOr1fioAAAA08HqNBGNlLHCx29NBy8vl8jAhgCZTC24mAvZcEQXs3wEAABp5uUaCMTKxwMWjInEQDDShwmDhbu6DhT24cYY1AABAA2OANeYFrljg4hEmY4AFNOnW3KXfkwGPbM/dj6YCAABA42KANQZLlizplHQEJbBLzCIGWEDTcl6/eERkzhnWAAAADYwB1hgMDQ0tpBl28+CKUqlIBqA5mXEGJfZ4RnCGNQAAQANjGDOWpW2dxS0e5aY/UgFoXrGZM5dJckpAkkzc4xIAAKCRMcAay+I2iFjc4tHng9udVACa14oVKza4FFICOx11ttRBBgAAgMbEAGsMPNKRVMAjzO8mAtDsL2MxiMYusWIisYAMAAAAjYkB1lhiBeqlAh55PrjfQQWgyZkzwMIjOt17qAAAANCgx+AkGD1nYYtHbTu6VFpJBqC5mQd3UQGP7Ocl9vMAAAANigHW2HSTADvds1SqkQFobvUYlxDiUa4OBlgAAAANigHW2HJxCSF2WUECoPklisW85AyjsXNRxJnWAAAAjbtWwxiwsMXOZ4KrSAWg+S2VapKtpgQkydnPAwAANCwGWGPTTQJIkslCKgAtg4E0JHEPLAAAgEbGAGtsWNhCkmQxhVQAWoTzesYji6JuKgAAADTsWg1jwAALkqRoxDhjA2gRzhlYePS5wH4eAACgQTHAGqVkMjlL0ixKQJJHHdEqMgCtgUuCsduqiAEWAABAwy7VMFrdJMBOa8Mw3EoGoEVYNEgE7MQACwAAoEExwBrt8Y1ZFxWw0zoSAK0jCoKHqQBJMtfhVAAAAGhMDLBGbyYJIEnuWksFoHV0jowwlMaO7bs0gwoAAACNiQHWaEPV651UgCSZcQYW0EqiWbM4Awu7MMACAABoUAywRsnMWNRiJ+dgF2ghuVxum+QbKQE5AywAAIBGxQBrlCwIOAMLO45v3BhgAa23led1DcnEvh4AAKBBMcAapTqXEOJRVRIArcWlChUg7ncJAADQsBhgjZYZi1rsetVsIwLQcnhdQ5LzZhUAAEDDHopjdKHMWNRix3PBfTsVgBbjDLAgSdzvEgAAoGGPxUkwShGLWjyCA12gxZgxmIYkqVOSkQEAAKDxMMAapcgizsDCDh5woAu03u6QwTQkyZYsWdJBBgAAgAZcsZNglCta4wws7OABZ2oALfjK5nUNSdLI4CD7ewAAgAbEAGuUzI13ZLHzOJcDXaAFcQYWJEnrZ8/mjGsAAIAGxABr1CKnASTJPGCYCbQYl/O6hiSpo6MjogIAAEDjYYA12oMbszoVIEmRRVxeArQas5lEgCTN2bCB/T0AAEADYoA12mObiAEWHjnQZYAFtJpIDLAgSdp82GE1KgAAADQeBlijPbaxiAEWduFAF2gxZmIwDUlSfy7H/h4AAKABMcAa9cENZ2Bh53Mh4kAXaEEMpiFJWiqxvwcAAGhADLBGyd25pAA7cAkh0IoYYEHaMbziQ1sAAAAaEAOs0YaKghEqYIfocBoALWceCSCJfT0AAECDYoA1SnXTFipAklxBHxWAlrOABDBpMxUAAAAaEwOsUYeqs6jFjgMc8/lUAFpKTFIXGeBy9vUAAAANigHWKJkZi1rsPMIxzsACWkgmk+ljf4id23fOtgYAAGhQLNhHqWYsarGDiTOwgJbaEdZqDKWxY/tuXEIIAADQsOt2EowyVBCwqIUkyeUc7AItpBYFDKWxc/vOAAsAAKBRMcAapY6tHSxqsZMdwWsHaKFXdBAdQQXsxNnWAAAADYqD8FE67HGHVamAnWYs6u9/HBmA1mAKUlTAThUSAAAANCYGWKO0bNmyEZc2UQKSVAtmcMALtAiXeD1DkmQMsAAAABoWAywWtjikF44nqQC0yrad1zN2cNkwFQAAABr1OBxjUSEBJMmNMzaAFsLrGbtwuwAAAIAGxQBrTKxCA0icsQG01MtZSpABkiTnjSoAAIBGxQBrbFjYQpIUubJUAJrfsQMDj5M0hxKQuFUAAABAI2OANaaVra8jAiQpMD2BCkDzq8diJ1ABu0QWDVEBAACgQY/DSTAG7muIAElyqTd7dLafEkCTv5YjnUQF7GLuD1EBAACgMTHAGluuv9AAu0QdIydSAWhubs4ZWHiE1WfwRhUAAECDYoA1loWti4UtdntCGAMsoNlfxuJ1jEe4ZmstGQAAABoTA6yxiDHAwm4vHhdnbgBNbMmSJZ2SjqMEdqrkcrltZAAAAGjQY3ASjF5dDLDwKJeeSAWgeQ0NDT1e0gxKYCduEwAAANDAGGCNgXMTd+zpuP7+/l4yAM3J3E+jAh7dx/MmFQAAQCNjgDUGYRiukcTlBXjk+HdGLPY0MgBNugN0O4MKeOT5YLaKCgAAAA28XiPBmLhLD5ABjz4j7HQiAE368pUzwMIjIvcyFQAAABoXA6yxH/HwDi12xwALaELHDgwslJSgBHZbEbF/BwAAaOjlGsbGeIcWuz0dTE9evHgxN4EGmkwtFjuTCtgDZ2ABAAA0NAZYY17gco8M7GH21o0bTyED0GSbcjcGWNjzOREEg1QAAABoXAywxl6MARb29mwSAM3FFJ1PBexuZGSE/TsAAEADY4A11oMe95AK2PNJYQywgCaS7k8fI1mWEthNZXBwcIgMAAAAjYsB1hh5PZajAvZ8UmhJJpM5ghBAc7AguoAK2GtDzr4dAACgwTHAGqP4YKEoaYQS2P11ZCPRs8gANAnjsl885knBAAsAAKDRD7xJMDZLpZokPqkIex37OGd0AE0gmUzOknQWJbAnzsACAABodAywDmmdKxa62NuzlyxZ0kkGoMF3elFwrqQ5lMAezP5/e/ceJ1dd33/8/Tkzu7lKdjeE1LCZ2w6grNweW29I5SJKgFItws9bpcVba7UqtRZbbbHWn1b5lV5tRRQLtlYUtAoqFX41IlQUwj2QDbM7Z2Y34ZLLzibZbJLdOZ/fH1h/KLlsdmd25sy8no9H/uDxyB/htTPnnO9nv+ecISIAAAA0+bU8CQ6fG7ca4Jc+E1JPZevWsykBNDmrvoEIeM4xPAo4rwMAADQ5BlizutL1x4mA534ujIUx0MQymcxCk/0GJfCcw3eC8zoAAECzY4A1mwtd2aNUwHOYfvNnz9cB0IQS7udKOoIS+CXbisXiU2QAAABobgywZqHTp9dTAftxRDKyV5MBaFLsksT+PhYuzukAAAAxwABrFgZHRjZLqlACz2FigQw0oVWrVi2W+fmUwHMP22JXNQAAQAwwwJo9LnjxHC6/MJPJdFECaC6LkgsukmwpJfAcZuzAAgAAiAEGWLPmDLCw33VyIL2RDECTseidRMD+RQywAAAAYoAB1iy52yNUwH7Xya53UQFoHplM5gWSvYIS2J8oCPiFFAAAQAwwwJptuEAPUAEHcEpfKjVABqA5JNzeIckogf3YzBsIAQAA4oEB1mwlk/dLckLgAF8tblcCmkB/f3+n5G+lBPbP7qcBAABATFbZJJidQqGwQ/IhSmD/ayK9KZ/PH0EIoLH2TExcKOkoSuAAHiABAABAPDDAmgvjN7c4oCM0NfUOMgCN5a4PUAEH/Hwouo8KAAAA8cAAaw5MYoCFgyyMdNnAwEAHJYDGyGcyZ5j0UkrgQJLuD1ABAAAgHhhgzYEzwMJBWe/Ytm0X0QFo1EHaP0gEHMT4xnK5SAYAAIB4YIA1B3unp38qHuSOg33BXJdTAZh/2Wz2OJedRwkciJk4hwMAAMRpfU2C2RsdHd0u6XFK4EBcOqkvnT6TEsD8skgf4hyHgx6f3X9CBQAAgPjg4n7ul8BcAONQS+mP0gCYP7lcLmXy36IEDnr2ln5MBQAAgPhggDVHJjHAwqGcxS4sYB5V/c8lLSAEDsKTUwt+SgYAAID4YIA11ytg97upgEOzT9AAqL/86tV9Jr+EEjiExzdu3riVDAAAAPHBAGuOulaseEjSJCVwCKf2ZTJryADUlwfBFZI6KIFDfFLYPQ0AABAzDLDmaN26dVPiNkLMaL1kn5BkhADqI5fLHSvpTZTAoY/HwZ1EAAAAiBcGWDVgph9SATNYMQ3k0ukL6QDU6VhcjT4lWZISOJRq4HdQAQAAIF4YYNWAOxfCmPES+8pMJrOQDkBt/exFCQyIMRNPh2E4SAYAAIB4YYBVA3ur1R9L2kcJHIpJ2aR0GSWAmkqY7G/IgBkeiNdKckIAAADECwOsGhgdHZ2UdC8lMBPu/qfHrV69ihJAbeQymXe6dBIlMBPGrmkAAIBYYoBVI+48BwszXj4tnbbEJ+kAzF0+nz/CXB+jBGYqqiYYYAEAAMQQA6zapfwvGmDGTG/NZzIvIwQwNz49/XFJKymBGXp6eHT4ETIAAADEDwOsGomC6E5Jk5TAjL97ri/l8/kFpABmJ7c692K53ksJzJRJt4vnXwEAAMR0EY2aCMNwj7t+RAnMlEsviPZNX04J4PCdISUtiK6WlKAGZnzcNd1GBQAAgHhigFVDZsaFMQ7zM6OP5FOp4ykBHJ6RdPbDkk6hBA7rmDuVvJ0KAAAA8cQAq4aigN/s4rB1ugVf5LsIzFwulztW8o9QAodpfWFTYZQMAAAA8cSiuYaKxeJDkp6kBA7Ty/pSGZ7jA8xMwqrVL0paSAocDnN+yQQAABBnDLBqy+W6lQw4/JWVPpPNZk8kBHBwfensn0h2GiVw2BL2PSIAAADEFwOsGjPZd6iAWVgQRP6V3t7eRaQA9i+3Overkv85JXD4fJcSiR/SAQAAIL4YYNXYgsnFt0raSwnMQn9nIvm/yQA814krVy6xIPo3SR3UwOGz7xcKBc7NAAAAMcYAq8bWb1m/y0x3UAKzWmJJH8il0+dTAvhFEwsW/aOkYymB2XA5u6MBAABijgFWPS6UI91CBcySmewLx61evYoUwDPyqexvyfQ7lMAsRZHZd8kAAAAQbwyw6iBpfjMVMAe/Mh0kburv7+8kBdpdNps90c2vpgRmy1z3hmHIG4IBAABijgFWHQyWSkWZHqYE5uBlk7t2X0UGtLNUKtUdRP4NSYupgVkz/xYRAAAA4o8BVp14pJuogDmtueTvyWUyl1IC7Xp+6rDElyX1kQJzMW32DSoAAAC0wAKBBPVhnmCAhRp8jvTZYzKZkymBdpNLZf5Mcl5ogDnyR8Iw3EAHAACA+GOAVSdDI0OPmMRFM+ZqUeT6Tv7ofC8p0C7yqezFZvpzSmCu3O1GKgAAALQGBlh1FLm+SQXUwCpPTn+7f0X/UlKg1eVSudPc/HrOT6gFdkMDAAC0DhYI9bxwVsSFM2rllD2Ld39VUoIUaFW53twxZtF/SFpIDdTA4NDI0CNkAAAAaA0MsOpoqFxeJ2kjJVAbfn5fOv3PdEAresHRRy+3RHSLpOXUQC2Y6QYqAAAAtA4GWPW/gP4qFVDDT9Q7c5nMh+mAVtK/on/pVLLjZknHUgO1Mi39OxUAAABaBwOsOoumg3+lAmrJXJ/Kp9N/SAm0gv7+/s49iye+Lunl1EANj5TrePsgAABAa2GAVWfDo8OPS7aOEqgll/2fvlT2nZRAnA0MDHRMTkzcKGkNNVBbEbuvAAAAWgwDrHlgir5CBdT8Y2X+z7lM5k2kQEwlKlu3XW+uC0iBGotsuoPnXwEAALQYBljzsUqLoq9KqlICtf5omeu6fCbzWlIgbueefDpzjaQ3kgJ18MPCpsIoGQAAAFpsEUGC+hscGdks1+2UQB10uOumvlT2ElIgJhJ9qcy1Ll1KCtSF6ToiAAAAtB4GWPNX+ktEQL0GAjK/Np9Ov50UaGb9/f2dfenM12T6bWqgPnzXwoklN9EBAACg9TDAmicLlyz5puRbKYE6Sbjsmlwm8wFSoBmtWrVq8Z6dE9+WdCE1UC+u4Ib1W9bvogQAAEALLnpJMD+2bNlS7e7qSZv0EmqgTsykNcu7u/Ztr1TuJAeaRS6XW9YRBN+VdBY1UFcevH9sfKxMCAAAgNbDDqx5ZF7lNkLUf/3m+mQunf3CwMBABzXQaMf29h6tarRWrl+jBups43B5+C4yAAAAtCYGWPNoqFxeZ9KDlEC9mfztla3b/qN/Rf9SaqBR+lKpgWoieY9JJ1MD9eauayU5JQAAAFoTA6x5FpmupgLmyXl7lkz8d19f32pSYL7lM5lzZMEPJD2fGpgH+zxh/0IGAACA1sUAa551LFjwr5J2UgLzwnWCpqp3HZPJnEwMzJdcKvN+d31H0vOogXnyjWKx+BQZAAAAWhcDrHk2ODi4U65/owTmjWl15PpxPp1+OzFQT5lMZmE+nbnWTH8rXhKC+TzMmT5HBQAAgFZf2mLeZbPZE4PIeRYWGvGN//zCJUv+YP369fuIgVrK5XIpq1ZvkuxXqYF59thQKewXz78CAABoaezAaoBisfiQZLwpCfPP9a49u3bdlcvlUsRAreTS6fOsGj3A8AoNOq59TgyvAAAAWh4DrIZdb0f/RAU0hv2qVaOf9mUya2iBuRgYGOjIpzKfMtnNkropggacTXdVA11PBwAAgNbHAKtBuo888uuSj1ICDbJSru/2ZTJXr1q1ajE5cLiOS6ezla3b1rrpw5xL0EBfCsOwQgYAAIDWx6KjQdatWzcl8dBZNJTJ9a5FHZ338JZCHI6+VPaSaekhSadSAw3kURB8lgwAAADtgQFWAyWmFlwtaZISaLDjI9ePc6nM+zkm4GDy+fyKfDp7o8yvk2wpRdBIbrqlWCwOUgIAAKA98JrzBtq2c9vunq5lackGqIEGS5ppTU9X12uWLzvi7u3j41tIgmfLp7IXexR9RxIPakdTMPm7x8bHQ0oAAAC0y/UfGrwoTB3vFjzCzwJNZMpMVymZvKJQKOwlR3vLZDKZRKTPyXQONdBEVy8PD4XhSeLtgwAAAG2D24UarFAuPyrpVkqgiXS463Kfmr6vL53mGUdt6gwpmc9kLgtcjzC8QrOxyK4UwysAAIC2wgCrGS7ETZ+mAprQ8ZLd2ZfJfC2bzabJ0T760ukzR9KZde66yqQlFEFTcY0sW9HzVUIAAAC0F25ba5oFY+Yu8UYvNK/dZrpyz/T0p0dHR3nxQIvK5XIpq1Y/IdlbqYGm5fa+oXLxHwgBAADQXtiB1SxMVxIBTWyxu65YkEg+mk9lLxbD75aSz+ePyGcyf2XVaCPDKzQ337pk7+5r6QAAANB+WIQ20c+iL515WFI/KRCDI8fDFtlfFsrFG8VzaGLrxJUrl+xasOgdZvpTSUdRBM3OXVcMl8OPUwIAAKD9JEjQPHq6uyYkvY4SiIGVMl3c09V1TveyntLY+NgwSeKjt7d30VHd3e/bl+z4upleL55zhVjwXZ3V6bds3bmT25gBAADaEDuwmsgZUnIkndkgqY8aiNWy0nWHyz5RLBdvo0bzetaOqz+WtIoiiNUFi+nThTD8MCUAAADa9HqQBM0ll06/zWRfpARi6iG5fbYa+PVhGO4hR3Po6+s7yqrV33fXeyUtpwjixqUJSyZyQ0NDT1MDAACgPTHAajIDAwMdla3bNkjKUQMx9qSZrt4XRX9XLpfHyNEYfb19eSWrfyDXOyUtoghie7HC7isAAACuCUnQfPLp7Dtcfg0l0AL2yHSzR8Hnh8vDt5NjHo4f+fwC7av+hlv0LslexXEeccfuKwAAAIiFTXMaGBjoGNu6bdCkLDXQQh5z13Wd1akvbNi0aRs5aiubzR6XcL/UXW+TtIIiaKErlc8MheHlhAAAAGj3y0I0pVwmc6m5rqUEWtCkXN+W+Q1Vs+/xrKzZO7a39+jpZPJic71B0ssogha0MzHVmdu4eeNWUgAAALQ3BljNK9GXzjwk6XhSoIXtNvl/yYPr1Zn4dqFQ2EuSg3vB0Ucvn0p0nm8WXezSGsmSVEGrctfHhsvhX1ACAAAADLCaWC6dvtBkN1ECbaIi0/ddujWSvheG4ZMkeeY4nU+nT5bZGpfOletUSQmyoPX51uTChbnBwcGdtAAAAAADrGZfuKYyd7vpJaRAu61cJT3grlsTCbt1yv2n7XSrYV9f31E2FZ3h8nNlWiPpV/hIoP0uUPyDhVLpKkoAAADgmetDNLV8JnO6u9ZSAu3Np6XgQZnfZZHdqc7E2kKhsKVV/u+OTaVyVSVOU+CvkOs0SS/k+Iw2t2lvdfqY0dHRSVIAAABALJDiIZ/JfN9dr6YE8HMuaaNMD5r7g/Lg4enAHw7DMGzmf3R/f3/nvomJ4z2yE9yiE9ztJDOdIt4aCPzSF9zfPlwq8SITAAAA/BwDrBjoW933IgXT9/OwZuCQxiWtl3zIzIouFU0Kq2bFYrE4Kqla73/AqlWrFi9OJrORWcYUZCVlJM9Kfqxkx0nq4McEHNR9Q6XwxZIiUgAAAOB/MMCKiVw6+1mT/z4lgFmbkrTtZ3+2Stom01a5bXX3Hc8cEG3sZ393j0mTzzpSLnNXYBZ1RG5Lg0BB5HakuS838+UuWy5puZ7ZSdVNamDWPIrs9OJI8UekAAAAwLMxwIqJ3t7engWJ5MafLZIBAGg9rhuGyuEbCQEAAIBfxqvYY2LHjh2TPcu69sh0LjUAAC1oshroNyuVSoUUAAAA+GUBCeJjdTn8J8kfoQQAoNWY6cpmfxEDAAAAGocBVoyslabdE5dRAgDQYjYtnpz8DBkAAABwIAywYma4PHy7ZN+hBACgVbj88oeeemqCEgAAADgQBlhxVA0+IGkvIQAALeDu4VLpK2QAAADAwfAQ9xga2zG2vburq8ekl1MDABBjHgV2UaVS2UQKAAAAHAw7sOL6g+tIfkzSk5QAAMSW6/pisfhTQgAAAOBQ2IEVU9u3b9/b3d213aTXUgMAEEOVafMLx8fHd5ECAAAAh8IOrBgbDsN/MdNtlAAAxI3JPlQqlZ6gBAAAAGaCAVa8+bT0Lpd4cxMAIE5+WCgVv0gGAAAAzBS3EMZcpVKp9HR175P0GmoAAGJgb9X065VKZSspAAAAMFPswGoBQ6Xi30h+LyUAAM3OXVeEYbiBEgAAADgcDLBaQzUKgrdLmiIFAKCJPdS9YvlVZAAAAMDh4hbCFlGpVJ5avqxrsUynUQMA0ISq8uiC9Rs2jJICAAAAh4sdWK2kM/kxSY8RAgDQfPyqoXJ5HR0AAAAwGwywWkihUNhrpndLcmoAAJpIuGTPnr8gAwAAAGaLWwhbzPZKpdTT3bVK0gA1AADNIHL7X4ObR3lwOwAAAGaNHVgtyIPgj+UaoQQAoOHnJNkXi+XibZQAAADAXDDAakHDw8PjkdtbJFWpAQBooKGOhZ2XkQEAAABzxS2ELaqyo1JevqxrEW8lBAA0hk+b2QWPDw0N0wIAAABzxQ6sFtZbDv/MpZ9QAgAw30y6ohCGd1MCAAAANbq+RCvr6+3LK1G9T9LzqAEAmKerix8NheGZ4lZ2AAAA1Ag7sFrc0OhQQW5/RAkAwDypRGZvFcMrAAAA1BDPwGoDY+OVdT3dXf2S+qkBAKgnN72tGIZ3UgIAAAC1xA6sNjEVRb8r1wglAAB147puOAz/nRAAAACoNQZYbaJcLo9FsrdLiqgBAKiDYetMvo8MAAAAqAduIWwjlfHKcE9X9xGSTqUGAKB2fNqkCwrF4hAtAAAAUA/swGoz1pH4iOT3UgIAULNzi3RFoVT6MSUAAABQx2tOtJtcLpeyanSvpBXUAADMhZtuHg7D10pyagAAAKBe2IHVhoaHh8uSv1G84hwAMBeuxxUEbxXDKwAAANQZz8BqU2Pj48Xu7q59Jp1NDQDA4fNdJn/1UBjyhlsAAADUHQOsNjZWqdzV3bWs32THUwMAcDjMg7cWyqW1lAAAAMB84BbC9uaLdi+9VNKjpAAAzJz9daFc/BodAAAAMF8YYLW59VvW74oCu1DSDmoAAA7N7uo6sudP6AAAAIB5vQolASQpn8m81l3f5DMBADiIJ6blA6VS6QlSAAAAYD7xDCxIkrZXKoM93V2LJb2CGgCA/ZiSR+cXy2VuOwcAAMC8Y4CFnxurVH7Q09V1mqQsNQAAz+am9w6XSt+kBAAAABqBZ2Dh2ap7q9MXSxokBQDg50yfHw7DzxECAAAAjcIAC79gdHR0e1J+rqSnqQEAkPTd1WH4HjIAAACgkRhg4TkGS6WiR8GvS9pNDQBoa/ct3L3kDWulaVIAAACgkXgGFvZrbMfY5uXLujfKdJF4MyEAtKNNNp08e/DJwa2kAAAAQKMxwMIBbR+vPNrT1T0p6dXUAIC2siMK7Ozh8vDjpAAAAEAzYICFgxobr/x3T9eyIyV7CTUAoC1MRW6vK5aKPyYFAAAAmgUDLBzS2Pj493u6u06WdBw1AKDFmd4zXAq/RggAAAA0Ex7ijpmoLpxY8hZJ95MCAFqZ/+VQGF5NBwAAADQbHs6NGUun089Pyu6WlKIGALQY1w1D5fBNkpwYAAAAaDbswMKMlUqlJ8yj8yTnjVQA0ELc9f2Fz1tyiRheAQAAoEmxAwuHLZvNnhRE/gNJ3dQAgNj774W7l5yzfsv6XaQAAABAs2KAhVnJZzIvc/fbJFtKDQCIJ5ceiExnhmFYoQYAAACaGbcQYlYKYXi3pNdK2kMNAIgh08Od01NnM7wCAABAHDDAwqwNlUr/ZabXSdpLDQCIEy9Mu5+zYdOmbbQAAABAHCRIgLnYXqkMdXcte9Sk10vGQBQAmp1rpBrYWaVSaZQYAAAAiAsGWJizsfHxx3qW9ZRkeq14rhoANLOnooSdFYbhECkAAAAQJwywUBNj45UHl3ct2ybZedQAgGbkW839rOFS6TFaAAAAIG4YYKFmto+P39Pd3TVu0hpqAEBTGZf7a4bK5QdJAQAAgDhigIWaGqtU7u5Z1jUp09nidkIAaIpDc2BaUyiV7iEFAAAA4ooBFmq/Uhqv3NXd3fWUSeeJIRYANNJTUWCvGgrD+0gBAACAOGOAhboYq1Tu7e5aNmTSb/B2QgBoiLJXgzOL5SLPvAIAAEDsMcBC3YyNjz+8fFnPoEyv47MGAPPHpWLSo1cVRnjbIAAAAFoDt3eh7nLp9Hkmu1HSImoAQN09lqhOv3rj6OgmUgAAAKBVcGsX6m64VPqumc6VtJMaAFBX91lH8nSGVwAAAGg17MDCvMmtzr04CKJbXeqhBgDU/Ix+z97p6TWjo6PbiQEAAIBWww4szJvhkeF7JD9b0hZqAEBNrU0uWPAqhlcAAABoVezAwrzLp1L9ruB7Mq2mBgDM2TeqpreEYbiHFAAAAGhVDLDQEOl0+vlJBTdLPkANAJj1Wfzvh8LwMkkRMQAAANDKuIUQDVEqlZ5Ysmf36W66mRoAcNiqcnvfUBi+XwyvAAAA0AYSJECjPDUxMTVWqXytp2tZj2QvoQgAHJpLE4HbxUPl4pepAQAAgHbBAAsNX4uNjY9/r3tZV8VMrxG3tQLAwTyhKDhnaKS4lhQAAABoJwyw0BTGxis/6ela9rBkF0jqoAgAPMf6KLCziqXiY6QAAABAu2G3C5rKMZnMSyPXtyStpAYA/Px0/X+r5heFYVihBQAAANoRD3FHU3k8DH+SlL/cpA3UAABJrn/pOrLnXIZXAAAAaGfswEJT6u3t7VmQSNwg2dnUANCmqm766HAY/hUpAAAA0O54Bhaa0o4dOybHxse/sry7yyW9UgxbAbSXbRbYhUNheB0pAAAAAIYCiIF8KnuBm18vqYsaANrA/Un56wdLpSIpAAAAgGcwwEIs5HK5Y61avUmyF1EDQOvyL09OTf3e5s2bd9MCAAAA+P8YYCE2+lf0L92zZOJauS6mBoAWs9ddlw+Xw78jBQAAAPBcDLAQu89sLpV5n5mulNRBDgAtYJOZLiqE4d2kAAAAAA4wDCAB4uiYbPaVUeRfk7SSGgDiyl13RIHeEIbhk9QAAAAADowBFmIrl8ulLIpulOvF1AAQMy75X68ulf5krTRNDgAAAODgEiRAXI2NjY2fVKl8aWd3l0t6pRjIAoiHLeb2pqFy+I+hFJEDAAAAODQW/GgJfen0mZKul6yXGgCa9qRrui1Rrf7O4MjIZmoAAAAAh3EtTQK0ilwut8yq0T9LehM1ADSZPe762HA5vFLsugIAAAAOGwMstJy+VPYSWfRZyZZSA0ATeDQK7M3FYvFBUgAAAACzwwALLem4dDo7LftXSadSA0CDuEzXTO7bd9nmzZt3kwMAAACYPQZYaFlnSMnRTOaj7vqoeGEBgPn1tMvfNlwqfYcUAAAAwNwxwELLy6fTL/dndmPlqAGg3tz1/ar575RKpSeoAQAAANQGu1LQ8raPj492L++5zuSLJb1YDG4B1EdFbu8fLod/OD4+vpMcAAAAQO2wkEdb6UulXiELrpH0QmoAqN3J1G8JqtXf2zg6uokaAAAAQD2uuYE2MzAw0DG2ZdsfmunjkjopAmAOnnD5e4dLpW+QAgAAAKgfBlhoW7ne3AlKRNeY9FJqADhMLtM1lkx+qFAo7CAHAAAAUF8MsNDugr5U9h2y6K8lW0oOAIfkelzmvztUKv2AGAAAAMA8Ld5JgDYXDZWLn6+anSDXf5IDwEFMmenT1pk8geEVAAAAML/YgQU8S18qe4nMPyNpJTUAPOts+SOLoncXyuX1xAAAAAAacUkO4BecuHLlkt2LFn3IXZdLWkgRoJ35qDz4yFC5+GVJTg8AAACgMRhgAQfQ19uXV7L6SbkupgbQdnab6R8WTCz5xPot63eRAwAAAGgsBljAIfSl02dJ9jeSTqQG0PJcphsjsw8Vi8USOQAAAIDmwAALmJmgL5X9LZlfKekocgAteUpc524fGC4P30kLAAAAoMmu1kkAzFwqleruDILL3XWZpE6KAC3hCbl9bKhc/IKkiBwAAABA82GABczCMen0CyPZVZLWUAOIrUl3/e2iySWf5DlXAAAAQHNjgAXMQV86fapkn5R0OjWA2JiS6UuJ6emPbxwd3UQOAAAAoPkxwAJqIJfKnS2LrjTpZGoATctlutGng48Mjw4/Tg4AAAAgPhhgAbUT5FPZN7tFV0iWJwfQNNxNt7jZnxWLxQfJAQAAAMQPAyyg9oJ8Kvt6N/9LSceRA2gkv92jxJ8OjwzfQwsAAAAgvhhgAfXDIAtoGAZXAAAAQCthgAXUXyKXTr/BZH8k6RRyAHVTlekb5v6pQql0PzkAAACA1sEAC5hHuVTutMCql7vsfL5/QM3sk/yGqtknwzDcQA4AAACg9bCABhqgb3Xfi2TVD8r0ZkmdFAFmZdxMn5uW/jYMwyfJAQAAALQuBlhAA2Wz2ZUJ93fL9Qcu9VAEODSXinJdPa3o8+VyeYwiAAAAwWBzWAAABE9JREFUQOtjgAU0gf4V/Uv3LNr9Zpl/UNKxFAH2e8paJ9ffry4Xv7JWmqYHAAAA0EarARIAzeMMKTmSybxe0nvk+jWKAJo06auS/2OhVLqPHAAAAEB7YoAFNKlsNntcwv1Sud7J7YVoQxvddW1ndeoLGzZt2kYOAAAAoL0xwAKa3IkrVy6ZWLD4zTL9ruQDFEEL2yvTt+T+uaFSaa0kJwkAAAAAiQEWECv5VOp4BcEl7rpU0lEUQYt41F3XB53JawuFwhZyAAAAAPhlDLCAGOrv7++c3LXrAlNwqeRrJCWogpidfLa7/N9M+lKhVLqfIgAAAAAOsYYAEGe9vb09C4KOi2S6RPJT+V6jie0x+e3y4PoFz1v8rfXr1+8jCQAAAICZYKELtJBcLpfSdPSbZvptSadQBE2gKtndcl1vnYmvFgqFHSQBAAAAcLgYYAEtKp9K9SsILna3X+fh75hnVcnudvevR4FuCMPwSZIAAAAAmAsGWEAbyGQyL0i4v95lF5l0MkVQB3vcdJtJN01F0bfL5fIYSQAAAADUCgMsoM1ks9l0UNU5Cvxsd51n0hKqYJa2SH6reXCzOhP/ye2BAAAAAOqFARbQxk5cuXLJxKJFr5b7+ZKdK+loquAgIsnvM7PvRtXgluGR4XslOVkAAAAA1BsDLAA/d2wqlasqcbYCP1uu10haRpW296RMP1Jktyd9+pbBkZHNJAEAAAAw3xhgAdiv/v7+zr0TE6dKOtNdp0t6qaSFlGl5T8l0h7n/sBoEtxeLxUGSAAAAAGg0BlgAZiSfzy+o7q2+JAh0upm/0t1fLtlSysSca8TM7nDXHdXA7wjDcANRAAAAADQbBlgAZiuRT6Ve4EoMKPABub1C8lMkBaRpWlOSPSTzuxTZuqRFPxoslYpkAQAAANDsGGABqJlMJtNlkb04kJ8i0ymSTpF0jBhqNcJuSQ+ZdL+7PSBV13WtWPHQunXrpkgDAAAAIG4YYAGoq/4V/Uv3LN51opudFLhOcOmFkr9IsiOpUxORpKJM6y3So5H5wwnp/sdLpY2SquQBAAAA0AoYYAFoiHw+v8Knpl5k0gvd7Fi55SXPS8pK6qTQc1QkL0hWkGzIFT0WSI/tqVYfGx0dnSQPAAAAgFbGAAtAs0lkMpnVQRTkTZ61wHs9Ulqm1XKtlmm1WvNtiGOSRkxejhSUZT4i93LCbCgxNVXYsGnTNj4aAAAAANoVAywAsdPX13eU9ukoBdNHufR8ma0IIq106VckdcvUZVKXS12SuiUdMc//xKqkyjN/fExSRWZj7rZF7k8H5ltcekLuT3syuWXpxMSmh556aoKfLAAAAADsHwMsAO0gSKVSyxZG0WIFwYLIbFkUJZIyLZNVOwMPljz7L0eBL7XIOv7nv92iicCDfb/wd2RjQRBNexTtNGlPIE1WOzp2JZPJycHBwZ0kBwAAAAAAAAAAAAAAAAAAAAAAQOP9P9s9zVP7VFaBAAAAJXRFWHRkYXRlOmNyZWF0ZQAyMDI1LTAzLTI2VDExOjQxOjUwKzAwOjAwNIzAkwAAACV0RVh0ZGF0ZTptb2RpZnkAMjAyNS0wMy0yNlQxMTo0MTo1MCswMDowMEXReC8AAAAASUVORK5CYII=;" vertex="1" parent="1">
          <mxGeometry x="200" y="355" width="24.63" height="40" as="geometry" />
        </mxCell>
        <mxCell id="Yv_7eWdQ3MUncGAaWXMb-8" value="&lt;div style=&quot;&quot;&gt;&lt;span style=&quot;text-wrap-mode: nowrap; background-color: transparent; color: light-dark(rgb(0, 0, 0), rgb(255, 255, 255));&quot;&gt;Kafka Broker 1: NOMBRE&amp;nbsp;&lt;/span&gt;&lt;span style=&quot;text-wrap-mode: nowrap; background-color: transparent; color: light-dark(rgb(0, 0, 0), rgb(255, 255, 255));&quot;&gt;KAFKA BROKER&lt;/span&gt;&lt;/div&gt;" style="text;html=1;align=left;verticalAlign=middle;whiteSpace=wrap;rounded=0;" vertex="1" parent="1">
          <mxGeometry x="230" y="360" width="400" height="30" as="geometry" />
        </mxCell>
      </root>
    </mxGraphModel>
  </diagram>
  <diagram id="Ea6YRO22ds7nz9AHNZDL" name="Kafka2">
    <mxGraphModel dx="418" dy="250" grid="1" gridSize="10" guides="1" tooltips="1" connect="1" arrows="1" fold="1" page="1" pageScale="1" pageWidth="827" pageHeight="1169" math="0" shadow="0">
      <root>
        <mxCell id="0" />
        <mxCell id="1" parent="0" />
        <mxCell id="ztmzk0CmAbPPKLgFp1Ef-1" value="" style="rounded=1;whiteSpace=wrap;html=1;fillColor=#CCE5FF;arcSize=1;" vertex="1" parent="1">
          <mxGeometry x="200" y="80" width="200" height="230" as="geometry" />
        </mxCell>
        <mxCell id="ztmzk0CmAbPPKLgFp1Ef-2" value="" style="rounded=1;whiteSpace=wrap;html=1;fillColor=#99CCFF;align=left;arcSize=4;" vertex="1" parent="1">
          <mxGeometry x="220" y="100" width="160" height="30" as="geometry" />
        </mxCell>
        <mxCell id="ztmzk0CmAbPPKLgFp1Ef-3" value="&lt;font style=&quot;font-size: 10px;&quot;&gt;Topic: NOMBRE TOPICO&lt;/font&gt;" style="text;html=1;align=center;verticalAlign=middle;whiteSpace=wrap;rounded=0;" vertex="1" parent="1">
          <mxGeometry x="200" y="280" width="200" height="20" as="geometry" />
        </mxCell>
        <mxCell id="ztmzk0CmAbPPKLgFp1Ef-4" value="&lt;font style=&quot;font-size: 8px;&quot;&gt;Partition: NOMBRE PARTICIÓN&lt;/font&gt;" style="text;html=1;align=center;verticalAlign=middle;whiteSpace=wrap;rounded=0;" vertex="1" parent="1">
          <mxGeometry x="220" y="130" width="160" height="20" as="geometry" />
        </mxCell>
        <mxCell id="ztmzk0CmAbPPKLgFp1Ef-5" value="&lt;font style=&quot;font-size: 8px;&quot;&gt;Partition: NOMBRE PARTICIÓN&lt;/font&gt;" style="text;html=1;align=center;verticalAlign=middle;whiteSpace=wrap;rounded=0;" vertex="1" parent="1">
          <mxGeometry x="220" y="190" width="160" height="20" as="geometry" />
        </mxCell>
        <mxCell id="ztmzk0CmAbPPKLgFp1Ef-6" value="" style="rounded=1;whiteSpace=wrap;html=1;fillColor=#99CCFF;align=left;arcSize=4;" vertex="1" parent="1">
          <mxGeometry x="220" y="160" width="160" height="30" as="geometry" />
        </mxCell>
        <mxCell id="ztmzk0CmAbPPKLgFp1Ef-7" value="&lt;font style=&quot;font-size: 8px;&quot;&gt;Partition: NOMBRE PARTICIÓN&lt;/font&gt;" style="text;html=1;align=center;verticalAlign=middle;whiteSpace=wrap;rounded=0;" vertex="1" parent="1">
          <mxGeometry x="220" y="250" width="160" height="20" as="geometry" />
        </mxCell>
        <mxCell id="ztmzk0CmAbPPKLgFp1Ef-8" value="" style="rounded=1;whiteSpace=wrap;html=1;fillColor=#99CCFF;align=left;arcSize=4;" vertex="1" parent="1">
          <mxGeometry x="220" y="220" width="160" height="30" as="geometry" />
        </mxCell>
        <mxCell id="ztmzk0CmAbPPKLgFp1Ef-9" value="" style="shape=note;whiteSpace=wrap;html=1;backgroundOutline=1;darkOpacity=0.05;size=7;fillColor=#FFC4B0;" vertex="1" parent="1">
          <mxGeometry x="350" y="162.5" width="20" height="25" as="geometry" />
        </mxCell>
        <mxCell id="ztmzk0CmAbPPKLgFp1Ef-10" value="" style="shape=note;whiteSpace=wrap;html=1;backgroundOutline=1;darkOpacity=0.05;size=7;fillColor=#FFC4B0;" vertex="1" parent="1">
          <mxGeometry x="320" y="162.5" width="20" height="25" as="geometry" />
        </mxCell>
        <mxCell id="ztmzk0CmAbPPKLgFp1Ef-11" value="" style="shape=note;whiteSpace=wrap;html=1;backgroundOutline=1;darkOpacity=0.05;size=7;fillColor=#FFC4B0;" vertex="1" parent="1">
          <mxGeometry x="290" y="162.5" width="20" height="25" as="geometry" />
        </mxCell>
        <mxCell id="ztmzk0CmAbPPKLgFp1Ef-12" value="" style="shape=note;whiteSpace=wrap;html=1;backgroundOutline=1;darkOpacity=0.05;size=7;fillColor=#FFC4B0;" vertex="1" parent="1">
          <mxGeometry x="260" y="162.5" width="20" height="25" as="geometry" />
        </mxCell>
        <mxCell id="ztmzk0CmAbPPKLgFp1Ef-13" value="" style="shape=note;whiteSpace=wrap;html=1;backgroundOutline=1;darkOpacity=0.05;size=7;fillColor=#FFC4B0;" vertex="1" parent="1">
          <mxGeometry x="230" y="162.5" width="20" height="25" as="geometry" />
        </mxCell>
        <mxCell id="ztmzk0CmAbPPKLgFp1Ef-14" value="" style="shape=note;whiteSpace=wrap;html=1;backgroundOutline=1;darkOpacity=0.05;size=7;fillColor=#FFFFCC;" vertex="1" parent="1">
          <mxGeometry x="290" y="222.5" width="20" height="25" as="geometry" />
        </mxCell>
        <mxCell id="ztmzk0CmAbPPKLgFp1Ef-15" value="" style="shape=note;whiteSpace=wrap;html=1;backgroundOutline=1;darkOpacity=0.05;size=7;fillColor=#FFFFCC;" vertex="1" parent="1">
          <mxGeometry x="350" y="222.5" width="20" height="25" as="geometry" />
        </mxCell>
        <mxCell id="ztmzk0CmAbPPKLgFp1Ef-16" value="" style="shape=note;whiteSpace=wrap;html=1;backgroundOutline=1;darkOpacity=0.05;size=7;fillColor=#FFFFCC;" vertex="1" parent="1">
          <mxGeometry x="320" y="222.5" width="20" height="25" as="geometry" />
        </mxCell>
        <mxCell id="ztmzk0CmAbPPKLgFp1Ef-17" value="" style="shape=note;whiteSpace=wrap;html=1;backgroundOutline=1;darkOpacity=0.05;size=7;fillColor=#FFFFCC;" vertex="1" parent="1">
          <mxGeometry x="260" y="222.5" width="20" height="25" as="geometry" />
        </mxCell>
        <mxCell id="ztmzk0CmAbPPKLgFp1Ef-18" value="" style="shape=note;whiteSpace=wrap;html=1;backgroundOutline=1;darkOpacity=0.05;size=7;fillColor=#E5CCFF;" vertex="1" parent="1">
          <mxGeometry x="350" y="102.5" width="20" height="25" as="geometry" />
        </mxCell>
        <mxCell id="ztmzk0CmAbPPKLgFp1Ef-19" value="" style="shape=note;whiteSpace=wrap;html=1;backgroundOutline=1;darkOpacity=0.05;size=7;fillColor=#E5CCFF;" vertex="1" parent="1">
          <mxGeometry x="320" y="102.5" width="20" height="25" as="geometry" />
        </mxCell>
        <mxCell id="ztmzk0CmAbPPKLgFp1Ef-20" value="" style="rounded=1;whiteSpace=wrap;html=1;strokeColor=none;fillColor=#CCFFCC;arcSize=2;" vertex="1" parent="1">
          <mxGeometry x="470" y="74" width="160" height="270" as="geometry" />
        </mxCell>
        <mxCell id="ztmzk0CmAbPPKLgFp1Ef-21" value="Consumer 1" style="rounded=1;whiteSpace=wrap;html=1;strokeColor=none;fillColor=#CCCCFF;arcSize=2;" vertex="1" parent="1">
          <mxGeometry x="490" y="94" width="120" height="40" as="geometry" />
        </mxCell>
        <mxCell id="ztmzk0CmAbPPKLgFp1Ef-22" value="&lt;font style=&quot;font-size: 8px;&quot;&gt;NOMBRE CONSUMIDOR&lt;/font&gt;" style="text;html=1;align=center;verticalAlign=middle;whiteSpace=wrap;rounded=0;" vertex="1" parent="1">
          <mxGeometry x="490" y="134" width="120" height="20" as="geometry" />
        </mxCell>
        <mxCell id="ztmzk0CmAbPPKLgFp1Ef-23" value="&lt;font style=&quot;font-size: 10px;&quot;&gt;Consumer Group: NOMBRE DEL GRUPO CONSUMIDOR&lt;/font&gt;" style="text;html=1;align=center;verticalAlign=middle;whiteSpace=wrap;rounded=0;" vertex="1" parent="1">
          <mxGeometry x="470" y="300" width="160" height="30" as="geometry" />
        </mxCell>
        <mxCell id="ztmzk0CmAbPPKLgFp1Ef-24" value="Consumer 2&amp;nbsp;&lt;div&gt;Replica&lt;/div&gt;" style="rounded=1;whiteSpace=wrap;html=1;strokeColor=none;fillColor=#CCCCFF;arcSize=2;" vertex="1" parent="1">
          <mxGeometry x="490" y="155" width="120" height="40" as="geometry" />
        </mxCell>
        <mxCell id="ztmzk0CmAbPPKLgFp1Ef-25" value="&lt;font style=&quot;font-size: 8px;&quot;&gt;NOMBRE CONSUMIDOR&lt;/font&gt;" style="text;html=1;align=center;verticalAlign=middle;whiteSpace=wrap;rounded=0;" vertex="1" parent="1">
          <mxGeometry x="490" y="195" width="120" height="20" as="geometry" />
        </mxCell>
        <mxCell id="ztmzk0CmAbPPKLgFp1Ef-26" value="Consumer 2&amp;nbsp;&lt;div&gt;Replica&lt;/div&gt;" style="rounded=1;whiteSpace=wrap;html=1;strokeColor=none;fillColor=#CCCCFF;arcSize=2;" vertex="1" parent="1">
          <mxGeometry x="490" y="215" width="120" height="40" as="geometry" />
        </mxCell>
        <mxCell id="ztmzk0CmAbPPKLgFp1Ef-27" value="&lt;font style=&quot;font-size: 8px;&quot;&gt;NOMBRE CONSUMIDOR&lt;/font&gt;" style="text;html=1;align=center;verticalAlign=middle;whiteSpace=wrap;rounded=0;" vertex="1" parent="1">
          <mxGeometry x="490" y="255" width="120" height="20" as="geometry" />
        </mxCell>
        <mxCell id="ztmzk0CmAbPPKLgFp1Ef-28" value="" style="endArrow=classic;html=1;rounded=0;" edge="1" parent="1" source="ztmzk0CmAbPPKLgFp1Ef-2" target="ztmzk0CmAbPPKLgFp1Ef-21">
          <mxGeometry width="50" height="50" relative="1" as="geometry">
            <mxPoint x="380" y="220" as="sourcePoint" />
            <mxPoint x="430" y="170" as="targetPoint" />
          </mxGeometry>
        </mxCell>
        <mxCell id="ztmzk0CmAbPPKLgFp1Ef-29" value="" style="endArrow=classic;html=1;rounded=0;" edge="1" parent="1" source="ztmzk0CmAbPPKLgFp1Ef-6" target="ztmzk0CmAbPPKLgFp1Ef-21">
          <mxGeometry width="50" height="50" relative="1" as="geometry">
            <mxPoint x="390" y="123" as="sourcePoint" />
            <mxPoint x="500" y="121" as="targetPoint" />
          </mxGeometry>
        </mxCell>
        <mxCell id="ztmzk0CmAbPPKLgFp1Ef-30" value="" style="endArrow=classic;html=1;rounded=0;" edge="1" parent="1" source="ztmzk0CmAbPPKLgFp1Ef-8" target="ztmzk0CmAbPPKLgFp1Ef-26">
          <mxGeometry width="50" height="50" relative="1" as="geometry">
            <mxPoint x="390" y="187" as="sourcePoint" />
            <mxPoint x="500" y="189" as="targetPoint" />
          </mxGeometry>
        </mxCell>
        <mxCell id="ztmzk0CmAbPPKLgFp1Ef-32" value="" style="shape=mxgraph.mockup.markup.redX;fillColor=#ff0000;html=1;shadow=0;whiteSpace=wrap;strokeColor=none;" vertex="1" parent="1">
          <mxGeometry x="500" y="150" width="90" height="50" as="geometry" />
        </mxCell>
      </root>
    </mxGraphModel>
  </diagram>
</mxfile>
